<?xml version="1.0" encoding="UTF-8"?>
<svg xmlns="http://www.w3.org/2000/svg" xmlns:xlink="http://www.w3.org/1999/xlink" width="245" height="132" viewBox="0 0 245 132">
<defs>
<g>
<g id="glyph-0-0">
<path d="M -0.015625 0 L 1.953125 -5.09375 L 2.671875 -5.09375 L 4.765625 0 L 4 0 L 3.40625 -1.546875 L 1.265625 -1.546875 L 0.703125 0 Z M 1.46875 -2.09375 L 3.1875 -2.09375 L 2.65625 -3.5 C 2.5 -3.9375 2.378906 -4.289062 2.296875 -4.5625 C 2.234375 -4.238281 2.140625 -3.914062 2.015625 -3.59375 Z M 1.46875 -2.09375 "/>
</g>
<g id="glyph-0-1">
<path d="M 3.890625 -5.09375 L 4.578125 -5.09375 L 4.578125 -2.15625 C 4.578125 -1.644531 4.515625 -1.238281 4.390625 -0.9375 C 4.273438 -0.632812 4.066406 -0.382812 3.765625 -0.1875 C 3.460938 0 3.066406 0.09375 2.578125 0.09375 C 2.097656 0.09375 1.707031 0.0078125 1.40625 -0.15625 C 1.101562 -0.320312 0.882812 -0.5625 0.75 -0.875 C 0.625 -1.1875 0.5625 -1.613281 0.5625 -2.15625 L 0.5625 -5.09375 L 1.234375 -5.09375 L 1.234375 -2.15625 C 1.234375 -1.71875 1.273438 -1.390625 1.359375 -1.171875 C 1.441406 -0.960938 1.582031 -0.800781 1.78125 -0.6875 C 1.976562 -0.570312 2.222656 -0.515625 2.515625 -0.515625 C 3.015625 -0.515625 3.367188 -0.628906 3.578125 -0.859375 C 3.785156 -1.085938 3.890625 -1.519531 3.890625 -2.15625 Z M 3.890625 -5.09375 "/>
</g>
<g id="glyph-0-2">
<path d="M 0.546875 0 L 0.546875 -5.09375 L 2.46875 -5.09375 C 2.8125 -5.09375 3.070312 -5.078125 3.25 -5.046875 C 3.5 -5.003906 3.707031 -4.925781 3.875 -4.8125 C 4.050781 -4.695312 4.1875 -4.53125 4.28125 -4.3125 C 4.382812 -4.101562 4.4375 -3.875 4.4375 -3.625 C 4.4375 -3.1875 4.296875 -2.816406 4.015625 -2.515625 C 3.742188 -2.222656 3.25 -2.078125 2.53125 -2.078125 L 1.21875 -2.078125 L 1.21875 0 Z M 1.21875 -2.671875 L 2.546875 -2.671875 C 2.984375 -2.671875 3.289062 -2.75 3.46875 -2.90625 C 3.65625 -3.070312 3.75 -3.304688 3.75 -3.609375 C 3.75 -3.816406 3.691406 -3.992188 3.578125 -4.140625 C 3.472656 -4.296875 3.332031 -4.398438 3.15625 -4.453125 C 3.039062 -4.484375 2.832031 -4.5 2.53125 -4.5 L 1.21875 -4.5 Z M 1.21875 -2.671875 "/>
</g>
<g id="glyph-0-3">
<path d="M 0.5625 0 L 0.5625 -5.09375 L 2.828125 -5.09375 C 3.273438 -5.09375 3.617188 -5.046875 3.859375 -4.953125 C 4.097656 -4.867188 4.285156 -4.707031 4.421875 -4.46875 C 4.566406 -4.238281 4.640625 -3.984375 4.640625 -3.703125 C 4.640625 -3.347656 4.519531 -3.046875 4.28125 -2.796875 C 4.050781 -2.546875 3.691406 -2.390625 3.203125 -2.328125 C 3.378906 -2.234375 3.515625 -2.144531 3.609375 -2.0625 C 3.804688 -1.882812 3.992188 -1.660156 4.171875 -1.390625 L 5.0625 0 L 4.203125 0 L 3.53125 -1.0625 C 3.332031 -1.363281 3.171875 -1.59375 3.046875 -1.75 C 2.921875 -1.914062 2.804688 -2.03125 2.703125 -2.09375 C 2.597656 -2.164062 2.492188 -2.210938 2.390625 -2.234375 C 2.316406 -2.253906 2.191406 -2.265625 2.015625 -2.265625 L 1.234375 -2.265625 L 1.234375 0 Z M 1.234375 -2.84375 L 2.6875 -2.84375 C 3 -2.84375 3.238281 -2.875 3.40625 -2.9375 C 3.582031 -3.007812 3.710938 -3.113281 3.796875 -3.25 C 3.890625 -3.394531 3.9375 -3.546875 3.9375 -3.703125 C 3.9375 -3.953125 3.847656 -4.148438 3.671875 -4.296875 C 3.503906 -4.453125 3.226562 -4.53125 2.84375 -4.53125 L 1.234375 -4.53125 Z M 1.234375 -2.84375 "/>
</g>
<g id="glyph-0-4">
<path d="M 4.1875 -1.78125 L 4.859375 -1.625 C 4.722656 -1.0625 4.46875 -0.632812 4.09375 -0.34375 C 3.726562 -0.0507812 3.28125 0.09375 2.75 0.09375 C 2.195312 0.09375 1.75 -0.015625 1.40625 -0.234375 C 1.0625 -0.460938 0.800781 -0.789062 0.625 -1.21875 C 0.445312 -1.644531 0.359375 -2.101562 0.359375 -2.59375 C 0.359375 -3.125 0.457031 -3.585938 0.65625 -3.984375 C 0.863281 -4.378906 1.15625 -4.675781 1.53125 -4.875 C 1.90625 -5.082031 2.316406 -5.1875 2.765625 -5.1875 C 3.273438 -5.1875 3.703125 -5.054688 4.046875 -4.796875 C 4.398438 -4.535156 4.644531 -4.171875 4.78125 -3.703125 L 4.109375 -3.546875 C 3.992188 -3.921875 3.820312 -4.191406 3.59375 -4.359375 C 3.375 -4.523438 3.09375 -4.609375 2.75 -4.609375 C 2.351562 -4.609375 2.023438 -4.515625 1.765625 -4.328125 C 1.503906 -4.140625 1.316406 -3.882812 1.203125 -3.5625 C 1.097656 -3.25 1.046875 -2.925781 1.046875 -2.59375 C 1.046875 -2.15625 1.109375 -1.773438 1.234375 -1.453125 C 1.367188 -1.128906 1.566406 -0.882812 1.828125 -0.71875 C 2.097656 -0.5625 2.390625 -0.484375 2.703125 -0.484375 C 3.078125 -0.484375 3.394531 -0.59375 3.65625 -0.8125 C 3.914062 -1.03125 4.09375 -1.351562 4.1875 -1.78125 Z M 4.1875 -1.78125 "/>
</g>
<g id="glyph-0-5">
</g>
<g id="glyph-0-6">
<path d="M 3.765625 -3 L 0.390625 -3 L 0.390625 -3.578125 L 3.765625 -3.578125 Z M 3.765625 -1.453125 L 0.390625 -1.453125 L 0.390625 -2.03125 L 3.765625 -2.03125 Z M 3.765625 -1.453125 "/>
</g>
<g id="glyph-0-7">
<path d="M 0.296875 -2.515625 C 0.296875 -3.117188 0.359375 -3.601562 0.484375 -3.96875 C 0.609375 -4.332031 0.789062 -4.613281 1.03125 -4.8125 C 1.28125 -5.019531 1.585938 -5.125 1.953125 -5.125 C 2.234375 -5.125 2.472656 -5.066406 2.671875 -4.953125 C 2.878906 -4.847656 3.050781 -4.691406 3.1875 -4.484375 C 3.320312 -4.273438 3.425781 -4.019531 3.5 -3.71875 C 3.582031 -3.425781 3.625 -3.023438 3.625 -2.515625 C 3.625 -1.921875 3.5625 -1.4375 3.4375 -1.0625 C 3.3125 -0.695312 3.125 -0.410156 2.875 -0.203125 C 2.632812 -0.00390625 2.328125 0.09375 1.953125 0.09375 C 1.460938 0.09375 1.078125 -0.0820312 0.796875 -0.4375 C 0.460938 -0.863281 0.296875 -1.554688 0.296875 -2.515625 Z M 0.9375 -2.515625 C 0.9375 -1.679688 1.035156 -1.125 1.234375 -0.84375 C 1.429688 -0.5625 1.671875 -0.421875 1.953125 -0.421875 C 2.242188 -0.421875 2.488281 -0.5625 2.6875 -0.84375 C 2.882812 -1.125 2.984375 -1.679688 2.984375 -2.515625 C 2.984375 -3.359375 2.882812 -3.914062 2.6875 -4.1875 C 2.488281 -4.46875 2.242188 -4.609375 1.953125 -4.609375 C 1.660156 -4.609375 1.429688 -4.484375 1.265625 -4.234375 C 1.046875 -3.921875 0.9375 -3.347656 0.9375 -2.515625 Z M 0.9375 -2.515625 "/>
</g>
<g id="glyph-0-8">
<path d="M 0.640625 0 L 0.640625 -0.71875 L 1.359375 -0.71875 L 1.359375 0 Z M 0.640625 0 "/>
</g>
<g id="glyph-0-9">
<path d="M 0.390625 -1.171875 L 0.984375 -1.234375 C 1.035156 -0.953125 1.132812 -0.742188 1.28125 -0.609375 C 1.425781 -0.484375 1.613281 -0.421875 1.84375 -0.421875 C 2.03125 -0.421875 2.195312 -0.460938 2.34375 -0.546875 C 2.488281 -0.640625 2.609375 -0.757812 2.703125 -0.90625 C 2.796875 -1.0625 2.875 -1.265625 2.9375 -1.515625 C 3 -1.765625 3.03125 -2.019531 3.03125 -2.28125 C 3.03125 -2.300781 3.023438 -2.34375 3.015625 -2.40625 C 2.890625 -2.195312 2.71875 -2.03125 2.5 -1.90625 C 2.289062 -1.789062 2.0625 -1.734375 1.8125 -1.734375 C 1.382812 -1.734375 1.023438 -1.882812 0.734375 -2.1875 C 0.441406 -2.488281 0.296875 -2.894531 0.296875 -3.40625 C 0.296875 -3.914062 0.445312 -4.328125 0.75 -4.640625 C 1.050781 -4.960938 1.4375 -5.125 1.90625 -5.125 C 2.226562 -5.125 2.523438 -5.03125 2.796875 -4.84375 C 3.078125 -4.664062 3.289062 -4.410156 3.4375 -4.078125 C 3.582031 -3.753906 3.65625 -3.28125 3.65625 -2.65625 C 3.65625 -2 3.582031 -1.476562 3.4375 -1.09375 C 3.289062 -0.707031 3.078125 -0.410156 2.796875 -0.203125 C 2.523438 -0.00390625 2.203125 0.09375 1.828125 0.09375 C 1.421875 0.09375 1.09375 -0.015625 0.84375 -0.234375 C 0.59375 -0.460938 0.441406 -0.773438 0.390625 -1.171875 Z M 2.953125 -3.4375 C 2.953125 -3.789062 2.851562 -4.070312 2.65625 -4.28125 C 2.46875 -4.5 2.238281 -4.609375 1.96875 -4.609375 C 1.695312 -4.609375 1.457031 -4.492188 1.25 -4.265625 C 1.039062 -4.035156 0.9375 -3.738281 0.9375 -3.375 C 0.9375 -3.050781 1.035156 -2.785156 1.234375 -2.578125 C 1.429688 -2.378906 1.671875 -2.28125 1.953125 -2.28125 C 2.242188 -2.28125 2.484375 -2.378906 2.671875 -2.578125 C 2.859375 -2.785156 2.953125 -3.070312 2.953125 -3.4375 Z M 2.953125 -3.4375 "/>
</g>
<g id="glyph-0-10">
<path d="M 1.265625 -2.765625 C 1.003906 -2.859375 0.8125 -2.992188 0.6875 -3.171875 C 0.5625 -3.347656 0.5 -3.5625 0.5 -3.8125 C 0.5 -4.175781 0.628906 -4.484375 0.890625 -4.734375 C 1.160156 -4.992188 1.515625 -5.125 1.953125 -5.125 C 2.398438 -5.125 2.757812 -4.992188 3.03125 -4.734375 C 3.300781 -4.472656 3.4375 -4.15625 3.4375 -3.78125 C 3.4375 -3.550781 3.375 -3.347656 3.25 -3.171875 C 3.125 -2.992188 2.9375 -2.859375 2.6875 -2.765625 C 3 -2.660156 3.238281 -2.492188 3.40625 -2.265625 C 3.570312 -2.046875 3.65625 -1.773438 3.65625 -1.453125 C 3.65625 -1.015625 3.5 -0.644531 3.1875 -0.34375 C 2.875 -0.0507812 2.46875 0.09375 1.96875 0.09375 C 1.46875 0.09375 1.0625 -0.0546875 0.75 -0.359375 C 0.4375 -0.660156 0.28125 -1.03125 0.28125 -1.46875 C 0.28125 -1.800781 0.363281 -2.078125 0.53125 -2.296875 C 0.707031 -2.523438 0.953125 -2.679688 1.265625 -2.765625 Z M 1.140625 -3.828125 C 1.140625 -3.585938 1.210938 -3.390625 1.359375 -3.234375 C 1.515625 -3.078125 1.71875 -3 1.96875 -3 C 2.207031 -3 2.40625 -3.078125 2.5625 -3.234375 C 2.71875 -3.390625 2.796875 -3.578125 2.796875 -3.796875 C 2.796875 -4.023438 2.71875 -4.21875 2.5625 -4.375 C 2.40625 -4.53125 2.207031 -4.609375 1.96875 -4.609375 C 1.726562 -4.609375 1.53125 -4.53125 1.375 -4.375 C 1.21875 -4.21875 1.140625 -4.035156 1.140625 -3.828125 Z M 0.9375 -1.46875 C 0.9375 -1.289062 0.976562 -1.117188 1.0625 -0.953125 C 1.144531 -0.785156 1.269531 -0.65625 1.4375 -0.5625 C 1.601562 -0.46875 1.78125 -0.421875 1.96875 -0.421875 C 2.269531 -0.421875 2.519531 -0.515625 2.71875 -0.703125 C 2.914062 -0.898438 3.015625 -1.148438 3.015625 -1.453125 C 3.015625 -1.753906 2.910156 -2.003906 2.703125 -2.203125 C 2.503906 -2.398438 2.253906 -2.5 1.953125 -2.5 C 1.660156 -2.5 1.414062 -2.398438 1.21875 -2.203125 C 1.03125 -2.003906 0.9375 -1.757812 0.9375 -1.46875 Z M 0.9375 -1.46875 "/>
</g>
<g id="glyph-0-11">
<path d="M 0.296875 -1.34375 L 0.953125 -1.390625 C 1.003906 -1.066406 1.117188 -0.820312 1.296875 -0.65625 C 1.472656 -0.5 1.6875 -0.421875 1.9375 -0.421875 C 2.238281 -0.421875 2.492188 -0.535156 2.703125 -0.765625 C 2.910156 -0.992188 3.015625 -1.296875 3.015625 -1.671875 C 3.015625 -2.023438 2.910156 -2.304688 2.703125 -2.515625 C 2.503906 -2.722656 2.242188 -2.828125 1.921875 -2.828125 C 1.722656 -2.828125 1.539062 -2.78125 1.375 -2.6875 C 1.21875 -2.59375 1.09375 -2.472656 1 -2.328125 L 0.40625 -2.40625 L 0.90625 -5.03125 L 3.4375 -5.03125 L 3.4375 -4.4375 L 1.40625 -4.4375 L 1.125 -3.0625 C 1.4375 -3.269531 1.757812 -3.375 2.09375 -3.375 C 2.539062 -3.375 2.914062 -3.21875 3.21875 -2.90625 C 3.519531 -2.601562 3.671875 -2.210938 3.671875 -1.734375 C 3.671875 -1.265625 3.539062 -0.863281 3.28125 -0.53125 C 2.945312 -0.113281 2.5 0.09375 1.9375 0.09375 C 1.46875 0.09375 1.085938 -0.0351562 0.796875 -0.296875 C 0.503906 -0.554688 0.335938 -0.90625 0.296875 -1.34375 Z M 0.296875 -1.34375 "/>
</g>
<g id="glyph-0-12">
<path d="M 3.59375 -0.609375 L 3.59375 0 L 0.21875 0 C 0.207031 -0.144531 0.226562 -0.289062 0.28125 -0.4375 C 0.375 -0.664062 0.515625 -0.890625 0.703125 -1.109375 C 0.890625 -1.335938 1.160156 -1.597656 1.515625 -1.890625 C 2.078125 -2.335938 2.453125 -2.691406 2.640625 -2.953125 C 2.835938 -3.222656 2.9375 -3.476562 2.9375 -3.71875 C 2.9375 -3.96875 2.847656 -4.175781 2.671875 -4.34375 C 2.492188 -4.519531 2.257812 -4.609375 1.96875 -4.609375 C 1.675781 -4.609375 1.4375 -4.515625 1.25 -4.328125 C 1.070312 -4.148438 0.984375 -3.898438 0.984375 -3.578125 L 0.328125 -3.640625 C 0.378906 -4.117188 0.546875 -4.484375 0.828125 -4.734375 C 1.117188 -4.992188 1.503906 -5.125 1.984375 -5.125 C 2.472656 -5.125 2.859375 -4.988281 3.140625 -4.71875 C 3.429688 -4.445312 3.578125 -4.109375 3.578125 -3.703125 C 3.578125 -3.503906 3.535156 -3.304688 3.453125 -3.109375 C 3.367188 -2.910156 3.226562 -2.703125 3.03125 -2.484375 C 2.84375 -2.265625 2.523438 -1.960938 2.078125 -1.578125 C 1.703125 -1.265625 1.457031 -1.050781 1.34375 -0.9375 C 1.238281 -0.820312 1.148438 -0.710938 1.078125 -0.609375 Z M 3.59375 -0.609375 "/>
</g>
<g id="glyph-1-0">
<path d="M 0.328125 -2.828125 C 0.328125 -3.503906 0.394531 -4.050781 0.53125 -4.46875 C 0.675781 -4.882812 0.882812 -5.203125 1.15625 -5.421875 C 1.4375 -5.648438 1.785156 -5.765625 2.203125 -5.765625 C 2.503906 -5.765625 2.769531 -5.703125 3 -5.578125 C 3.238281 -5.453125 3.429688 -5.269531 3.578125 -5.03125 C 3.734375 -4.800781 3.851562 -4.519531 3.9375 -4.1875 C 4.019531 -3.851562 4.0625 -3.398438 4.0625 -2.828125 C 4.0625 -2.148438 3.992188 -1.601562 3.859375 -1.1875 C 3.722656 -0.78125 3.515625 -0.460938 3.234375 -0.234375 C 2.960938 -0.015625 2.617188 0.09375 2.203125 0.09375 C 1.648438 0.09375 1.21875 -0.101562 0.90625 -0.5 C 0.519531 -0.976562 0.328125 -1.753906 0.328125 -2.828125 Z M 1.0625 -2.828125 C 1.0625 -1.890625 1.171875 -1.265625 1.390625 -0.953125 C 1.609375 -0.640625 1.878906 -0.484375 2.203125 -0.484375 C 2.523438 -0.484375 2.796875 -0.640625 3.015625 -0.953125 C 3.234375 -1.265625 3.34375 -1.890625 3.34375 -2.828125 C 3.34375 -3.773438 3.234375 -4.398438 3.015625 -4.703125 C 2.796875 -5.015625 2.519531 -5.171875 2.1875 -5.171875 C 1.863281 -5.171875 1.609375 -5.035156 1.421875 -4.765625 C 1.179688 -4.421875 1.0625 -3.773438 1.0625 -2.828125 Z M 1.0625 -2.828125 "/>
</g>
<g id="glyph-1-1">
<path d="M 0.734375 0 L 0.734375 -0.796875 L 1.53125 -0.796875 L 1.53125 0 Z M 0.734375 0 "/>
</g>
<g id="glyph-1-2">
<path d="M 4.03125 -0.671875 L 4.03125 0 L 0.25 0 C 0.238281 -0.164062 0.265625 -0.328125 0.328125 -0.484375 C 0.421875 -0.742188 0.570312 -1 0.78125 -1.25 C 1 -1.5 1.304688 -1.789062 1.703125 -2.125 C 2.328125 -2.632812 2.75 -3.035156 2.96875 -3.328125 C 3.1875 -3.628906 3.296875 -3.914062 3.296875 -4.1875 C 3.296875 -4.46875 3.195312 -4.703125 3 -4.890625 C 2.800781 -5.078125 2.539062 -5.171875 2.21875 -5.171875 C 1.882812 -5.171875 1.613281 -5.066406 1.40625 -4.859375 C 1.207031 -4.660156 1.101562 -4.382812 1.09375 -4.03125 L 0.375 -4.109375 C 0.425781 -4.640625 0.613281 -5.046875 0.9375 -5.328125 C 1.257812 -5.617188 1.691406 -5.765625 2.234375 -5.765625 C 2.785156 -5.765625 3.21875 -5.609375 3.53125 -5.296875 C 3.851562 -4.992188 4.015625 -4.617188 4.015625 -4.171875 C 4.015625 -3.941406 3.96875 -3.710938 3.875 -3.484375 C 3.78125 -3.265625 3.625 -3.03125 3.40625 -2.78125 C 3.195312 -2.539062 2.835938 -2.207031 2.328125 -1.78125 C 1.910156 -1.425781 1.640625 -1.1875 1.515625 -1.0625 C 1.398438 -0.9375 1.300781 -0.804688 1.21875 -0.671875 Z M 4.03125 -0.671875 "/>
</g>
<g id="glyph-1-3">
<path d="M 0.328125 -1.5 L 1.078125 -1.5625 C 1.128906 -1.207031 1.253906 -0.9375 1.453125 -0.75 C 1.648438 -0.570312 1.890625 -0.484375 2.171875 -0.484375 C 2.515625 -0.484375 2.800781 -0.609375 3.03125 -0.859375 C 3.269531 -1.117188 3.390625 -1.457031 3.390625 -1.875 C 3.390625 -2.28125 3.273438 -2.597656 3.046875 -2.828125 C 2.816406 -3.066406 2.519531 -3.1875 2.15625 -3.1875 C 1.9375 -3.1875 1.734375 -3.132812 1.546875 -3.03125 C 1.367188 -2.925781 1.226562 -2.789062 1.125 -2.625 L 0.453125 -2.71875 L 1.015625 -5.65625 L 3.859375 -5.65625 L 3.859375 -4.984375 L 1.578125 -4.984375 L 1.265625 -3.4375 C 1.609375 -3.675781 1.96875 -3.796875 2.34375 -3.796875 C 2.84375 -3.796875 3.265625 -3.625 3.609375 -3.28125 C 3.953125 -2.9375 4.125 -2.488281 4.125 -1.9375 C 4.125 -1.425781 3.972656 -0.976562 3.671875 -0.59375 C 3.304688 -0.132812 2.804688 0.09375 2.171875 0.09375 C 1.648438 0.09375 1.222656 -0.0507812 0.890625 -0.34375 C 0.566406 -0.632812 0.378906 -1.019531 0.328125 -1.5 Z M 0.328125 -1.5 "/>
</g>
<g id="glyph-1-4">
<path d="M 0.375 -4.984375 L 0.375 -5.65625 L 4.09375 -5.65625 L 4.09375 -5.109375 C 3.726562 -4.722656 3.363281 -4.207031 3 -3.5625 C 2.644531 -2.914062 2.367188 -2.253906 2.171875 -1.578125 C 2.035156 -1.097656 1.945312 -0.570312 1.90625 0 L 1.1875 0 C 1.1875 -0.445312 1.269531 -0.988281 1.4375 -1.625 C 1.613281 -2.269531 1.859375 -2.890625 2.171875 -3.484375 C 2.492188 -4.078125 2.832031 -4.578125 3.1875 -4.984375 Z M 0.375 -4.984375 "/>
</g>
<g id="glyph-1-5">
<path d="M 2.984375 0 L 2.28125 0 L 2.28125 -4.484375 C 2.113281 -4.328125 1.890625 -4.164062 1.609375 -4 C 1.335938 -3.84375 1.09375 -3.722656 0.875 -3.640625 L 0.875 -4.328125 C 1.269531 -4.503906 1.613281 -4.722656 1.90625 -4.984375 C 2.195312 -5.253906 2.40625 -5.515625 2.53125 -5.765625 L 2.984375 -5.765625 Z M 2.984375 0 "/>
</g>
<g id="glyph-2-0">
<path d="M 0.78125 0 L 0.78125 -7.1875 L 3.96875 -7.1875 C 4.601562 -7.1875 5.085938 -7.117188 5.421875 -6.984375 C 5.753906 -6.859375 6.019531 -6.628906 6.21875 -6.296875 C 6.414062 -5.972656 6.515625 -5.613281 6.515625 -5.21875 C 6.515625 -4.707031 6.347656 -4.273438 6.015625 -3.921875 C 5.691406 -3.578125 5.1875 -3.359375 4.5 -3.265625 C 4.75 -3.140625 4.941406 -3.019531 5.078125 -2.90625 C 5.347656 -2.65625 5.609375 -2.335938 5.859375 -1.953125 L 7.109375 0 L 5.90625 0 L 4.96875 -1.5 C 4.6875 -1.925781 4.457031 -2.253906 4.28125 -2.484375 C 4.101562 -2.710938 3.941406 -2.867188 3.796875 -2.953125 C 3.648438 -3.046875 3.503906 -3.113281 3.359375 -3.15625 C 3.253906 -3.175781 3.082031 -3.1875 2.84375 -3.1875 L 1.734375 -3.1875 L 1.734375 0 Z M 1.734375 -4.015625 L 3.78125 -4.015625 C 4.207031 -4.015625 4.539062 -4.054688 4.78125 -4.140625 C 5.03125 -4.234375 5.21875 -4.378906 5.34375 -4.578125 C 5.476562 -4.773438 5.546875 -4.988281 5.546875 -5.21875 C 5.546875 -5.5625 5.421875 -5.84375 5.171875 -6.0625 C 4.921875 -6.28125 4.53125 -6.390625 4 -6.390625 L 1.734375 -6.390625 Z M 1.734375 -4.015625 "/>
</g>
<g id="glyph-2-1">
<path d="M 4.21875 -1.671875 L 5.125 -1.5625 C 4.976562 -1.03125 4.710938 -0.613281 4.328125 -0.3125 C 3.941406 -0.0195312 3.445312 0.125 2.84375 0.125 C 2.082031 0.125 1.476562 -0.109375 1.03125 -0.578125 C 0.582031 -1.046875 0.359375 -1.707031 0.359375 -2.5625 C 0.359375 -3.4375 0.582031 -4.113281 1.03125 -4.59375 C 1.488281 -5.070312 2.078125 -5.3125 2.796875 -5.3125 C 3.484375 -5.3125 4.046875 -5.078125 4.484375 -4.609375 C 4.929688 -4.140625 5.15625 -3.472656 5.15625 -2.609375 C 5.15625 -2.554688 5.15625 -2.476562 5.15625 -2.375 L 1.28125 -2.375 C 1.3125 -1.800781 1.472656 -1.363281 1.765625 -1.0625 C 2.054688 -0.757812 2.414062 -0.609375 2.84375 -0.609375 C 3.164062 -0.609375 3.441406 -0.691406 3.671875 -0.859375 C 3.898438 -1.023438 4.082031 -1.296875 4.21875 -1.671875 Z M 1.328125 -3.09375 L 4.21875 -3.09375 C 4.1875 -3.53125 4.078125 -3.859375 3.890625 -4.078125 C 3.609375 -4.421875 3.242188 -4.59375 2.796875 -4.59375 C 2.398438 -4.59375 2.0625 -4.457031 1.78125 -4.1875 C 1.507812 -3.914062 1.359375 -3.550781 1.328125 -3.09375 Z M 1.328125 -3.09375 "/>
</g>
<g id="glyph-2-2">
<path d="M 4.046875 -1.90625 L 4.921875 -1.796875 C 4.816406 -1.191406 4.570312 -0.71875 4.1875 -0.375 C 3.800781 -0.0390625 3.320312 0.125 2.75 0.125 C 2.039062 0.125 1.46875 -0.109375 1.03125 -0.578125 C 0.601562 -1.046875 0.390625 -1.710938 0.390625 -2.578125 C 0.390625 -3.140625 0.484375 -3.628906 0.671875 -4.046875 C 0.859375 -4.472656 1.140625 -4.789062 1.515625 -5 C 1.898438 -5.207031 2.316406 -5.3125 2.765625 -5.3125 C 3.328125 -5.3125 3.785156 -5.171875 4.140625 -4.890625 C 4.503906 -4.609375 4.734375 -4.203125 4.828125 -3.671875 L 3.96875 -3.546875 C 3.894531 -3.890625 3.753906 -4.148438 3.546875 -4.328125 C 3.335938 -4.503906 3.085938 -4.59375 2.796875 -4.59375 C 2.347656 -4.59375 1.984375 -4.429688 1.703125 -4.109375 C 1.429688 -3.796875 1.296875 -3.296875 1.296875 -2.609375 C 1.296875 -1.910156 1.425781 -1.398438 1.6875 -1.078125 C 1.957031 -0.765625 2.3125 -0.609375 2.75 -0.609375 C 3.09375 -0.609375 3.378906 -0.710938 3.609375 -0.921875 C 3.835938 -1.140625 3.984375 -1.46875 4.046875 -1.90625 Z M 4.046875 -1.90625 "/>
</g>
<g id="glyph-2-3">
<path d="M 4.046875 -0.640625 C 3.722656 -0.359375 3.410156 -0.160156 3.109375 -0.046875 C 2.804688 0.0664062 2.484375 0.125 2.140625 0.125 C 1.566406 0.125 1.125 -0.015625 0.8125 -0.296875 C 0.507812 -0.578125 0.359375 -0.9375 0.359375 -1.375 C 0.359375 -1.625 0.414062 -1.851562 0.53125 -2.0625 C 0.644531 -2.28125 0.796875 -2.453125 0.984375 -2.578125 C 1.171875 -2.703125 1.382812 -2.796875 1.625 -2.859375 C 1.800781 -2.910156 2.0625 -2.957031 2.40625 -3 C 3.113281 -3.082031 3.632812 -3.179688 3.96875 -3.296875 C 3.976562 -3.421875 3.984375 -3.5 3.984375 -3.53125 C 3.984375 -3.882812 3.898438 -4.140625 3.734375 -4.296875 C 3.503906 -4.492188 3.171875 -4.59375 2.734375 -4.59375 C 2.316406 -4.59375 2.007812 -4.519531 1.8125 -4.375 C 1.613281 -4.226562 1.46875 -3.96875 1.375 -3.59375 L 0.515625 -3.71875 C 0.585938 -4.082031 0.710938 -4.378906 0.890625 -4.609375 C 1.078125 -4.835938 1.335938 -5.007812 1.671875 -5.125 C 2.015625 -5.25 2.410156 -5.3125 2.859375 -5.3125 C 3.296875 -5.3125 3.65625 -5.257812 3.9375 -5.15625 C 4.21875 -5.050781 4.421875 -4.921875 4.546875 -4.765625 C 4.679688 -4.609375 4.773438 -4.410156 4.828125 -4.171875 C 4.847656 -4.015625 4.859375 -3.742188 4.859375 -3.359375 L 4.859375 -2.171875 C 4.859375 -1.359375 4.878906 -0.84375 4.921875 -0.625 C 4.960938 -0.40625 5.035156 -0.195312 5.140625 0 L 4.21875 0 C 4.132812 -0.1875 4.078125 -0.398438 4.046875 -0.640625 Z M 3.96875 -2.609375 C 3.65625 -2.484375 3.175781 -2.375 2.53125 -2.28125 C 2.175781 -2.226562 1.921875 -2.164062 1.765625 -2.09375 C 1.617188 -2.03125 1.503906 -1.9375 1.421875 -1.8125 C 1.335938 -1.6875 1.296875 -1.546875 1.296875 -1.390625 C 1.296875 -1.160156 1.382812 -0.96875 1.5625 -0.8125 C 1.738281 -0.65625 2 -0.578125 2.34375 -0.578125 C 2.6875 -0.578125 2.988281 -0.648438 3.25 -0.796875 C 3.507812 -0.941406 3.703125 -1.144531 3.828125 -1.40625 C 3.921875 -1.601562 3.96875 -1.894531 3.96875 -2.28125 Z M 3.96875 -2.609375 "/>
</g>
<g id="glyph-2-4">
<path d="M 0.640625 0 L 0.640625 -7.1875 L 1.515625 -7.1875 L 1.515625 0 Z M 0.640625 0 "/>
</g>
<g id="glyph-3-0">
<path d="M 2.484375 1.5625 L 2.484375 1.71875 C 2.085938 1.519531 1.757812 1.285156 1.5 1.015625 C 1.125 0.640625 0.832031 0.195312 0.625 -0.3125 C 0.425781 -0.832031 0.328125 -1.367188 0.328125 -1.921875 C 0.328125 -2.734375 0.523438 -3.472656 0.921875 -4.140625 C 1.328125 -4.804688 1.847656 -5.28125 2.484375 -5.5625 L 2.484375 -5.40625 C 2.160156 -5.226562 1.894531 -4.984375 1.6875 -4.671875 C 1.488281 -4.367188 1.335938 -3.976562 1.234375 -3.5 C 1.128906 -3.03125 1.078125 -2.539062 1.078125 -2.03125 C 1.078125 -1.46875 1.125 -0.957031 1.21875 -0.5 C 1.28125 -0.132812 1.359375 0.148438 1.453125 0.359375 C 1.554688 0.578125 1.6875 0.785156 1.84375 0.984375 C 2.007812 1.191406 2.222656 1.382812 2.484375 1.5625 Z M 2.484375 1.5625 "/>
</g>
<g id="glyph-3-1">
<path d="M 2.28125 -0.515625 C 1.914062 -0.234375 1.6875 -0.0703125 1.59375 -0.03125 C 1.445312 0.0390625 1.296875 0.078125 1.140625 0.078125 C 0.890625 0.078125 0.679688 -0.00390625 0.515625 -0.171875 C 0.359375 -0.347656 0.28125 -0.570312 0.28125 -0.84375 C 0.28125 -1.019531 0.320312 -1.171875 0.40625 -1.296875 C 0.507812 -1.472656 0.691406 -1.640625 0.953125 -1.796875 C 1.222656 -1.960938 1.664062 -2.15625 2.28125 -2.375 L 2.28125 -2.515625 C 2.28125 -2.867188 2.222656 -3.113281 2.109375 -3.25 C 1.992188 -3.382812 1.828125 -3.453125 1.609375 -3.453125 C 1.453125 -3.453125 1.320312 -3.40625 1.21875 -3.3125 C 1.125 -3.226562 1.078125 -3.128906 1.078125 -3.015625 L 1.078125 -2.78125 C 1.078125 -2.664062 1.046875 -2.570312 0.984375 -2.5 C 0.929688 -2.4375 0.851562 -2.40625 0.75 -2.40625 C 0.65625 -2.40625 0.578125 -2.4375 0.515625 -2.5 C 0.453125 -2.570312 0.421875 -2.671875 0.421875 -2.796875 C 0.421875 -3.015625 0.535156 -3.21875 0.765625 -3.40625 C 0.992188 -3.59375 1.316406 -3.6875 1.734375 -3.6875 C 2.046875 -3.6875 2.304688 -3.632812 2.515625 -3.53125 C 2.671875 -3.445312 2.785156 -3.320312 2.859375 -3.15625 C 2.898438 -3.039062 2.921875 -2.8125 2.921875 -2.46875 L 2.921875 -1.25 C 2.921875 -0.90625 2.925781 -0.691406 2.9375 -0.609375 C 2.957031 -0.535156 2.976562 -0.484375 3 -0.453125 C 3.03125 -0.429688 3.066406 -0.421875 3.109375 -0.421875 C 3.148438 -0.421875 3.1875 -0.429688 3.21875 -0.453125 C 3.269531 -0.484375 3.375 -0.578125 3.53125 -0.734375 L 3.53125 -0.515625 C 3.238281 -0.117188 2.960938 0.078125 2.703125 0.078125 C 2.578125 0.078125 2.472656 0.03125 2.390625 -0.0625 C 2.316406 -0.15625 2.28125 -0.304688 2.28125 -0.515625 Z M 2.28125 -0.765625 L 2.28125 -2.140625 C 1.882812 -1.984375 1.628906 -1.867188 1.515625 -1.796875 C 1.304688 -1.679688 1.15625 -1.5625 1.0625 -1.4375 C 0.976562 -1.3125 0.9375 -1.175781 0.9375 -1.03125 C 0.9375 -0.84375 0.992188 -0.6875 1.109375 -0.5625 C 1.222656 -0.4375 1.351562 -0.375 1.5 -0.375 C 1.695312 -0.375 1.957031 -0.503906 2.28125 -0.765625 Z M 2.28125 -0.765625 "/>
</g>
<g id="glyph-3-2">
<path d="M 0.1875 -5.40625 L 0.1875 -5.5625 C 0.582031 -5.363281 0.910156 -5.132812 1.171875 -4.875 C 1.546875 -4.488281 1.832031 -4.039062 2.03125 -3.53125 C 2.238281 -3.019531 2.34375 -2.484375 2.34375 -1.921875 C 2.34375 -1.117188 2.140625 -0.382812 1.734375 0.28125 C 1.335938 0.945312 0.820312 1.425781 0.1875 1.71875 L 0.1875 1.5625 C 0.5 1.382812 0.757812 1.140625 0.96875 0.828125 C 1.175781 0.523438 1.328125 0.140625 1.421875 -0.328125 C 1.523438 -0.804688 1.578125 -1.300781 1.578125 -1.8125 C 1.578125 -2.363281 1.535156 -2.867188 1.453125 -3.328125 C 1.390625 -3.691406 1.304688 -3.984375 1.203125 -4.203125 C 1.109375 -4.421875 0.976562 -4.628906 0.8125 -4.828125 C 0.65625 -5.023438 0.445312 -5.21875 0.1875 -5.40625 Z M 0.1875 -5.40625 "/>
</g>
<g id="glyph-3-3">
<path d="M 1.234375 -2.96875 C 1.578125 -3.445312 1.953125 -3.6875 2.359375 -3.6875 C 2.722656 -3.6875 3.039062 -3.53125 3.3125 -3.21875 C 3.582031 -2.90625 3.71875 -2.472656 3.71875 -1.921875 C 3.71875 -1.285156 3.507812 -0.773438 3.09375 -0.390625 C 2.726562 -0.0546875 2.320312 0.109375 1.875 0.109375 C 1.664062 0.109375 1.453125 0.0703125 1.234375 0 C 1.023438 -0.0820312 0.8125 -0.195312 0.59375 -0.34375 L 0.59375 -4.0625 C 0.59375 -4.46875 0.582031 -4.71875 0.5625 -4.8125 C 0.539062 -4.90625 0.507812 -4.96875 0.46875 -5 C 0.425781 -5.03125 0.375 -5.046875 0.3125 -5.046875 C 0.238281 -5.046875 0.144531 -5.023438 0.03125 -4.984375 L -0.015625 -5.125 L 1.0625 -5.5625 L 1.234375 -5.5625 Z M 1.234375 -2.71875 L 1.234375 -0.578125 C 1.367188 -0.441406 1.503906 -0.335938 1.640625 -0.265625 C 1.785156 -0.203125 1.929688 -0.171875 2.078125 -0.171875 C 2.316406 -0.171875 2.535156 -0.300781 2.734375 -0.5625 C 2.941406 -0.820312 3.046875 -1.203125 3.046875 -1.703125 C 3.046875 -2.160156 2.941406 -2.515625 2.734375 -2.765625 C 2.535156 -3.015625 2.304688 -3.140625 2.046875 -3.140625 C 1.910156 -3.140625 1.769531 -3.101562 1.625 -3.03125 C 1.519531 -2.976562 1.390625 -2.875 1.234375 -2.71875 Z M 1.234375 -2.71875 "/>
</g>
<g id="glyph-4-0">
<path d="M 0 -0.78125 L -7.171875 -0.78125 L -7.171875 -3.484375 C -7.171875 -3.960938 -7.144531 -4.328125 -7.09375 -4.578125 C -7.039062 -4.929688 -6.929688 -5.222656 -6.765625 -5.453125 C -6.597656 -5.691406 -6.363281 -5.882812 -6.0625 -6.03125 C -5.769531 -6.175781 -5.445312 -6.25 -5.09375 -6.25 C -4.488281 -6.25 -3.972656 -6.054688 -3.546875 -5.671875 C -3.128906 -5.285156 -2.921875 -4.582031 -2.921875 -3.5625 L -2.921875 -1.71875 L 0 -1.71875 Z M -3.765625 -1.71875 L -3.765625 -3.578125 C -3.765625 -4.191406 -3.878906 -4.628906 -4.109375 -4.890625 C -4.335938 -5.148438 -4.65625 -5.28125 -5.0625 -5.28125 C -5.363281 -5.28125 -5.617188 -5.203125 -5.828125 -5.046875 C -6.046875 -4.890625 -6.191406 -4.691406 -6.265625 -4.453125 C -6.304688 -4.285156 -6.328125 -3.988281 -6.328125 -3.5625 L -6.328125 -1.71875 Z M -3.765625 -1.71875 "/>
</g>
<g id="glyph-4-1">
<path d="M 0 -0.65625 L -5.1875 -0.65625 L -5.1875 -1.4375 L -4.40625 -1.4375 C -4.769531 -1.644531 -5.007812 -1.832031 -5.125 -2 C -5.25 -2.175781 -5.3125 -2.367188 -5.3125 -2.578125 C -5.3125 -2.867188 -5.21875 -3.171875 -5.03125 -3.484375 L -4.203125 -3.171875 C -4.335938 -2.953125 -4.40625 -2.738281 -4.40625 -2.53125 C -4.40625 -2.332031 -4.34375 -2.15625 -4.21875 -2 C -4.101562 -1.851562 -3.945312 -1.75 -3.75 -1.6875 C -3.4375 -1.582031 -3.09375 -1.53125 -2.71875 -1.53125 L 0 -1.53125 Z M 0 -0.65625 "/>
</g>
<g id="glyph-4-2">
<path d="M -1.671875 -4.21875 L -1.5625 -5.140625 C -1.03125 -4.992188 -0.613281 -4.722656 -0.3125 -4.328125 C -0.0195312 -3.941406 0.125 -3.445312 0.125 -2.84375 C 0.125 -2.082031 -0.109375 -1.476562 -0.578125 -1.03125 C -1.046875 -0.59375 -1.703125 -0.375 -2.546875 -0.375 C -3.421875 -0.375 -4.097656 -0.597656 -4.578125 -1.046875 C -5.066406 -1.492188 -5.3125 -2.078125 -5.3125 -2.796875 C -5.3125 -3.492188 -5.070312 -4.0625 -4.59375 -4.5 C -4.125 -4.9375 -3.460938 -5.15625 -2.609375 -5.15625 C -2.554688 -5.15625 -2.476562 -5.15625 -2.375 -5.15625 L -2.375 -1.28125 C -1.800781 -1.3125 -1.363281 -1.472656 -1.0625 -1.765625 C -0.757812 -2.054688 -0.609375 -2.414062 -0.609375 -2.84375 C -0.609375 -3.164062 -0.691406 -3.441406 -0.859375 -3.671875 C -1.023438 -3.898438 -1.296875 -4.082031 -1.671875 -4.21875 Z M -3.09375 -1.328125 L -3.09375 -4.234375 C -3.53125 -4.191406 -3.859375 -4.082031 -4.078125 -3.90625 C -4.421875 -3.625 -4.59375 -3.257812 -4.59375 -2.8125 C -4.59375 -2.40625 -4.457031 -2.0625 -4.1875 -1.78125 C -3.914062 -1.507812 -3.550781 -1.359375 -3.09375 -1.328125 Z M -3.09375 -1.328125 "/>
</g>
<g id="glyph-4-3">
<path d="M -1.90625 -4.0625 L -1.796875 -4.921875 C -1.191406 -4.828125 -0.71875 -4.582031 -0.375 -4.1875 C -0.0390625 -3.800781 0.125 -3.320312 0.125 -2.75 C 0.125 -2.039062 -0.109375 -1.46875 -0.578125 -1.03125 C -1.046875 -0.601562 -1.710938 -0.390625 -2.578125 -0.390625 C -3.140625 -0.390625 -3.628906 -0.484375 -4.046875 -0.671875 C -4.472656 -0.859375 -4.789062 -1.140625 -5 -1.515625 C -5.207031 -1.898438 -5.3125 -2.316406 -5.3125 -2.765625 C -5.3125 -3.328125 -5.164062 -3.785156 -4.875 -4.140625 C -4.59375 -4.503906 -4.191406 -4.738281 -3.671875 -4.84375 L -3.53125 -3.984375 C -3.882812 -3.898438 -4.148438 -3.753906 -4.328125 -3.546875 C -4.503906 -3.335938 -4.59375 -3.085938 -4.59375 -2.796875 C -4.59375 -2.347656 -4.429688 -1.984375 -4.109375 -1.703125 C -3.796875 -1.429688 -3.296875 -1.296875 -2.609375 -1.296875 C -1.910156 -1.296875 -1.398438 -1.425781 -1.078125 -1.6875 C -0.765625 -1.957031 -0.609375 -2.3125 -0.609375 -2.75 C -0.609375 -3.09375 -0.710938 -3.378906 -0.921875 -3.609375 C -1.128906 -3.847656 -1.457031 -4 -1.90625 -4.0625 Z M -1.90625 -4.0625 "/>
</g>
<g id="glyph-4-4">
<path d="M -6.15625 -0.671875 L -7.171875 -0.671875 L -7.171875 -1.546875 L -6.15625 -1.546875 Z M 0 -0.671875 L -5.1875 -0.671875 L -5.1875 -1.546875 L 0 -1.546875 Z M 0 -0.671875 "/>
</g>
<g id="glyph-4-5">
<path d="M -1.546875 -0.3125 L -1.6875 -1.1875 C -1.332031 -1.226562 -1.0625 -1.359375 -0.875 -1.578125 C -0.695312 -1.804688 -0.609375 -2.125 -0.609375 -2.53125 C -0.609375 -2.9375 -0.6875 -3.234375 -0.84375 -3.421875 C -1.007812 -3.617188 -1.207031 -3.71875 -1.4375 -3.71875 C -1.632812 -3.71875 -1.789062 -3.632812 -1.90625 -3.46875 C -1.976562 -3.34375 -2.078125 -3.039062 -2.203125 -2.5625 C -2.359375 -1.914062 -2.492188 -1.46875 -2.609375 -1.21875 C -2.734375 -0.96875 -2.898438 -0.773438 -3.109375 -0.640625 C -3.328125 -0.515625 -3.5625 -0.453125 -3.8125 -0.453125 C -4.039062 -0.453125 -4.253906 -0.503906 -4.453125 -0.609375 C -4.648438 -0.722656 -4.816406 -0.867188 -4.953125 -1.046875 C -5.046875 -1.179688 -5.128906 -1.367188 -5.203125 -1.609375 C -5.273438 -1.847656 -5.3125 -2.101562 -5.3125 -2.375 C -5.3125 -2.78125 -5.25 -3.132812 -5.125 -3.4375 C -5.007812 -3.75 -4.851562 -3.976562 -4.65625 -4.125 C -4.457031 -4.269531 -4.191406 -4.375 -3.859375 -4.4375 L -3.734375 -3.578125 C -4.003906 -3.535156 -4.210938 -3.421875 -4.359375 -3.234375 C -4.515625 -3.046875 -4.59375 -2.78125 -4.59375 -2.4375 C -4.59375 -2.03125 -4.523438 -1.738281 -4.390625 -1.5625 C -4.253906 -1.394531 -4.097656 -1.3125 -3.921875 -1.3125 C -3.804688 -1.3125 -3.703125 -1.347656 -3.609375 -1.421875 C -3.515625 -1.484375 -3.4375 -1.59375 -3.375 -1.75 C -3.34375 -1.84375 -3.269531 -2.101562 -3.15625 -2.53125 C -2.988281 -3.15625 -2.847656 -3.585938 -2.734375 -3.828125 C -2.628906 -4.078125 -2.472656 -4.269531 -2.265625 -4.40625 C -2.066406 -4.550781 -1.820312 -4.625 -1.53125 -4.625 C -1.226562 -4.625 -0.945312 -4.535156 -0.6875 -4.359375 C -0.4375 -4.191406 -0.238281 -3.945312 -0.09375 -3.625 C 0.0507812 -3.300781 0.125 -2.9375 0.125 -2.53125 C 0.125 -1.851562 -0.015625 -1.335938 -0.296875 -0.984375 C -0.578125 -0.628906 -0.992188 -0.40625 -1.546875 -0.3125 Z M -1.546875 -0.3125 "/>
</g>
<g id="glyph-4-6">
<path d="M -2.59375 -0.328125 C -3.5625 -0.328125 -4.273438 -0.597656 -4.734375 -1.140625 C -5.117188 -1.585938 -5.3125 -2.128906 -5.3125 -2.765625 C -5.3125 -3.484375 -5.078125 -4.066406 -4.609375 -4.515625 C -4.140625 -4.972656 -3.492188 -5.203125 -2.671875 -5.203125 C -2.003906 -5.203125 -1.476562 -5.101562 -1.09375 -4.90625 C -0.707031 -4.707031 -0.40625 -4.414062 -0.1875 -4.03125 C 0.0195312 -3.644531 0.125 -3.222656 0.125 -2.765625 C 0.125 -2.046875 -0.109375 -1.457031 -0.578125 -1 C -1.046875 -0.550781 -1.71875 -0.328125 -2.59375 -0.328125 Z M -2.59375 -1.234375 C -1.925781 -1.234375 -1.425781 -1.378906 -1.09375 -1.671875 C -0.769531 -1.960938 -0.609375 -2.328125 -0.609375 -2.765625 C -0.609375 -3.203125 -0.773438 -3.566406 -1.109375 -3.859375 C -1.441406 -4.148438 -1.945312 -4.296875 -2.625 -4.296875 C -3.269531 -4.296875 -3.753906 -4.148438 -4.078125 -3.859375 C -4.410156 -3.566406 -4.578125 -3.203125 -4.578125 -2.765625 C -4.578125 -2.328125 -4.410156 -1.960938 -4.078125 -1.671875 C -3.753906 -1.378906 -3.257812 -1.234375 -2.59375 -1.234375 Z M -2.59375 -1.234375 "/>
</g>
<g id="glyph-4-7">
<path d="M 0 -0.65625 L -5.1875 -0.65625 L -5.1875 -1.453125 L -4.453125 -1.453125 C -5.023438 -1.835938 -5.3125 -2.390625 -5.3125 -3.109375 C -5.3125 -3.421875 -5.253906 -3.707031 -5.140625 -3.96875 C -5.023438 -4.238281 -4.875 -4.4375 -4.6875 -4.5625 C -4.507812 -4.695312 -4.296875 -4.789062 -4.046875 -4.84375 C -3.890625 -4.875 -3.601562 -4.890625 -3.1875 -4.890625 L 0 -4.890625 L 0 -4 L -3.15625 -4 C -3.519531 -4 -3.789062 -3.960938 -3.96875 -3.890625 C -4.144531 -3.828125 -4.285156 -3.707031 -4.390625 -3.53125 C -4.492188 -3.363281 -4.546875 -3.160156 -4.546875 -2.921875 C -4.546875 -2.546875 -4.425781 -2.222656 -4.1875 -1.953125 C -3.945312 -1.679688 -3.5 -1.546875 -2.84375 -1.546875 L 0 -1.546875 Z M 0 -0.65625 "/>
</g>
</g>
</defs>
<path fill="none" stroke-width="1.069528" stroke-linecap="butt" stroke-linejoin="round" stroke="rgb(85.096741%, 85.096741%, 85.096741%)" stroke-opacity="1" stroke-miterlimit="10" d="M 148.158093 86.28125 L 236.401928 86.28125 " transform="matrix(0.998432, 0, 0, 1, 0, 0)"/>
<path fill="none" stroke-width="1.069528" stroke-linecap="butt" stroke-linejoin="round" stroke="rgb(85.096741%, 85.096741%, 85.096741%)" stroke-opacity="1" stroke-miterlimit="10" d="M 148.158093 65.464844 L 236.401928 65.464844 " transform="matrix(0.998432, 0, 0, 1, 0, 0)"/>
<path fill="none" stroke-width="1.069528" stroke-linecap="butt" stroke-linejoin="round" stroke="rgb(85.096741%, 85.096741%, 85.096741%)" stroke-opacity="1" stroke-miterlimit="10" d="M 148.158093 44.65625 L 236.401928 44.65625 " transform="matrix(0.998432, 0, 0, 1, 0, 0)"/>
<path fill="none" stroke-width="1.069528" stroke-linecap="butt" stroke-linejoin="round" stroke="rgb(85.096741%, 85.096741%, 85.096741%)" stroke-opacity="1" stroke-miterlimit="10" d="M 148.158093 23.84375 L 236.401928 23.84375 " transform="matrix(0.998432, 0, 0, 1, 0, 0)"/>
<path fill="none" stroke-width="1.069528" stroke-linecap="butt" stroke-linejoin="round" stroke="rgb(85.096741%, 85.096741%, 85.096741%)" stroke-opacity="1" stroke-miterlimit="10" d="M 148.158093 3.03125 L 236.401928 3.03125 " transform="matrix(0.998432, 0, 0, 1, 0, 0)"/>
<path fill="none" stroke-width="1.069528" stroke-linecap="butt" stroke-linejoin="round" stroke="rgb(85.096741%, 85.096741%, 85.096741%)" stroke-opacity="1" stroke-miterlimit="10" d="M 150.654195 88.78125 L 150.654195 0.535156 " transform="matrix(0.998432, 0, 0, 1, 0, 0)"/>
<path fill="none" stroke-width="1.069528" stroke-linecap="butt" stroke-linejoin="round" stroke="rgb(85.096741%, 85.096741%, 85.096741%)" stroke-opacity="1" stroke-miterlimit="10" d="M 171.464168 88.78125 L 171.464168 0.535156 " transform="matrix(0.998432, 0, 0, 1, 0, 0)"/>
<path fill="none" stroke-width="1.069528" stroke-linecap="butt" stroke-linejoin="round" stroke="rgb(85.096741%, 85.096741%, 85.096741%)" stroke-opacity="1" stroke-miterlimit="10" d="M 192.281967 88.78125 L 192.281967 0.535156 " transform="matrix(0.998432, 0, 0, 1, 0, 0)"/>
<path fill="none" stroke-width="1.069528" stroke-linecap="butt" stroke-linejoin="round" stroke="rgb(85.096741%, 85.096741%, 85.096741%)" stroke-opacity="1" stroke-miterlimit="10" d="M 213.091941 88.78125 L 213.091941 0.535156 " transform="matrix(0.998432, 0, 0, 1, 0, 0)"/>
<path fill="none" stroke-width="1.069528" stroke-linecap="butt" stroke-linejoin="round" stroke="rgb(85.096741%, 85.096741%, 85.096741%)" stroke-opacity="1" stroke-miterlimit="10" d="M 233.901914 88.78125 L 233.901914 0.535156 " transform="matrix(0.998432, 0, 0, 1, 0, 0)"/>
<path fill="none" stroke-width="0.972297" stroke-linecap="butt" stroke-linejoin="round" stroke="rgb(59.999084%, 59.999084%, 59.999084%)" stroke-opacity="1" stroke-dasharray="3.889186 3.889186" stroke-miterlimit="10" d="M 148.158093 61.304688 L 236.401928 61.304688 " transform="matrix(0.998432, 0, 0, 1, 0, 0)"/>
<path fill="none" stroke-width="2.566866" stroke-linecap="butt" stroke-linejoin="round" stroke="rgb(6.274414%, 30.587769%, 54.508972%)" stroke-opacity="1" stroke-miterlimit="10" d="M 233.901914 61.304688 L 233.901914 14.925781 L 231.131946 15.273438 L 231.131946 5.804688 L 228.354153 5.902344 L 225.580272 6.003906 L 222.802479 6.113281 L 220.028599 6.230469 L 217.254718 6.359375 L 217.254718 3.03125 L 150.654195 3.03125 " transform="matrix(0.998432, 0, 0, 1, 0, 0)"/>
<g fill="rgb(6.274414%, 30.587769%, 54.508972%)" fill-opacity="1">
<use xlink:href="#glyph-0-0" x="166.556416" y="76.845108"/>
<use xlink:href="#glyph-0-1" x="171.304735" y="76.845108"/>
<use xlink:href="#glyph-0-2" x="176.44585" y="76.845108"/>
<use xlink:href="#glyph-0-3" x="181.194169" y="76.845108"/>
<use xlink:href="#glyph-0-4" x="186.335284" y="76.845108"/>
<use xlink:href="#glyph-0-5" x="191.476399" y="76.845108"/>
<use xlink:href="#glyph-0-6" x="193.454286" y="76.845108"/>
<use xlink:href="#glyph-0-5" x="197.611672" y="76.845108"/>
<use xlink:href="#glyph-0-7" x="199.589559" y="76.845108"/>
<use xlink:href="#glyph-0-8" x="203.548808" y="76.845108"/>
<use xlink:href="#glyph-0-9" x="205.526695" y="76.845108"/>
<use xlink:href="#glyph-0-10" x="209.485945" y="76.845108"/>
<use xlink:href="#glyph-0-9" x="213.445194" y="76.845108"/>
</g>
<path fill="none" stroke-width="1.069528" stroke-linecap="round" stroke-linejoin="round" stroke="rgb(0%, 0%, 0%)" stroke-opacity="1" stroke-miterlimit="10" d="M 148.158093 0.535156 L 236.401928 0.535156 L 236.401928 88.78125 L 148.158093 88.78125 Z M 148.158093 0.535156 " transform="matrix(0.998432, 0, 0, 1, 0, 0)"/>
<path fill="none" stroke-width="1.069528" stroke-linecap="butt" stroke-linejoin="round" stroke="rgb(0%, 0%, 0%)" stroke-opacity="1" stroke-miterlimit="10" d="M 150.654195 93.039062 L 150.654195 88.78125 " transform="matrix(0.998432, 0, 0, 1, 0, 0)"/>
<path fill="none" stroke-width="1.069528" stroke-linecap="butt" stroke-linejoin="round" stroke="rgb(0%, 0%, 0%)" stroke-opacity="1" stroke-miterlimit="10" d="M 171.464168 93.039062 L 171.464168 88.78125 " transform="matrix(0.998432, 0, 0, 1, 0, 0)"/>
<path fill="none" stroke-width="1.069528" stroke-linecap="butt" stroke-linejoin="round" stroke="rgb(0%, 0%, 0%)" stroke-opacity="1" stroke-miterlimit="10" d="M 192.281967 93.039062 L 192.281967 88.78125 " transform="matrix(0.998432, 0, 0, 1, 0, 0)"/>
<path fill="none" stroke-width="1.069528" stroke-linecap="butt" stroke-linejoin="round" stroke="rgb(0%, 0%, 0%)" stroke-opacity="1" stroke-miterlimit="10" d="M 213.091941 93.039062 L 213.091941 88.78125 " transform="matrix(0.998432, 0, 0, 1, 0, 0)"/>
<path fill="none" stroke-width="1.069528" stroke-linecap="butt" stroke-linejoin="round" stroke="rgb(0%, 0%, 0%)" stroke-opacity="1" stroke-miterlimit="10" d="M 233.901914 93.039062 L 233.901914 88.78125 " transform="matrix(0.998432, 0, 0, 1, 0, 0)"/>
<g fill="rgb(30.195618%, 30.195618%, 30.195618%)" fill-opacity="1">
<use xlink:href="#glyph-1-0" x="142.626723" y="104.277662"/>
<use xlink:href="#glyph-1-1" x="147.079577" y="104.277662"/>
<use xlink:href="#glyph-1-0" x="149.304049" y="104.277662"/>
<use xlink:href="#glyph-1-0" x="153.756903" y="104.277662"/>
</g>
<g fill="rgb(30.195618%, 30.195618%, 30.195618%)" fill-opacity="1">
<use xlink:href="#glyph-1-0" x="163.405998" y="104.277662"/>
<use xlink:href="#glyph-1-1" x="167.858852" y="104.277662"/>
<use xlink:href="#glyph-1-2" x="170.083324" y="104.277662"/>
<use xlink:href="#glyph-1-3" x="174.536178" y="104.277662"/>
</g>
<g fill="rgb(30.195618%, 30.195618%, 30.195618%)" fill-opacity="1">
<use xlink:href="#glyph-1-0" x="184.185274" y="104.277662"/>
<use xlink:href="#glyph-1-1" x="188.638127" y="104.277662"/>
<use xlink:href="#glyph-1-3" x="190.8626" y="104.277662"/>
<use xlink:href="#glyph-1-0" x="195.315453" y="104.277662"/>
</g>
<g fill="rgb(30.195618%, 30.195618%, 30.195618%)" fill-opacity="1">
<use xlink:href="#glyph-1-0" x="204.964549" y="104.277662"/>
<use xlink:href="#glyph-1-1" x="209.417403" y="104.277662"/>
<use xlink:href="#glyph-1-4" x="211.641875" y="104.277662"/>
<use xlink:href="#glyph-1-3" x="216.094729" y="104.277662"/>
</g>
<g fill="rgb(30.195618%, 30.195618%, 30.195618%)" fill-opacity="1">
<use xlink:href="#glyph-1-5" x="225.743824" y="104.277662"/>
<use xlink:href="#glyph-1-1" x="230.196678" y="104.277662"/>
<use xlink:href="#glyph-1-0" x="232.42115" y="104.277662"/>
<use xlink:href="#glyph-1-0" x="236.874004" y="104.277662"/>
</g>
<g fill="rgb(0%, 0%, 0%)" fill-opacity="1">
<use xlink:href="#glyph-2-0" x="178.07363" y="117.641533"/>
<use xlink:href="#glyph-2-1" x="185.30121" y="117.641533"/>
<use xlink:href="#glyph-2-2" x="190.867277" y="117.641533"/>
<use xlink:href="#glyph-2-3" x="195.871362" y="117.641533"/>
<use xlink:href="#glyph-2-4" x="201.437429" y="117.641533"/>
<use xlink:href="#glyph-2-4" x="203.660924" y="117.641533"/>
</g>
<path fill="none" stroke-width="1.069528" stroke-linecap="butt" stroke-linejoin="round" stroke="rgb(85.096741%, 85.096741%, 85.096741%)" stroke-opacity="1" stroke-miterlimit="10" d="M 41.209147 86.28125 L 129.452982 86.28125 " transform="matrix(0.998432, 0, 0, 1, 0, 0)"/>
<path fill="none" stroke-width="1.069528" stroke-linecap="butt" stroke-linejoin="round" stroke="rgb(85.096741%, 85.096741%, 85.096741%)" stroke-opacity="1" stroke-miterlimit="10" d="M 41.209147 65.464844 L 129.452982 65.464844 " transform="matrix(0.998432, 0, 0, 1, 0, 0)"/>
<path fill="none" stroke-width="1.069528" stroke-linecap="butt" stroke-linejoin="round" stroke="rgb(85.096741%, 85.096741%, 85.096741%)" stroke-opacity="1" stroke-miterlimit="10" d="M 41.209147 44.65625 L 129.452982 44.65625 " transform="matrix(0.998432, 0, 0, 1, 0, 0)"/>
<path fill="none" stroke-width="1.069528" stroke-linecap="butt" stroke-linejoin="round" stroke="rgb(85.096741%, 85.096741%, 85.096741%)" stroke-opacity="1" stroke-miterlimit="10" d="M 41.209147 23.84375 L 129.452982 23.84375 " transform="matrix(0.998432, 0, 0, 1, 0, 0)"/>
<path fill="none" stroke-width="1.069528" stroke-linecap="butt" stroke-linejoin="round" stroke="rgb(85.096741%, 85.096741%, 85.096741%)" stroke-opacity="1" stroke-miterlimit="10" d="M 41.209147 3.03125 L 129.452982 3.03125 " transform="matrix(0.998432, 0, 0, 1, 0, 0)"/>
<path fill="none" stroke-width="1.069528" stroke-linecap="butt" stroke-linejoin="round" stroke="rgb(85.096741%, 85.096741%, 85.096741%)" stroke-opacity="1" stroke-miterlimit="10" d="M 43.705249 88.78125 L 43.705249 0.535156 " transform="matrix(0.998432, 0, 0, 1, 0, 0)"/>
<path fill="none" stroke-width="1.069528" stroke-linecap="butt" stroke-linejoin="round" stroke="rgb(85.096741%, 85.096741%, 85.096741%)" stroke-opacity="1" stroke-miterlimit="10" d="M 64.519135 88.78125 L 64.519135 0.535156 " transform="matrix(0.998432, 0, 0, 1, 0, 0)"/>
<path fill="none" stroke-width="1.069528" stroke-linecap="butt" stroke-linejoin="round" stroke="rgb(85.096741%, 85.096741%, 85.096741%)" stroke-opacity="1" stroke-miterlimit="10" d="M 85.333021 88.78125 L 85.333021 0.535156 " transform="matrix(0.998432, 0, 0, 1, 0, 0)"/>
<path fill="none" stroke-width="1.069528" stroke-linecap="butt" stroke-linejoin="round" stroke="rgb(85.096741%, 85.096741%, 85.096741%)" stroke-opacity="1" stroke-miterlimit="10" d="M 106.142995 88.78125 L 106.142995 0.535156 " transform="matrix(0.998432, 0, 0, 1, 0, 0)"/>
<path fill="none" stroke-width="1.069528" stroke-linecap="butt" stroke-linejoin="round" stroke="rgb(85.096741%, 85.096741%, 85.096741%)" stroke-opacity="1" stroke-miterlimit="10" d="M 126.956881 88.78125 L 126.956881 0.535156 " transform="matrix(0.998432, 0, 0, 1, 0, 0)"/>
<path fill="none" stroke-width="0.972297" stroke-linecap="butt" stroke-linejoin="round" stroke="rgb(59.999084%, 59.999084%, 59.999084%)" stroke-opacity="1" stroke-dasharray="3.889186 3.889186" stroke-miterlimit="10" d="M 41.209147 61.304688 L 129.452982 61.304688 " transform="matrix(0.998432, 0, 0, 1, 0, 0)"/>
<path fill="none" stroke-width="2.566866" stroke-linecap="butt" stroke-linejoin="round" stroke="rgb(69.802856%, 13.33313%, 13.33313%)" stroke-opacity="1" stroke-miterlimit="10" d="M 126.956881 61.304688 L 126.956881 10.597656 L 124.183 10.835938 L 124.183 8.402344 L 121.405207 8.582031 L 118.631326 8.773438 L 115.853533 8.976562 L 113.083565 9.199219 L 110.305772 9.433594 L 107.527979 9.6875 L 104.758011 9.96875 L 104.758011 6.648438 L 101.980217 6.816406 L 99.206337 6.996094 L 96.432456 7.195312 L 93.658575 7.414062 L 90.880782 7.65625 L 88.102989 7.925781 L 85.333021 8.230469 L 82.555228 8.582031 L 79.781347 8.976562 L 77.007466 9.433594 L 74.229673 9.96875 L 71.455793 10.597656 L 68.678 11.355469 L 68.678 3.03125 L 43.705249 3.03125 " transform="matrix(0.998432, 0, 0, 1, 0, 0)"/>
<g fill="rgb(69.802856%, 13.33313%, 13.33313%)" fill-opacity="1">
<use xlink:href="#glyph-0-0" x="59.775588" y="76.845108"/>
<use xlink:href="#glyph-0-1" x="64.523907" y="76.845108"/>
<use xlink:href="#glyph-0-2" x="69.665022" y="76.845108"/>
<use xlink:href="#glyph-0-3" x="74.413341" y="76.845108"/>
<use xlink:href="#glyph-0-4" x="79.554456" y="76.845108"/>
<use xlink:href="#glyph-0-5" x="84.695571" y="76.845108"/>
<use xlink:href="#glyph-0-6" x="86.673458" y="76.845108"/>
<use xlink:href="#glyph-0-5" x="90.830844" y="76.845108"/>
<use xlink:href="#glyph-0-7" x="92.808731" y="76.845108"/>
<use xlink:href="#glyph-0-8" x="96.76798" y="76.845108"/>
<use xlink:href="#glyph-0-9" x="98.745867" y="76.845108"/>
<use xlink:href="#glyph-0-11" x="102.705117" y="76.845108"/>
<use xlink:href="#glyph-0-12" x="106.664366" y="76.845108"/>
</g>
<path fill="none" stroke-width="1.069528" stroke-linecap="round" stroke-linejoin="round" stroke="rgb(0%, 0%, 0%)" stroke-opacity="1" stroke-miterlimit="10" d="M 41.209147 0.535156 L 129.452982 0.535156 L 129.452982 88.78125 L 41.209147 88.78125 Z M 41.209147 0.535156 " transform="matrix(0.998432, 0, 0, 1, 0, 0)"/>
<g fill="rgb(30.195618%, 30.195618%, 30.195618%)" fill-opacity="1">
<use xlink:href="#glyph-1-0" x="16.81865" y="89.652969"/>
<use xlink:href="#glyph-1-1" x="21.271504" y="89.652969"/>
<use xlink:href="#glyph-1-0" x="23.495976" y="89.652969"/>
<use xlink:href="#glyph-1-0" x="27.94883" y="89.652969"/>
</g>
<g fill="rgb(30.195618%, 30.195618%, 30.195618%)" fill-opacity="1">
<use xlink:href="#glyph-1-0" x="16.81865" y="68.837751"/>
<use xlink:href="#glyph-1-1" x="21.271504" y="68.837751"/>
<use xlink:href="#glyph-1-2" x="23.495976" y="68.837751"/>
<use xlink:href="#glyph-1-3" x="27.94883" y="68.837751"/>
</g>
<g fill="rgb(30.195618%, 30.195618%, 30.195618%)" fill-opacity="1">
<use xlink:href="#glyph-1-0" x="16.81865" y="48.026447"/>
<use xlink:href="#glyph-1-1" x="21.271504" y="48.026447"/>
<use xlink:href="#glyph-1-3" x="23.495976" y="48.026447"/>
<use xlink:href="#glyph-1-0" x="27.94883" y="48.026447"/>
</g>
<g fill="rgb(30.195618%, 30.195618%, 30.195618%)" fill-opacity="1">
<use xlink:href="#glyph-1-0" x="16.81865" y="27.215143"/>
<use xlink:href="#glyph-1-1" x="21.271504" y="27.215143"/>
<use xlink:href="#glyph-1-4" x="23.495976" y="27.215143"/>
<use xlink:href="#glyph-1-3" x="27.94883" y="27.215143"/>
</g>
<g fill="rgb(30.195618%, 30.195618%, 30.195618%)" fill-opacity="1">
<use xlink:href="#glyph-1-5" x="16.81865" y="6.403839"/>
<use xlink:href="#glyph-1-1" x="21.271504" y="6.403839"/>
<use xlink:href="#glyph-1-0" x="23.495976" y="6.403839"/>
<use xlink:href="#glyph-1-0" x="27.94883" y="6.403839"/>
</g>
<path fill="none" stroke-width="1.069528" stroke-linecap="butt" stroke-linejoin="round" stroke="rgb(0%, 0%, 0%)" stroke-opacity="1" stroke-miterlimit="10" d="M 36.94856 86.28125 L 41.209147 86.28125 " transform="matrix(0.998432, 0, 0, 1, 0, 0)"/>
<path fill="none" stroke-width="1.069528" stroke-linecap="butt" stroke-linejoin="round" stroke="rgb(0%, 0%, 0%)" stroke-opacity="1" stroke-miterlimit="10" d="M 36.94856 65.464844 L 41.209147 65.464844 " transform="matrix(0.998432, 0, 0, 1, 0, 0)"/>
<path fill="none" stroke-width="1.069528" stroke-linecap="butt" stroke-linejoin="round" stroke="rgb(0%, 0%, 0%)" stroke-opacity="1" stroke-miterlimit="10" d="M 36.94856 44.65625 L 41.209147 44.65625 " transform="matrix(0.998432, 0, 0, 1, 0, 0)"/>
<path fill="none" stroke-width="1.069528" stroke-linecap="butt" stroke-linejoin="round" stroke="rgb(0%, 0%, 0%)" stroke-opacity="1" stroke-miterlimit="10" d="M 36.94856 23.84375 L 41.209147 23.84375 " transform="matrix(0.998432, 0, 0, 1, 0, 0)"/>
<path fill="none" stroke-width="1.069528" stroke-linecap="butt" stroke-linejoin="round" stroke="rgb(0%, 0%, 0%)" stroke-opacity="1" stroke-miterlimit="10" d="M 36.94856 3.03125 L 41.209147 3.03125 " transform="matrix(0.998432, 0, 0, 1, 0, 0)"/>
<path fill="none" stroke-width="1.069528" stroke-linecap="butt" stroke-linejoin="round" stroke="rgb(0%, 0%, 0%)" stroke-opacity="1" stroke-miterlimit="10" d="M 43.705249 93.039062 L 43.705249 88.78125 " transform="matrix(0.998432, 0, 0, 1, 0, 0)"/>
<path fill="none" stroke-width="1.069528" stroke-linecap="butt" stroke-linejoin="round" stroke="rgb(0%, 0%, 0%)" stroke-opacity="1" stroke-miterlimit="10" d="M 64.519135 93.039062 L 64.519135 88.78125 " transform="matrix(0.998432, 0, 0, 1, 0, 0)"/>
<path fill="none" stroke-width="1.069528" stroke-linecap="butt" stroke-linejoin="round" stroke="rgb(0%, 0%, 0%)" stroke-opacity="1" stroke-miterlimit="10" d="M 85.333021 93.039062 L 85.333021 88.78125 " transform="matrix(0.998432, 0, 0, 1, 0, 0)"/>
<path fill="none" stroke-width="1.069528" stroke-linecap="butt" stroke-linejoin="round" stroke="rgb(0%, 0%, 0%)" stroke-opacity="1" stroke-miterlimit="10" d="M 106.142995 93.039062 L 106.142995 88.78125 " transform="matrix(0.998432, 0, 0, 1, 0, 0)"/>
<path fill="none" stroke-width="1.069528" stroke-linecap="butt" stroke-linejoin="round" stroke="rgb(0%, 0%, 0%)" stroke-opacity="1" stroke-miterlimit="10" d="M 126.956881 93.039062 L 126.956881 88.78125 " transform="matrix(0.998432, 0, 0, 1, 0, 0)"/>
<g fill="rgb(30.195618%, 30.195618%, 30.195618%)" fill-opacity="1">
<use xlink:href="#glyph-1-0" x="35.845903" y="104.277662"/>
<use xlink:href="#glyph-1-1" x="40.298757" y="104.277662"/>
<use xlink:href="#glyph-1-0" x="42.523229" y="104.277662"/>
<use xlink:href="#glyph-1-0" x="46.976083" y="104.277662"/>
</g>
<g fill="rgb(30.195618%, 30.195618%, 30.195618%)" fill-opacity="1">
<use xlink:href="#glyph-1-0" x="56.625178" y="104.277662"/>
<use xlink:href="#glyph-1-1" x="61.078032" y="104.277662"/>
<use xlink:href="#glyph-1-2" x="63.302504" y="104.277662"/>
<use xlink:href="#glyph-1-3" x="67.755358" y="104.277662"/>
</g>
<g fill="rgb(30.195618%, 30.195618%, 30.195618%)" fill-opacity="1">
<use xlink:href="#glyph-1-0" x="77.404454" y="104.277662"/>
<use xlink:href="#glyph-1-1" x="81.857307" y="104.277662"/>
<use xlink:href="#glyph-1-3" x="84.08178" y="104.277662"/>
<use xlink:href="#glyph-1-0" x="88.534633" y="104.277662"/>
</g>
<g fill="rgb(30.195618%, 30.195618%, 30.195618%)" fill-opacity="1">
<use xlink:href="#glyph-1-0" x="98.183729" y="104.277662"/>
<use xlink:href="#glyph-1-1" x="102.636583" y="104.277662"/>
<use xlink:href="#glyph-1-4" x="104.861055" y="104.277662"/>
<use xlink:href="#glyph-1-3" x="109.313909" y="104.277662"/>
</g>
<g fill="rgb(30.195618%, 30.195618%, 30.195618%)" fill-opacity="1">
<use xlink:href="#glyph-1-5" x="118.963004" y="104.277662"/>
<use xlink:href="#glyph-1-1" x="123.415858" y="104.277662"/>
<use xlink:href="#glyph-1-0" x="125.64033" y="104.277662"/>
<use xlink:href="#glyph-1-0" x="130.093184" y="104.277662"/>
</g>
<g fill="rgb(0%, 0%, 0%)" fill-opacity="1">
<use xlink:href="#glyph-2-0" x="71.292803" y="117.641533"/>
<use xlink:href="#glyph-2-1" x="78.520383" y="117.641533"/>
<use xlink:href="#glyph-2-2" x="84.08645" y="117.641533"/>
<use xlink:href="#glyph-2-3" x="89.090535" y="117.641533"/>
<use xlink:href="#glyph-2-4" x="94.656602" y="117.641533"/>
<use xlink:href="#glyph-2-4" x="96.880097" y="117.641533"/>
</g>
<g fill="rgb(0%, 0%, 0%)" fill-opacity="1">
<use xlink:href="#glyph-3-0" x="80.753511" y="130.28497"/>
<use xlink:href="#glyph-3-1" x="83.41975" y="130.28497"/>
<use xlink:href="#glyph-3-2" x="86.973432" y="130.28497"/>
</g>
<g fill="rgb(0%, 0%, 0%)" fill-opacity="1">
<use xlink:href="#glyph-3-0" x="187.309549" y="130.28497"/>
<use xlink:href="#glyph-3-3" x="189.975788" y="130.28497"/>
<use xlink:href="#glyph-3-2" x="193.979056" y="130.28497"/>
</g>
<g fill="rgb(0%, 0%, 0%)" fill-opacity="1">
<use xlink:href="#glyph-4-0" x="11.220325" y="65.266741"/>
<use xlink:href="#glyph-4-1" x="11.220325" y="58.580889"/>
<use xlink:href="#glyph-4-2" x="11.220325" y="55.242858"/>
<use xlink:href="#glyph-4-3" x="11.220325" y="49.668052"/>
<use xlink:href="#glyph-4-4" x="11.220325" y="44.65611"/>
<use xlink:href="#glyph-4-5" x="11.220325" y="42.429125"/>
<use xlink:href="#glyph-4-4" x="11.220325" y="37.417183"/>
<use xlink:href="#glyph-4-6" x="11.220325" y="35.190198"/>
<use xlink:href="#glyph-4-7" x="11.220325" y="29.615391"/>
</g>
</svg>
