<?xml version="1.0" encoding="UTF-8"?>
<svg xmlns="http://www.w3.org/2000/svg" xmlns:xlink="http://www.w3.org/1999/xlink" width="245" height="169" viewBox="0 0 245 169">
<defs>
<g>
<g id="glyph-0-0">
<path d="M 2.765625 0 L 2.765625 -1.46875 L 0.109375 -1.46875 L 0.109375 -2.15625 L 2.90625 -6.125 L 3.515625 -6.125 L 3.515625 -2.15625 L 4.34375 -2.15625 L 4.34375 -1.46875 L 3.515625 -1.46875 L 3.515625 0 Z M 2.765625 -2.15625 L 2.765625 -4.90625 L 0.84375 -2.15625 Z M 2.765625 -2.15625 "/>
</g>
<g id="glyph-0-1">
<path d="M 0.5625 0 L 0.5625 -4.4375 L 1.234375 -4.4375 L 1.234375 -3.796875 C 1.566406 -4.285156 2.039062 -4.53125 2.65625 -4.53125 C 2.914062 -4.53125 3.15625 -4.484375 3.375 -4.390625 C 3.601562 -4.296875 3.773438 -4.171875 3.890625 -4.015625 C 4.003906 -3.859375 4.082031 -3.671875 4.125 -3.453125 C 4.15625 -3.316406 4.171875 -3.070312 4.171875 -2.71875 L 4.171875 0 L 3.40625 0 L 3.40625 -2.703125 C 3.40625 -3.003906 3.375 -3.226562 3.3125 -3.375 C 3.257812 -3.53125 3.160156 -3.648438 3.015625 -3.734375 C 2.867188 -3.828125 2.691406 -3.875 2.484375 -3.875 C 2.171875 -3.875 1.894531 -3.769531 1.65625 -3.5625 C 1.425781 -3.363281 1.3125 -2.984375 1.3125 -2.421875 L 1.3125 0 Z M 0.5625 0 "/>
</g>
<g id="glyph-1-0">
<path d="M 0.328125 -2.828125 C 0.328125 -3.503906 0.394531 -4.050781 0.53125 -4.46875 C 0.675781 -4.882812 0.882812 -5.203125 1.15625 -5.421875 C 1.4375 -5.648438 1.785156 -5.765625 2.203125 -5.765625 C 2.503906 -5.765625 2.769531 -5.703125 3 -5.578125 C 3.238281 -5.453125 3.429688 -5.269531 3.578125 -5.03125 C 3.734375 -4.800781 3.851562 -4.519531 3.9375 -4.1875 C 4.019531 -3.851562 4.0625 -3.398438 4.0625 -2.828125 C 4.0625 -2.148438 3.992188 -1.601562 3.859375 -1.1875 C 3.722656 -0.78125 3.515625 -0.460938 3.234375 -0.234375 C 2.960938 -0.015625 2.617188 0.09375 2.203125 0.09375 C 1.648438 0.09375 1.21875 -0.101562 0.90625 -0.5 C 0.519531 -0.976562 0.328125 -1.753906 0.328125 -2.828125 Z M 1.0625 -2.828125 C 1.0625 -1.890625 1.171875 -1.265625 1.390625 -0.953125 C 1.609375 -0.640625 1.878906 -0.484375 2.203125 -0.484375 C 2.523438 -0.484375 2.796875 -0.640625 3.015625 -0.953125 C 3.234375 -1.265625 3.34375 -1.890625 3.34375 -2.828125 C 3.34375 -3.773438 3.234375 -4.398438 3.015625 -4.703125 C 2.796875 -5.015625 2.519531 -5.171875 2.1875 -5.171875 C 1.863281 -5.171875 1.609375 -5.035156 1.421875 -4.765625 C 1.179688 -4.421875 1.0625 -3.773438 1.0625 -2.828125 Z M 1.0625 -2.828125 "/>
</g>
<g id="glyph-1-1">
<path d="M 0.734375 0 L 0.734375 -0.796875 L 1.53125 -0.796875 L 1.53125 0 Z M 0.734375 0 "/>
</g>
<g id="glyph-1-2">
<path d="M 2.984375 0 L 2.28125 0 L 2.28125 -4.484375 C 2.113281 -4.328125 1.890625 -4.164062 1.609375 -4 C 1.335938 -3.84375 1.09375 -3.722656 0.875 -3.640625 L 0.875 -4.328125 C 1.269531 -4.503906 1.613281 -4.722656 1.90625 -4.984375 C 2.195312 -5.253906 2.40625 -5.515625 2.53125 -5.765625 L 2.984375 -5.765625 Z M 2.984375 0 "/>
</g>
<g id="glyph-1-3">
<path d="M 4.03125 -0.671875 L 4.03125 0 L 0.25 0 C 0.238281 -0.164062 0.265625 -0.328125 0.328125 -0.484375 C 0.421875 -0.742188 0.570312 -1 0.78125 -1.25 C 1 -1.5 1.304688 -1.789062 1.703125 -2.125 C 2.328125 -2.632812 2.75 -3.035156 2.96875 -3.328125 C 3.1875 -3.628906 3.296875 -3.914062 3.296875 -4.1875 C 3.296875 -4.46875 3.195312 -4.703125 3 -4.890625 C 2.800781 -5.078125 2.539062 -5.171875 2.21875 -5.171875 C 1.882812 -5.171875 1.613281 -5.066406 1.40625 -4.859375 C 1.207031 -4.660156 1.101562 -4.382812 1.09375 -4.03125 L 0.375 -4.109375 C 0.425781 -4.640625 0.613281 -5.046875 0.9375 -5.328125 C 1.257812 -5.617188 1.691406 -5.765625 2.234375 -5.765625 C 2.785156 -5.765625 3.21875 -5.609375 3.53125 -5.296875 C 3.851562 -4.992188 4.015625 -4.617188 4.015625 -4.171875 C 4.015625 -3.941406 3.96875 -3.710938 3.875 -3.484375 C 3.78125 -3.265625 3.625 -3.03125 3.40625 -2.78125 C 3.195312 -2.539062 2.835938 -2.207031 2.328125 -1.78125 C 1.910156 -1.425781 1.640625 -1.1875 1.515625 -1.0625 C 1.398438 -0.9375 1.300781 -0.804688 1.21875 -0.671875 Z M 4.03125 -0.671875 "/>
</g>
<g id="glyph-1-4">
<path d="M 0.34375 -1.515625 L 1.046875 -1.609375 C 1.117188 -1.210938 1.253906 -0.925781 1.453125 -0.75 C 1.648438 -0.570312 1.882812 -0.484375 2.15625 -0.484375 C 2.488281 -0.484375 2.769531 -0.597656 3 -0.828125 C 3.226562 -1.054688 3.34375 -1.335938 3.34375 -1.671875 C 3.34375 -2.003906 3.234375 -2.273438 3.015625 -2.484375 C 2.804688 -2.691406 2.539062 -2.796875 2.21875 -2.796875 C 2.082031 -2.796875 1.914062 -2.769531 1.71875 -2.71875 L 1.796875 -3.328125 C 1.847656 -3.328125 1.890625 -3.328125 1.921875 -3.328125 C 2.210938 -3.328125 2.476562 -3.40625 2.71875 -3.5625 C 2.957031 -3.71875 3.078125 -3.957031 3.078125 -4.28125 C 3.078125 -4.539062 2.988281 -4.753906 2.8125 -4.921875 C 2.644531 -5.097656 2.421875 -5.1875 2.140625 -5.1875 C 1.867188 -5.1875 1.640625 -5.097656 1.453125 -4.921875 C 1.273438 -4.753906 1.160156 -4.5 1.109375 -4.15625 L 0.40625 -4.28125 C 0.488281 -4.75 0.679688 -5.113281 0.984375 -5.375 C 1.296875 -5.632812 1.675781 -5.765625 2.125 -5.765625 C 2.4375 -5.765625 2.722656 -5.695312 2.984375 -5.5625 C 3.253906 -5.425781 3.457031 -5.238281 3.59375 -5 C 3.738281 -4.769531 3.8125 -4.523438 3.8125 -4.265625 C 3.8125 -4.015625 3.742188 -3.785156 3.609375 -3.578125 C 3.472656 -3.378906 3.273438 -3.222656 3.015625 -3.109375 C 3.359375 -3.023438 3.625 -2.859375 3.8125 -2.609375 C 4 -2.367188 4.09375 -2.0625 4.09375 -1.6875 C 4.09375 -1.1875 3.910156 -0.757812 3.546875 -0.40625 C 3.179688 -0.0625 2.71875 0.109375 2.15625 0.109375 C 1.65625 0.109375 1.238281 -0.0390625 0.90625 -0.34375 C 0.570312 -0.644531 0.382812 -1.035156 0.34375 -1.515625 Z M 0.34375 -1.515625 "/>
</g>
<g id="glyph-1-5">
<path d="M 2.59375 0 L 2.59375 -1.375 L 0.109375 -1.375 L 0.109375 -2.015625 L 2.71875 -5.734375 L 3.296875 -5.734375 L 3.296875 -2.015625 L 4.0625 -2.015625 L 4.0625 -1.375 L 3.296875 -1.375 L 3.296875 0 Z M 2.59375 -2.015625 L 2.59375 -4.609375 L 0.796875 -2.015625 Z M 2.59375 -2.015625 "/>
</g>
<g id="glyph-1-6">
<path d="M 0.328125 -1.5 L 1.078125 -1.5625 C 1.128906 -1.207031 1.253906 -0.9375 1.453125 -0.75 C 1.648438 -0.570312 1.890625 -0.484375 2.171875 -0.484375 C 2.515625 -0.484375 2.800781 -0.609375 3.03125 -0.859375 C 3.269531 -1.117188 3.390625 -1.457031 3.390625 -1.875 C 3.390625 -2.28125 3.273438 -2.597656 3.046875 -2.828125 C 2.816406 -3.066406 2.519531 -3.1875 2.15625 -3.1875 C 1.9375 -3.1875 1.734375 -3.132812 1.546875 -3.03125 C 1.367188 -2.925781 1.226562 -2.789062 1.125 -2.625 L 0.453125 -2.71875 L 1.015625 -5.65625 L 3.859375 -5.65625 L 3.859375 -4.984375 L 1.578125 -4.984375 L 1.265625 -3.4375 C 1.609375 -3.675781 1.96875 -3.796875 2.34375 -3.796875 C 2.84375 -3.796875 3.265625 -3.625 3.609375 -3.28125 C 3.953125 -2.9375 4.125 -2.488281 4.125 -1.9375 C 4.125 -1.425781 3.972656 -0.976562 3.671875 -0.59375 C 3.304688 -0.132812 2.804688 0.09375 2.171875 0.09375 C 1.648438 0.09375 1.222656 -0.0507812 0.890625 -0.34375 C 0.566406 -0.632812 0.378906 -1.019531 0.328125 -1.5 Z M 0.328125 -1.5 "/>
</g>
<g id="glyph-1-7">
<path d="M 0.375 -4.984375 L 0.375 -5.65625 L 4.09375 -5.65625 L 4.09375 -5.109375 C 3.726562 -4.722656 3.363281 -4.207031 3 -3.5625 C 2.644531 -2.914062 2.367188 -2.253906 2.171875 -1.578125 C 2.035156 -1.097656 1.945312 -0.570312 1.90625 0 L 1.1875 0 C 1.1875 -0.445312 1.269531 -0.988281 1.4375 -1.625 C 1.613281 -2.269531 1.859375 -2.890625 2.171875 -3.484375 C 2.492188 -4.078125 2.832031 -4.578125 3.1875 -4.984375 Z M 0.375 -4.984375 "/>
</g>
<g id="glyph-2-0">
<path d="M 0.484375 -3.484375 C 0.484375 -4.679688 0.800781 -5.613281 1.4375 -6.28125 C 2.082031 -6.957031 2.910156 -7.296875 3.921875 -7.296875 C 4.578125 -7.296875 5.171875 -7.132812 5.703125 -6.8125 C 6.234375 -6.5 6.640625 -6.0625 6.921875 -5.5 C 7.203125 -4.9375 7.34375 -4.296875 7.34375 -3.578125 C 7.34375 -2.847656 7.191406 -2.195312 6.890625 -1.625 C 6.597656 -1.050781 6.179688 -0.613281 5.640625 -0.3125 C 5.109375 -0.0195312 4.53125 0.125 3.90625 0.125 C 3.238281 0.125 2.640625 -0.0351562 2.109375 -0.359375 C 1.578125 -0.691406 1.171875 -1.140625 0.890625 -1.703125 C 0.617188 -2.265625 0.484375 -2.859375 0.484375 -3.484375 Z M 1.46875 -3.484375 C 1.46875 -2.617188 1.695312 -1.9375 2.15625 -1.4375 C 2.625 -0.9375 3.207031 -0.6875 3.90625 -0.6875 C 4.625 -0.6875 5.210938 -0.9375 5.671875 -1.4375 C 6.128906 -1.945312 6.359375 -2.660156 6.359375 -3.578125 C 6.359375 -4.160156 6.257812 -4.671875 6.0625 -5.109375 C 5.863281 -5.546875 5.570312 -5.882812 5.1875 -6.125 C 4.8125 -6.363281 4.390625 -6.484375 3.921875 -6.484375 C 3.253906 -6.484375 2.675781 -6.25 2.1875 -5.78125 C 1.707031 -5.320312 1.46875 -4.554688 1.46875 -3.484375 Z M 1.46875 -3.484375 "/>
</g>
<g id="glyph-2-1">
<path d="M 1.46875 0 L 0.65625 0 L 0.65625 -7.171875 L 1.53125 -7.171875 L 1.53125 -4.609375 C 1.90625 -5.078125 2.378906 -5.3125 2.953125 -5.3125 C 3.273438 -5.3125 3.578125 -5.242188 3.859375 -5.109375 C 4.148438 -4.984375 4.382812 -4.800781 4.5625 -4.5625 C 4.75 -4.332031 4.894531 -4.050781 5 -3.71875 C 5.101562 -3.394531 5.15625 -3.046875 5.15625 -2.671875 C 5.15625 -1.785156 4.9375 -1.097656 4.5 -0.609375 C 4.0625 -0.117188 3.535156 0.125 2.921875 0.125 C 2.304688 0.125 1.820312 -0.132812 1.46875 -0.65625 Z M 1.46875 -2.640625 C 1.46875 -2.015625 1.550781 -1.5625 1.71875 -1.28125 C 1.988281 -0.832031 2.363281 -0.609375 2.84375 -0.609375 C 3.226562 -0.609375 3.5625 -0.773438 3.84375 -1.109375 C 4.125 -1.441406 4.265625 -1.941406 4.265625 -2.609375 C 4.265625 -3.285156 4.128906 -3.785156 3.859375 -4.109375 C 3.585938 -4.429688 3.257812 -4.59375 2.875 -4.59375 C 2.488281 -4.59375 2.15625 -4.421875 1.875 -4.078125 C 1.601562 -3.742188 1.46875 -3.265625 1.46875 -2.640625 Z M 1.46875 -2.640625 "/>
</g>
<g id="glyph-2-2">
<path d="M 0.3125 -1.546875 L 1.171875 -1.6875 C 1.222656 -1.332031 1.359375 -1.0625 1.578125 -0.875 C 1.804688 -0.695312 2.125 -0.609375 2.53125 -0.609375 C 2.925781 -0.609375 3.222656 -0.6875 3.421875 -0.84375 C 3.617188 -1.007812 3.71875 -1.207031 3.71875 -1.4375 C 3.71875 -1.632812 3.628906 -1.789062 3.453125 -1.90625 C 3.335938 -1.976562 3.039062 -2.078125 2.5625 -2.203125 C 1.914062 -2.359375 1.46875 -2.492188 1.21875 -2.609375 C 0.96875 -2.734375 0.773438 -2.898438 0.640625 -3.109375 C 0.515625 -3.328125 0.453125 -3.5625 0.453125 -3.8125 C 0.453125 -4.039062 0.503906 -4.253906 0.609375 -4.453125 C 0.710938 -4.648438 0.859375 -4.816406 1.046875 -4.953125 C 1.179688 -5.046875 1.367188 -5.128906 1.609375 -5.203125 C 1.847656 -5.273438 2.097656 -5.3125 2.359375 -5.3125 C 2.773438 -5.3125 3.132812 -5.25 3.4375 -5.125 C 3.75 -5.007812 3.976562 -4.851562 4.125 -4.65625 C 4.269531 -4.457031 4.367188 -4.191406 4.421875 -3.859375 L 3.5625 -3.734375 C 3.519531 -4.003906 3.40625 -4.210938 3.21875 -4.359375 C 3.03125 -4.515625 2.769531 -4.59375 2.4375 -4.59375 C 2.03125 -4.59375 1.738281 -4.523438 1.5625 -4.390625 C 1.394531 -4.253906 1.3125 -4.097656 1.3125 -3.921875 C 1.3125 -3.804688 1.34375 -3.703125 1.40625 -3.609375 C 1.476562 -3.515625 1.59375 -3.4375 1.75 -3.375 C 1.84375 -3.34375 2.101562 -3.269531 2.53125 -3.15625 C 3.15625 -2.988281 3.585938 -2.847656 3.828125 -2.734375 C 4.078125 -2.628906 4.269531 -2.472656 4.40625 -2.265625 C 4.550781 -2.066406 4.625 -1.820312 4.625 -1.53125 C 4.625 -1.226562 4.535156 -0.945312 4.359375 -0.6875 C 4.191406 -0.4375 3.945312 -0.238281 3.625 -0.09375 C 3.300781 0.0507812 2.9375 0.125 2.53125 0.125 C 1.851562 0.125 1.335938 -0.015625 0.984375 -0.296875 C 0.628906 -0.578125 0.40625 -0.992188 0.3125 -1.546875 Z M 0.3125 -1.546875 "/>
</g>
<g id="glyph-2-3">
<path d="M 4.21875 -1.671875 L 5.125 -1.5625 C 4.976562 -1.03125 4.710938 -0.613281 4.328125 -0.3125 C 3.941406 -0.0195312 3.445312 0.125 2.84375 0.125 C 2.082031 0.125 1.476562 -0.109375 1.03125 -0.578125 C 0.582031 -1.046875 0.359375 -1.703125 0.359375 -2.546875 C 0.359375 -3.421875 0.582031 -4.097656 1.03125 -4.578125 C 1.488281 -5.066406 2.078125 -5.3125 2.796875 -5.3125 C 3.484375 -5.3125 4.046875 -5.070312 4.484375 -4.59375 C 4.929688 -4.125 5.15625 -3.460938 5.15625 -2.609375 C 5.15625 -2.554688 5.15625 -2.476562 5.15625 -2.375 L 1.28125 -2.375 C 1.3125 -1.800781 1.472656 -1.363281 1.765625 -1.0625 C 2.054688 -0.757812 2.414062 -0.609375 2.84375 -0.609375 C 3.164062 -0.609375 3.441406 -0.691406 3.671875 -0.859375 C 3.898438 -1.023438 4.082031 -1.296875 4.21875 -1.671875 Z M 1.328125 -3.09375 L 4.21875 -3.09375 C 4.1875 -3.53125 4.078125 -3.859375 3.890625 -4.078125 C 3.609375 -4.421875 3.242188 -4.59375 2.796875 -4.59375 C 2.398438 -4.59375 2.0625 -4.457031 1.78125 -4.1875 C 1.507812 -3.914062 1.359375 -3.550781 1.328125 -3.09375 Z M 1.328125 -3.09375 "/>
</g>
<g id="glyph-2-4">
<path d="M 0.65625 0 L 0.65625 -5.1875 L 1.4375 -5.1875 L 1.4375 -4.40625 C 1.644531 -4.769531 1.832031 -5.007812 2 -5.125 C 2.175781 -5.25 2.363281 -5.3125 2.5625 -5.3125 C 2.863281 -5.3125 3.164062 -5.21875 3.46875 -5.03125 L 3.171875 -4.203125 C 2.953125 -4.335938 2.738281 -4.40625 2.53125 -4.40625 C 2.332031 -4.40625 2.15625 -4.34375 2 -4.21875 C 1.851562 -4.101562 1.742188 -3.945312 1.671875 -3.75 C 1.578125 -3.4375 1.53125 -3.09375 1.53125 -2.71875 L 1.53125 0 Z M 0.65625 0 "/>
</g>
<g id="glyph-2-5">
<path d="M 2.109375 0 L 0.125 -5.1875 L 1.0625 -5.1875 L 2.171875 -2.078125 C 2.296875 -1.742188 2.40625 -1.394531 2.5 -1.03125 C 2.582031 -1.3125 2.691406 -1.644531 2.828125 -2.03125 L 3.984375 -5.1875 L 4.890625 -5.1875 L 2.921875 0 Z M 2.109375 0 "/>
</g>
<g id="glyph-2-6">
<path d="M 4.046875 -0.640625 C 3.722656 -0.359375 3.410156 -0.160156 3.109375 -0.046875 C 2.804688 0.0664062 2.484375 0.125 2.140625 0.125 C 1.566406 0.125 1.125 -0.015625 0.8125 -0.296875 C 0.507812 -0.578125 0.359375 -0.9375 0.359375 -1.375 C 0.359375 -1.625 0.414062 -1.851562 0.53125 -2.0625 C 0.644531 -2.269531 0.796875 -2.4375 0.984375 -2.5625 C 1.171875 -2.695312 1.382812 -2.796875 1.625 -2.859375 C 1.800781 -2.898438 2.0625 -2.945312 2.40625 -3 C 3.113281 -3.082031 3.632812 -3.179688 3.96875 -3.296875 C 3.976562 -3.421875 3.984375 -3.5 3.984375 -3.53125 C 3.984375 -3.882812 3.898438 -4.132812 3.734375 -4.28125 C 3.503906 -4.476562 3.171875 -4.578125 2.734375 -4.578125 C 2.316406 -4.578125 2.007812 -4.503906 1.8125 -4.359375 C 1.613281 -4.210938 1.46875 -3.957031 1.375 -3.59375 L 0.515625 -3.71875 C 0.585938 -4.082031 0.710938 -4.375 0.890625 -4.59375 C 1.078125 -4.820312 1.335938 -5 1.671875 -5.125 C 2.015625 -5.25 2.410156 -5.3125 2.859375 -5.3125 C 3.296875 -5.3125 3.65625 -5.257812 3.9375 -5.15625 C 4.21875 -5.050781 4.421875 -4.921875 4.546875 -4.765625 C 4.679688 -4.609375 4.773438 -4.40625 4.828125 -4.15625 C 4.847656 -4.007812 4.859375 -3.738281 4.859375 -3.34375 L 4.859375 -2.171875 C 4.859375 -1.359375 4.878906 -0.84375 4.921875 -0.625 C 4.960938 -0.40625 5.035156 -0.195312 5.140625 0 L 4.21875 0 C 4.132812 -0.1875 4.078125 -0.398438 4.046875 -0.640625 Z M 3.96875 -2.609375 C 3.65625 -2.472656 3.175781 -2.363281 2.53125 -2.28125 C 2.175781 -2.226562 1.921875 -2.164062 1.765625 -2.09375 C 1.617188 -2.03125 1.503906 -1.9375 1.421875 -1.8125 C 1.335938 -1.6875 1.296875 -1.546875 1.296875 -1.390625 C 1.296875 -1.160156 1.382812 -0.96875 1.5625 -0.8125 C 1.738281 -0.65625 2 -0.578125 2.34375 -0.578125 C 2.6875 -0.578125 2.988281 -0.648438 3.25 -0.796875 C 3.507812 -0.941406 3.703125 -1.144531 3.828125 -1.40625 C 3.921875 -1.601562 3.96875 -1.894531 3.96875 -2.28125 Z M 3.96875 -2.609375 "/>
</g>
<g id="glyph-2-7">
<path d="M 2.578125 -0.78125 L 2.703125 -0.015625 C 2.460938 0.0351562 2.242188 0.0625 2.046875 0.0625 C 1.722656 0.0625 1.472656 0.015625 1.296875 -0.078125 C 1.117188 -0.179688 0.992188 -0.316406 0.921875 -0.484375 C 0.859375 -0.648438 0.828125 -0.992188 0.828125 -1.515625 L 0.828125 -4.515625 L 0.171875 -4.515625 L 0.171875 -5.1875 L 0.828125 -5.1875 L 0.828125 -6.484375 L 1.703125 -7.015625 L 1.703125 -5.1875 L 2.578125 -5.1875 L 2.578125 -4.515625 L 1.703125 -4.515625 L 1.703125 -1.46875 C 1.703125 -1.21875 1.71875 -1.054688 1.75 -0.984375 C 1.78125 -0.910156 1.828125 -0.851562 1.890625 -0.8125 C 1.960938 -0.769531 2.066406 -0.75 2.203125 -0.75 C 2.296875 -0.75 2.421875 -0.757812 2.578125 -0.78125 Z M 2.578125 -0.78125 "/>
</g>
<g id="glyph-2-8">
<path d="M 0.671875 -6.15625 L 0.671875 -7.171875 L 1.546875 -7.171875 L 1.546875 -6.15625 Z M 0.671875 0 L 0.671875 -5.1875 L 1.546875 -5.1875 L 1.546875 0 Z M 0.671875 0 "/>
</g>
<g id="glyph-2-9">
<path d="M 0.328125 -2.59375 C 0.328125 -3.5625 0.597656 -4.273438 1.140625 -4.734375 C 1.578125 -5.117188 2.117188 -5.3125 2.765625 -5.3125 C 3.484375 -5.3125 4.066406 -5.078125 4.515625 -4.609375 C 4.972656 -4.140625 5.203125 -3.492188 5.203125 -2.671875 C 5.203125 -2.003906 5.097656 -1.476562 4.890625 -1.09375 C 4.691406 -0.707031 4.398438 -0.40625 4.015625 -0.1875 C 3.640625 0.0195312 3.222656 0.125 2.765625 0.125 C 2.035156 0.125 1.445312 -0.109375 1 -0.578125 C 0.550781 -1.046875 0.328125 -1.71875 0.328125 -2.59375 Z M 1.234375 -2.59375 C 1.234375 -1.925781 1.378906 -1.425781 1.671875 -1.09375 C 1.960938 -0.769531 2.328125 -0.609375 2.765625 -0.609375 C 3.203125 -0.609375 3.566406 -0.773438 3.859375 -1.109375 C 4.148438 -1.441406 4.296875 -1.945312 4.296875 -2.625 C 4.296875 -3.269531 4.148438 -3.753906 3.859375 -4.078125 C 3.566406 -4.410156 3.203125 -4.578125 2.765625 -4.578125 C 2.328125 -4.578125 1.960938 -4.410156 1.671875 -4.078125 C 1.378906 -3.753906 1.234375 -3.257812 1.234375 -2.59375 Z M 1.234375 -2.59375 "/>
</g>
<g id="glyph-2-10">
<path d="M 0.65625 0 L 0.65625 -5.1875 L 1.453125 -5.1875 L 1.453125 -4.453125 C 1.835938 -5.023438 2.390625 -5.3125 3.109375 -5.3125 C 3.421875 -5.3125 3.707031 -5.253906 3.96875 -5.140625 C 4.226562 -5.023438 4.421875 -4.875 4.546875 -4.6875 C 4.679688 -4.507812 4.773438 -4.296875 4.828125 -4.046875 C 4.859375 -3.890625 4.875 -3.601562 4.875 -3.1875 L 4.875 0 L 4 0 L 4 -3.15625 C 4 -3.519531 3.960938 -3.789062 3.890625 -3.96875 C 3.828125 -4.144531 3.707031 -4.285156 3.53125 -4.390625 C 3.351562 -4.492188 3.148438 -4.546875 2.921875 -4.546875 C 2.546875 -4.546875 2.222656 -4.425781 1.953125 -4.1875 C 1.679688 -3.945312 1.546875 -3.5 1.546875 -2.84375 L 1.546875 0 Z M 0.65625 0 "/>
</g>
<g id="glyph-2-11">
</g>
<g id="glyph-2-12">
<path d="M 0.9375 0 L 0.9375 -7.171875 L 1.890625 -7.171875 L 1.890625 0 Z M 0.9375 0 "/>
</g>
<g id="glyph-2-13">
<path d="M 4.03125 0 L 4.03125 -0.65625 C 3.695312 -0.132812 3.210938 0.125 2.578125 0.125 C 2.160156 0.125 1.78125 0.0078125 1.4375 -0.21875 C 1.09375 -0.445312 0.820312 -0.765625 0.625 -1.171875 C 0.4375 -1.585938 0.34375 -2.0625 0.34375 -2.59375 C 0.34375 -3.113281 0.425781 -3.582031 0.59375 -4 C 0.769531 -4.425781 1.03125 -4.75 1.375 -4.96875 C 1.71875 -5.195312 2.101562 -5.3125 2.53125 -5.3125 C 2.84375 -5.3125 3.117188 -5.242188 3.359375 -5.109375 C 3.609375 -4.984375 3.8125 -4.8125 3.96875 -4.59375 L 3.96875 -7.171875 L 4.84375 -7.171875 L 4.84375 0 Z M 1.25 -2.59375 C 1.25 -1.925781 1.390625 -1.425781 1.671875 -1.09375 C 1.953125 -0.769531 2.28125 -0.609375 2.65625 -0.609375 C 3.039062 -0.609375 3.367188 -0.765625 3.640625 -1.078125 C 3.910156 -1.390625 4.046875 -1.867188 4.046875 -2.515625 C 4.046875 -3.222656 3.90625 -3.742188 3.625 -4.078125 C 3.351562 -4.410156 3.019531 -4.578125 2.625 -4.578125 C 2.226562 -4.578125 1.898438 -4.414062 1.640625 -4.09375 C 1.378906 -3.78125 1.25 -3.28125 1.25 -2.59375 Z M 1.25 -2.59375 "/>
</g>
<g id="glyph-2-14">
<path d="M 0.078125 0 L 1.96875 -2.703125 L 0.21875 -5.1875 L 1.3125 -5.1875 L 2.109375 -3.96875 C 2.265625 -3.738281 2.382812 -3.546875 2.46875 -3.390625 C 2.613281 -3.609375 2.75 -3.800781 2.875 -3.96875 L 3.75 -5.1875 L 4.796875 -5.1875 L 3 -2.75 L 4.9375 0 L 3.859375 0 L 2.78125 -1.609375 L 2.5 -2.046875 L 1.140625 0 Z M 0.078125 0 "/>
</g>
<g id="glyph-3-0">
<path d="M -2.515625 -5.890625 L -2.28125 -6.84375 C -1.5 -6.632812 -0.898438 -6.269531 -0.484375 -5.75 C -0.078125 -5.238281 0.125 -4.613281 0.125 -3.875 C 0.125 -3.09375 -0.03125 -2.457031 -0.34375 -1.96875 C -0.664062 -1.488281 -1.125 -1.125 -1.71875 -0.875 C -2.3125 -0.625 -2.953125 -0.5 -3.640625 -0.5 C -4.390625 -0.5 -5.039062 -0.640625 -5.59375 -0.921875 C -6.144531 -1.210938 -6.566406 -1.617188 -6.859375 -2.140625 C -7.148438 -2.671875 -7.296875 -3.253906 -7.296875 -3.890625 C -7.296875 -4.597656 -7.113281 -5.195312 -6.75 -5.6875 C -6.382812 -6.175781 -5.867188 -6.519531 -5.203125 -6.71875 L -4.984375 -5.78125 C -5.503906 -5.613281 -5.882812 -5.367188 -6.125 -5.046875 C -6.363281 -4.734375 -6.484375 -4.335938 -6.484375 -3.859375 C -6.484375 -3.304688 -6.347656 -2.84375 -6.078125 -2.46875 C -5.816406 -2.101562 -5.460938 -1.847656 -5.015625 -1.703125 C -4.578125 -1.554688 -4.117188 -1.484375 -3.640625 -1.484375 C -3.035156 -1.484375 -2.503906 -1.570312 -2.046875 -1.75 C -1.585938 -1.925781 -1.242188 -2.203125 -1.015625 -2.578125 C -0.796875 -2.953125 -0.6875 -3.359375 -0.6875 -3.796875 C -0.6875 -4.328125 -0.835938 -4.773438 -1.140625 -5.140625 C -1.453125 -5.503906 -1.910156 -5.753906 -2.515625 -5.890625 Z M -2.515625 -5.890625 "/>
</g>
<g id="glyph-3-1">
<path d="M -2.59375 -0.328125 C -3.5625 -0.328125 -4.273438 -0.597656 -4.734375 -1.140625 C -5.117188 -1.578125 -5.3125 -2.117188 -5.3125 -2.765625 C -5.3125 -3.484375 -5.078125 -4.066406 -4.609375 -4.515625 C -4.140625 -4.972656 -3.492188 -5.203125 -2.671875 -5.203125 C -2.003906 -5.203125 -1.476562 -5.097656 -1.09375 -4.890625 C -0.707031 -4.691406 -0.40625 -4.398438 -0.1875 -4.015625 C 0.0195312 -3.640625 0.125 -3.222656 0.125 -2.765625 C 0.125 -2.035156 -0.109375 -1.445312 -0.578125 -1 C -1.046875 -0.550781 -1.71875 -0.328125 -2.59375 -0.328125 Z M -2.59375 -1.234375 C -1.925781 -1.234375 -1.425781 -1.378906 -1.09375 -1.671875 C -0.769531 -1.960938 -0.609375 -2.328125 -0.609375 -2.765625 C -0.609375 -3.203125 -0.773438 -3.566406 -1.109375 -3.859375 C -1.441406 -4.148438 -1.945312 -4.296875 -2.625 -4.296875 C -3.269531 -4.296875 -3.753906 -4.148438 -4.078125 -3.859375 C -4.410156 -3.566406 -4.578125 -3.203125 -4.578125 -2.765625 C -4.578125 -2.328125 -4.410156 -1.960938 -4.078125 -1.671875 C -3.753906 -1.378906 -3.257812 -1.234375 -2.59375 -1.234375 Z M -2.59375 -1.234375 "/>
</g>
<g id="glyph-3-2">
<path d="M 0 -0.671875 L -7.171875 -0.671875 L -7.171875 -1.546875 L -3.078125 -1.546875 L -5.1875 -3.625 L -5.1875 -4.765625 L -3.265625 -2.78125 L 0 -4.96875 L 0 -3.890625 L -2.65625 -2.171875 L -2.0625 -1.546875 L 0 -1.546875 Z M 0 -0.671875 "/>
</g>
<g id="glyph-3-3">
<path d="M -4.625 -0.671875 L -5.96875 -0.4375 L -7.171875 -0.4375 L -7.171875 -1.4375 L -5.96875 -1.4375 L -4.625 -1.203125 Z M -4.625 -0.671875 "/>
</g>
<g id="glyph-3-4">
<path d="M -1.546875 -0.3125 L -1.6875 -1.171875 C -1.332031 -1.222656 -1.0625 -1.359375 -0.875 -1.578125 C -0.695312 -1.804688 -0.609375 -2.125 -0.609375 -2.53125 C -0.609375 -2.925781 -0.6875 -3.222656 -0.84375 -3.421875 C -1.007812 -3.617188 -1.207031 -3.71875 -1.4375 -3.71875 C -1.632812 -3.71875 -1.789062 -3.628906 -1.90625 -3.453125 C -1.976562 -3.335938 -2.078125 -3.039062 -2.203125 -2.5625 C -2.359375 -1.914062 -2.492188 -1.46875 -2.609375 -1.21875 C -2.734375 -0.96875 -2.898438 -0.773438 -3.109375 -0.640625 C -3.328125 -0.515625 -3.5625 -0.453125 -3.8125 -0.453125 C -4.039062 -0.453125 -4.253906 -0.503906 -4.453125 -0.609375 C -4.648438 -0.710938 -4.816406 -0.859375 -4.953125 -1.046875 C -5.046875 -1.179688 -5.128906 -1.367188 -5.203125 -1.609375 C -5.273438 -1.847656 -5.3125 -2.097656 -5.3125 -2.359375 C -5.3125 -2.773438 -5.25 -3.132812 -5.125 -3.4375 C -5.007812 -3.75 -4.851562 -3.976562 -4.65625 -4.125 C -4.457031 -4.269531 -4.191406 -4.367188 -3.859375 -4.421875 L -3.734375 -3.5625 C -4.003906 -3.519531 -4.210938 -3.40625 -4.359375 -3.21875 C -4.515625 -3.03125 -4.59375 -2.769531 -4.59375 -2.4375 C -4.59375 -2.03125 -4.523438 -1.738281 -4.390625 -1.5625 C -4.253906 -1.394531 -4.097656 -1.3125 -3.921875 -1.3125 C -3.804688 -1.3125 -3.703125 -1.34375 -3.609375 -1.40625 C -3.515625 -1.476562 -3.4375 -1.59375 -3.375 -1.75 C -3.34375 -1.84375 -3.269531 -2.101562 -3.15625 -2.53125 C -2.988281 -3.15625 -2.847656 -3.585938 -2.734375 -3.828125 C -2.628906 -4.078125 -2.472656 -4.269531 -2.265625 -4.40625 C -2.066406 -4.550781 -1.820312 -4.625 -1.53125 -4.625 C -1.226562 -4.625 -0.945312 -4.535156 -0.6875 -4.359375 C -0.4375 -4.191406 -0.238281 -3.945312 -0.09375 -3.625 C 0.0507812 -3.300781 0.125 -2.9375 0.125 -2.53125 C 0.125 -1.851562 -0.015625 -1.335938 -0.296875 -0.984375 C -0.578125 -0.628906 -0.992188 -0.40625 -1.546875 -0.3125 Z M -1.546875 -0.3125 "/>
</g>
<g id="glyph-3-5">
</g>
<g id="glyph-3-6">
<path d="M 0 -0.765625 L -7.171875 -0.765625 L -7.171875 -3.25 C -7.171875 -3.800781 -7.132812 -4.222656 -7.0625 -4.515625 C -6.96875 -4.929688 -6.796875 -5.28125 -6.546875 -5.5625 C -6.234375 -5.945312 -5.828125 -6.234375 -5.328125 -6.421875 C -4.828125 -6.609375 -4.257812 -6.703125 -3.625 -6.703125 C -3.082031 -6.703125 -2.597656 -6.632812 -2.171875 -6.5 C -1.753906 -6.375 -1.40625 -6.210938 -1.125 -6.015625 C -0.851562 -5.816406 -0.640625 -5.597656 -0.484375 -5.359375 C -0.328125 -5.128906 -0.207031 -4.847656 -0.125 -4.515625 C -0.0390625 -4.179688 0 -3.796875 0 -3.359375 Z M -0.84375 -1.71875 L -0.84375 -3.25 C -0.84375 -3.726562 -0.882812 -4.097656 -0.96875 -4.359375 C -1.0625 -4.628906 -1.1875 -4.847656 -1.34375 -5.015625 C -1.570312 -5.234375 -1.875 -5.40625 -2.25 -5.53125 C -2.632812 -5.65625 -3.097656 -5.71875 -3.640625 -5.71875 C -4.390625 -5.71875 -4.960938 -5.59375 -5.359375 -5.34375 C -5.765625 -5.101562 -6.035156 -4.804688 -6.171875 -4.453125 C -6.273438 -4.203125 -6.328125 -3.796875 -6.328125 -3.234375 L -6.328125 -1.71875 Z M -0.84375 -1.71875 "/>
</g>
<g id="glyph-3-7">
<path d="M -6.15625 -0.671875 L -7.171875 -0.671875 L -7.171875 -1.546875 L -6.15625 -1.546875 Z M 0 -0.671875 L -5.1875 -0.671875 L -5.1875 -1.546875 L 0 -1.546875 Z M 0 -0.671875 "/>
</g>
<g id="glyph-3-8">
<path d="M -0.78125 -2.578125 L -0.015625 -2.703125 C 0.0351562 -2.460938 0.0625 -2.242188 0.0625 -2.046875 C 0.0625 -1.722656 0.015625 -1.472656 -0.078125 -1.296875 C -0.179688 -1.117188 -0.316406 -0.992188 -0.484375 -0.921875 C -0.648438 -0.859375 -0.992188 -0.828125 -1.515625 -0.828125 L -4.515625 -0.828125 L -4.515625 -0.171875 L -5.1875 -0.171875 L -5.1875 -0.828125 L -6.484375 -0.828125 L -7.015625 -1.703125 L -5.1875 -1.703125 L -5.1875 -2.578125 L -4.515625 -2.578125 L -4.515625 -1.703125 L -1.46875 -1.703125 C -1.21875 -1.703125 -1.054688 -1.71875 -0.984375 -1.75 C -0.910156 -1.78125 -0.851562 -1.828125 -0.8125 -1.890625 C -0.769531 -1.960938 -0.75 -2.066406 -0.75 -2.203125 C -0.75 -2.296875 -0.757812 -2.421875 -0.78125 -2.578125 Z M -0.78125 -2.578125 "/>
</g>
<g id="glyph-3-9">
<path d="M -0.640625 -4.046875 C -0.359375 -3.722656 -0.160156 -3.410156 -0.046875 -3.109375 C 0.0664062 -2.804688 0.125 -2.484375 0.125 -2.140625 C 0.125 -1.566406 -0.015625 -1.125 -0.296875 -0.8125 C -0.578125 -0.507812 -0.9375 -0.359375 -1.375 -0.359375 C -1.625 -0.359375 -1.851562 -0.414062 -2.0625 -0.53125 C -2.269531 -0.644531 -2.4375 -0.796875 -2.5625 -0.984375 C -2.695312 -1.171875 -2.796875 -1.382812 -2.859375 -1.625 C -2.898438 -1.800781 -2.945312 -2.0625 -3 -2.40625 C -3.082031 -3.113281 -3.179688 -3.632812 -3.296875 -3.96875 C -3.421875 -3.976562 -3.5 -3.984375 -3.53125 -3.984375 C -3.882812 -3.984375 -4.132812 -3.898438 -4.28125 -3.734375 C -4.476562 -3.503906 -4.578125 -3.171875 -4.578125 -2.734375 C -4.578125 -2.316406 -4.503906 -2.007812 -4.359375 -1.8125 C -4.210938 -1.613281 -3.957031 -1.46875 -3.59375 -1.375 L -3.71875 -0.515625 C -4.082031 -0.585938 -4.375 -0.710938 -4.59375 -0.890625 C -4.820312 -1.078125 -5 -1.335938 -5.125 -1.671875 C -5.25 -2.015625 -5.3125 -2.410156 -5.3125 -2.859375 C -5.3125 -3.296875 -5.257812 -3.65625 -5.15625 -3.9375 C -5.050781 -4.21875 -4.921875 -4.421875 -4.765625 -4.546875 C -4.609375 -4.679688 -4.40625 -4.773438 -4.15625 -4.828125 C -4.007812 -4.847656 -3.738281 -4.859375 -3.34375 -4.859375 L -2.171875 -4.859375 C -1.359375 -4.859375 -0.84375 -4.878906 -0.625 -4.921875 C -0.40625 -4.960938 -0.195312 -5.035156 0 -5.140625 L 0 -4.21875 C -0.1875 -4.132812 -0.398438 -4.078125 -0.640625 -4.046875 Z M -2.609375 -3.96875 C -2.472656 -3.65625 -2.363281 -3.175781 -2.28125 -2.53125 C -2.226562 -2.175781 -2.164062 -1.921875 -2.09375 -1.765625 C -2.03125 -1.617188 -1.9375 -1.503906 -1.8125 -1.421875 C -1.6875 -1.335938 -1.546875 -1.296875 -1.390625 -1.296875 C -1.160156 -1.296875 -0.96875 -1.382812 -0.8125 -1.5625 C -0.65625 -1.738281 -0.578125 -2 -0.578125 -2.34375 C -0.578125 -2.6875 -0.648438 -2.988281 -0.796875 -3.25 C -0.941406 -3.507812 -1.144531 -3.703125 -1.40625 -3.828125 C -1.601562 -3.921875 -1.894531 -3.96875 -2.28125 -3.96875 Z M -2.609375 -3.96875 "/>
</g>
<g id="glyph-3-10">
<path d="M 0 -0.65625 L -5.1875 -0.65625 L -5.1875 -1.453125 L -4.453125 -1.453125 C -5.023438 -1.835938 -5.3125 -2.390625 -5.3125 -3.109375 C -5.3125 -3.421875 -5.253906 -3.707031 -5.140625 -3.96875 C -5.023438 -4.226562 -4.875 -4.421875 -4.6875 -4.546875 C -4.507812 -4.679688 -4.296875 -4.773438 -4.046875 -4.828125 C -3.890625 -4.859375 -3.601562 -4.875 -3.1875 -4.875 L 0 -4.875 L 0 -4 L -3.15625 -4 C -3.519531 -4 -3.789062 -3.960938 -3.96875 -3.890625 C -4.144531 -3.828125 -4.285156 -3.707031 -4.390625 -3.53125 C -4.492188 -3.351562 -4.546875 -3.148438 -4.546875 -2.921875 C -4.546875 -2.546875 -4.425781 -2.222656 -4.1875 -1.953125 C -3.945312 -1.679688 -3.5 -1.546875 -2.84375 -1.546875 L 0 -1.546875 Z M 0 -0.65625 "/>
</g>
<g id="glyph-3-11">
<path d="M -1.90625 -4.046875 L -1.796875 -4.921875 C -1.191406 -4.816406 -0.71875 -4.570312 -0.375 -4.1875 C -0.0390625 -3.800781 0.125 -3.320312 0.125 -2.75 C 0.125 -2.039062 -0.109375 -1.46875 -0.578125 -1.03125 C -1.046875 -0.601562 -1.710938 -0.390625 -2.578125 -0.390625 C -3.140625 -0.390625 -3.628906 -0.484375 -4.046875 -0.671875 C -4.472656 -0.859375 -4.789062 -1.140625 -5 -1.515625 C -5.207031 -1.898438 -5.3125 -2.316406 -5.3125 -2.765625 C -5.3125 -3.328125 -5.164062 -3.785156 -4.875 -4.140625 C -4.59375 -4.503906 -4.191406 -4.734375 -3.671875 -4.828125 L -3.53125 -3.96875 C -3.882812 -3.894531 -4.148438 -3.753906 -4.328125 -3.546875 C -4.503906 -3.335938 -4.59375 -3.085938 -4.59375 -2.796875 C -4.59375 -2.347656 -4.429688 -1.984375 -4.109375 -1.703125 C -3.796875 -1.429688 -3.296875 -1.296875 -2.609375 -1.296875 C -1.910156 -1.296875 -1.398438 -1.425781 -1.078125 -1.6875 C -0.765625 -1.957031 -0.609375 -2.3125 -0.609375 -2.75 C -0.609375 -3.09375 -0.710938 -3.378906 -0.921875 -3.609375 C -1.128906 -3.835938 -1.457031 -3.984375 -1.90625 -4.046875 Z M -1.90625 -4.046875 "/>
</g>
<g id="glyph-3-12">
<path d="M -1.671875 -4.21875 L -1.5625 -5.125 C -1.03125 -4.976562 -0.613281 -4.710938 -0.3125 -4.328125 C -0.0195312 -3.941406 0.125 -3.445312 0.125 -2.84375 C 0.125 -2.082031 -0.109375 -1.476562 -0.578125 -1.03125 C -1.046875 -0.582031 -1.703125 -0.359375 -2.546875 -0.359375 C -3.421875 -0.359375 -4.097656 -0.582031 -4.578125 -1.03125 C -5.066406 -1.488281 -5.3125 -2.078125 -5.3125 -2.796875 C -5.3125 -3.484375 -5.070312 -4.046875 -4.59375 -4.484375 C -4.125 -4.929688 -3.460938 -5.15625 -2.609375 -5.15625 C -2.554688 -5.15625 -2.476562 -5.15625 -2.375 -5.15625 L -2.375 -1.28125 C -1.800781 -1.3125 -1.363281 -1.472656 -1.0625 -1.765625 C -0.757812 -2.054688 -0.609375 -2.414062 -0.609375 -2.84375 C -0.609375 -3.164062 -0.691406 -3.441406 -0.859375 -3.671875 C -1.023438 -3.898438 -1.296875 -4.082031 -1.671875 -4.21875 Z M -3.09375 -1.328125 L -3.09375 -4.21875 C -3.53125 -4.1875 -3.859375 -4.078125 -4.078125 -3.890625 C -4.421875 -3.609375 -4.59375 -3.242188 -4.59375 -2.796875 C -4.59375 -2.398438 -4.457031 -2.0625 -4.1875 -1.78125 C -3.914062 -1.507812 -3.550781 -1.359375 -3.09375 -1.328125 Z M -3.09375 -1.328125 "/>
</g>
</g>
</defs>
<path fill="none" stroke-width="1.068208" stroke-linecap="butt" stroke-linejoin="round" stroke="rgb(85.096741%, 85.096741%, 85.096741%)" stroke-opacity="1" stroke-miterlimit="10" d="M 48.305196 133.710938 L 229.010083 133.710938 " transform="matrix(0.999666, 0, 0, 1, 0, 0)"/>
<path fill="none" stroke-width="1.068208" stroke-linecap="butt" stroke-linejoin="round" stroke="rgb(85.096741%, 85.096741%, 85.096741%)" stroke-opacity="1" stroke-miterlimit="10" d="M 48.305196 100.882812 L 229.010083 100.882812 " transform="matrix(0.999666, 0, 0, 1, 0, 0)"/>
<path fill="none" stroke-width="1.068208" stroke-linecap="butt" stroke-linejoin="round" stroke="rgb(85.096741%, 85.096741%, 85.096741%)" stroke-opacity="1" stroke-miterlimit="10" d="M 48.305196 68.050781 L 229.010083 68.050781 " transform="matrix(0.999666, 0, 0, 1, 0, 0)"/>
<path fill="none" stroke-width="1.068208" stroke-linecap="butt" stroke-linejoin="round" stroke="rgb(85.096741%, 85.096741%, 85.096741%)" stroke-opacity="1" stroke-miterlimit="10" d="M 48.305196 35.21875 L 229.010083 35.21875 " transform="matrix(0.999666, 0, 0, 1, 0, 0)"/>
<path fill="none" stroke-width="1.068208" stroke-linecap="butt" stroke-linejoin="round" stroke="rgb(85.096741%, 85.096741%, 85.096741%)" stroke-opacity="1" stroke-miterlimit="10" d="M 48.305196 2.390625 L 229.010083 2.390625 " transform="matrix(0.999666, 0, 0, 1, 0, 0)"/>
<path fill="none" stroke-width="1.068208" stroke-linecap="butt" stroke-linejoin="round" stroke="rgb(85.096741%, 85.096741%, 85.096741%)" stroke-opacity="1" stroke-miterlimit="10" d="M 54.858166 140.046875 L 54.858166 0.675781 " transform="matrix(0.999666, 0, 0, 1, 0, 0)"/>
<path fill="none" stroke-width="1.068208" stroke-linecap="butt" stroke-linejoin="round" stroke="rgb(85.096741%, 85.096741%, 85.096741%)" stroke-opacity="1" stroke-miterlimit="10" d="M 96.344679 140.046875 L 96.344679 0.675781 " transform="matrix(0.999666, 0, 0, 1, 0, 0)"/>
<path fill="none" stroke-width="1.068208" stroke-linecap="butt" stroke-linejoin="round" stroke="rgb(85.096741%, 85.096741%, 85.096741%)" stroke-opacity="1" stroke-miterlimit="10" d="M 137.827284 140.046875 L 137.827284 0.675781 " transform="matrix(0.999666, 0, 0, 1, 0, 0)"/>
<path fill="none" stroke-width="1.068208" stroke-linecap="butt" stroke-linejoin="round" stroke="rgb(85.096741%, 85.096741%, 85.096741%)" stroke-opacity="1" stroke-miterlimit="10" d="M 179.313797 140.046875 L 179.313797 0.675781 " transform="matrix(0.999666, 0, 0, 1, 0, 0)"/>
<path fill="none" stroke-width="1.068208" stroke-linecap="butt" stroke-linejoin="round" stroke="rgb(85.096741%, 85.096741%, 85.096741%)" stroke-opacity="1" stroke-miterlimit="10" d="M 220.80031 140.046875 L 220.80031 0.675781 " transform="matrix(0.999666, 0, 0, 1, 0, 0)"/>
<path fill-rule="nonzero" fill="rgb(69.802856%, 13.33313%, 13.33313%)" fill-opacity="0.101961" d="M 48.289062 120.582031 L 228.9375 120.582031 L 228.9375 133.710938 L 48.289062 133.710938 Z M 48.289062 120.582031 "/>
<path fill="none" stroke-width="1.068208" stroke-linecap="butt" stroke-linejoin="round" stroke="rgb(69.802856%, 13.33313%, 13.33313%)" stroke-opacity="1" stroke-miterlimit="10" d="M 48.305196 120.582031 L 229.010083 120.582031 " transform="matrix(0.999666, 0, 0, 1, 0, 0)"/>
<path fill="none" stroke-width="2.136417" stroke-linecap="butt" stroke-linejoin="round" stroke="rgb(39.99939%, 39.99939%, 39.99939%)" stroke-opacity="1" stroke-miterlimit="10" d="M 58.175681 133.699219 L 58.175681 133.710938 " transform="matrix(0.999666, 0, 0, 1, 0, 0)"/>
<path fill="none" stroke-width="2.136417" stroke-linecap="butt" stroke-linejoin="round" stroke="rgb(39.99939%, 39.99939%, 39.99939%)" stroke-opacity="1" stroke-miterlimit="10" d="M 59.836392 133.699219 L 59.836392 133.710938 " transform="matrix(0.999666, 0, 0, 1, 0, 0)"/>
<path fill="none" stroke-width="2.136417" stroke-linecap="butt" stroke-linejoin="round" stroke="rgb(39.99939%, 39.99939%, 39.99939%)" stroke-opacity="1" stroke-miterlimit="10" d="M 61.493195 133.699219 L 61.493195 133.710938 " transform="matrix(0.999666, 0, 0, 1, 0, 0)"/>
<path fill="none" stroke-width="2.136417" stroke-linecap="butt" stroke-linejoin="round" stroke="rgb(39.99939%, 39.99939%, 39.99939%)" stroke-opacity="1" stroke-miterlimit="10" d="M 63.153906 133.699219 L 63.153906 133.710938 " transform="matrix(0.999666, 0, 0, 1, 0, 0)"/>
<path fill="none" stroke-width="2.136417" stroke-linecap="butt" stroke-linejoin="round" stroke="rgb(39.99939%, 39.99939%, 39.99939%)" stroke-opacity="1" stroke-miterlimit="10" d="M 64.814617 133.699219 L 64.814617 133.710938 " transform="matrix(0.999666, 0, 0, 1, 0, 0)"/>
<path fill="none" stroke-width="2.136417" stroke-linecap="butt" stroke-linejoin="round" stroke="rgb(39.99939%, 39.99939%, 39.99939%)" stroke-opacity="1" stroke-miterlimit="10" d="M 66.47142 133.703125 L 66.47142 133.710938 " transform="matrix(0.999666, 0, 0, 1, 0, 0)"/>
<path fill="none" stroke-width="2.136417" stroke-linecap="butt" stroke-linejoin="round" stroke="rgb(39.99939%, 39.99939%, 39.99939%)" stroke-opacity="1" stroke-miterlimit="10" d="M 68.132131 133.699219 L 68.132131 133.710938 " transform="matrix(0.999666, 0, 0, 1, 0, 0)"/>
<path fill="none" stroke-width="2.136417" stroke-linecap="butt" stroke-linejoin="round" stroke="rgb(39.99939%, 39.99939%, 39.99939%)" stroke-opacity="1" stroke-miterlimit="10" d="M 69.792842 133.699219 L 69.792842 133.710938 " transform="matrix(0.999666, 0, 0, 1, 0, 0)"/>
<path fill="none" stroke-width="2.136417" stroke-linecap="butt" stroke-linejoin="round" stroke="rgb(39.99939%, 39.99939%, 39.99939%)" stroke-opacity="1" stroke-miterlimit="10" d="M 71.449645 133.699219 L 71.449645 133.710938 " transform="matrix(0.999666, 0, 0, 1, 0, 0)"/>
<path fill="none" stroke-width="2.136417" stroke-linecap="butt" stroke-linejoin="round" stroke="rgb(39.99939%, 39.99939%, 39.99939%)" stroke-opacity="1" stroke-miterlimit="10" d="M 73.110356 133.699219 L 73.110356 133.710938 " transform="matrix(0.999666, 0, 0, 1, 0, 0)"/>
<path fill="none" stroke-width="2.136417" stroke-linecap="butt" stroke-linejoin="round" stroke="rgb(39.99939%, 39.99939%, 39.99939%)" stroke-opacity="1" stroke-miterlimit="10" d="M 74.771067 133.699219 L 74.771067 133.710938 " transform="matrix(0.999666, 0, 0, 1, 0, 0)"/>
<path fill="none" stroke-width="2.136417" stroke-linecap="butt" stroke-linejoin="round" stroke="rgb(39.99939%, 39.99939%, 39.99939%)" stroke-opacity="1" stroke-miterlimit="10" d="M 76.427871 133.699219 L 76.427871 133.710938 " transform="matrix(0.999666, 0, 0, 1, 0, 0)"/>
<path fill="none" stroke-width="2.136417" stroke-linecap="butt" stroke-linejoin="round" stroke="rgb(39.99939%, 39.99939%, 39.99939%)" stroke-opacity="1" stroke-miterlimit="10" d="M 78.088582 133.699219 L 78.088582 133.710938 " transform="matrix(0.999666, 0, 0, 1, 0, 0)"/>
<path fill="none" stroke-width="2.136417" stroke-linecap="butt" stroke-linejoin="round" stroke="rgb(39.99939%, 39.99939%, 39.99939%)" stroke-opacity="1" stroke-miterlimit="10" d="M 79.749293 133.703125 L 79.749293 133.710938 " transform="matrix(0.999666, 0, 0, 1, 0, 0)"/>
<path fill="none" stroke-width="2.136417" stroke-linecap="butt" stroke-linejoin="round" stroke="rgb(39.99939%, 39.99939%, 39.99939%)" stroke-opacity="1" stroke-miterlimit="10" d="M 81.406096 133.699219 L 81.406096 133.710938 " transform="matrix(0.999666, 0, 0, 1, 0, 0)"/>
<path fill="none" stroke-width="2.136417" stroke-linecap="butt" stroke-linejoin="round" stroke="rgb(39.99939%, 39.99939%, 39.99939%)" stroke-opacity="1" stroke-miterlimit="10" d="M 83.066807 133.699219 L 83.066807 133.710938 " transform="matrix(0.999666, 0, 0, 1, 0, 0)"/>
<path fill="none" stroke-width="2.136417" stroke-linecap="butt" stroke-linejoin="round" stroke="rgb(39.99939%, 39.99939%, 39.99939%)" stroke-opacity="1" stroke-miterlimit="10" d="M 84.727518 133.699219 L 84.727518 133.710938 " transform="matrix(0.999666, 0, 0, 1, 0, 0)"/>
<path fill="none" stroke-width="2.136417" stroke-linecap="butt" stroke-linejoin="round" stroke="rgb(39.99939%, 39.99939%, 39.99939%)" stroke-opacity="1" stroke-miterlimit="10" d="M 86.388229 133.699219 L 86.388229 133.710938 " transform="matrix(0.999666, 0, 0, 1, 0, 0)"/>
<path fill="none" stroke-width="2.136417" stroke-linecap="butt" stroke-linejoin="round" stroke="rgb(39.99939%, 39.99939%, 39.99939%)" stroke-opacity="1" stroke-miterlimit="10" d="M 88.045032 133.699219 L 88.045032 133.710938 " transform="matrix(0.999666, 0, 0, 1, 0, 0)"/>
<path fill="none" stroke-width="2.136417" stroke-linecap="butt" stroke-linejoin="round" stroke="rgb(39.99939%, 39.99939%, 39.99939%)" stroke-opacity="1" stroke-miterlimit="10" d="M 89.705743 133.683594 L 89.705743 133.710938 " transform="matrix(0.999666, 0, 0, 1, 0, 0)"/>
<path fill="none" stroke-width="2.136417" stroke-linecap="butt" stroke-linejoin="round" stroke="rgb(39.99939%, 39.99939%, 39.99939%)" stroke-opacity="1" stroke-miterlimit="10" d="M 91.362546 133.664062 L 91.362546 133.710938 " transform="matrix(0.999666, 0, 0, 1, 0, 0)"/>
<path fill="none" stroke-width="2.136417" stroke-linecap="butt" stroke-linejoin="round" stroke="rgb(39.99939%, 39.99939%, 39.99939%)" stroke-opacity="1" stroke-miterlimit="10" d="M 93.023257 133.695312 L 93.023257 133.710938 " transform="matrix(0.999666, 0, 0, 1, 0, 0)"/>
<path fill="none" stroke-width="2.136417" stroke-linecap="butt" stroke-linejoin="round" stroke="rgb(39.99939%, 39.99939%, 39.99939%)" stroke-opacity="1" stroke-miterlimit="10" d="M 94.683968 133.703125 L 94.683968 133.710938 " transform="matrix(0.999666, 0, 0, 1, 0, 0)"/>
<path fill="none" stroke-width="2.136417" stroke-linecap="butt" stroke-linejoin="round" stroke="rgb(39.99939%, 39.99939%, 39.99939%)" stroke-opacity="1" stroke-miterlimit="10" d="M 96.344679 121.570312 L 96.344679 133.710938 " transform="matrix(0.999666, 0, 0, 1, 0, 0)"/>
<path fill="none" stroke-width="2.136417" stroke-linecap="butt" stroke-linejoin="round" stroke="rgb(39.99939%, 39.99939%, 39.99939%)" stroke-opacity="1" stroke-miterlimit="10" d="M 98.001482 133.65625 L 98.001482 133.710938 " transform="matrix(0.999666, 0, 0, 1, 0, 0)"/>
<path fill="none" stroke-width="2.136417" stroke-linecap="butt" stroke-linejoin="round" stroke="rgb(39.99939%, 39.99939%, 39.99939%)" stroke-opacity="1" stroke-miterlimit="10" d="M 101.322904 133.679688 L 101.322904 133.710938 " transform="matrix(0.999666, 0, 0, 1, 0, 0)"/>
<path fill="none" stroke-width="2.136417" stroke-linecap="butt" stroke-linejoin="round" stroke="rgb(39.99939%, 39.99939%, 39.99939%)" stroke-opacity="1" stroke-miterlimit="10" d="M 102.979708 133.671875 L 102.979708 133.710938 " transform="matrix(0.999666, 0, 0, 1, 0, 0)"/>
<path fill="none" stroke-width="2.136417" stroke-linecap="butt" stroke-linejoin="round" stroke="rgb(39.99939%, 39.99939%, 39.99939%)" stroke-opacity="1" stroke-miterlimit="10" d="M 104.636511 133.675781 L 104.636511 133.710938 " transform="matrix(0.999666, 0, 0, 1, 0, 0)"/>
<path fill="none" stroke-width="2.136417" stroke-linecap="butt" stroke-linejoin="round" stroke="rgb(39.99939%, 39.99939%, 39.99939%)" stroke-opacity="1" stroke-miterlimit="10" d="M 106.30113 133.664062 L 106.30113 133.710938 " transform="matrix(0.999666, 0, 0, 1, 0, 0)"/>
<path fill="none" stroke-width="2.136417" stroke-linecap="butt" stroke-linejoin="round" stroke="rgb(39.99939%, 39.99939%, 39.99939%)" stroke-opacity="1" stroke-miterlimit="10" d="M 107.957933 133.671875 L 107.957933 133.710938 " transform="matrix(0.999666, 0, 0, 1, 0, 0)"/>
<path fill="none" stroke-width="2.136417" stroke-linecap="butt" stroke-linejoin="round" stroke="rgb(39.99939%, 39.99939%, 39.99939%)" stroke-opacity="1" stroke-miterlimit="10" d="M 109.614736 133.667969 L 109.614736 133.710938 " transform="matrix(0.999666, 0, 0, 1, 0, 0)"/>
<path fill="none" stroke-width="2.136417" stroke-linecap="butt" stroke-linejoin="round" stroke="rgb(39.99939%, 39.99939%, 39.99939%)" stroke-opacity="1" stroke-miterlimit="10" d="M 111.279355 133.675781 L 111.279355 133.710938 " transform="matrix(0.999666, 0, 0, 1, 0, 0)"/>
<path fill="none" stroke-width="2.136417" stroke-linecap="butt" stroke-linejoin="round" stroke="rgb(39.99939%, 39.99939%, 39.99939%)" stroke-opacity="1" stroke-miterlimit="10" d="M 112.936158 133.679688 L 112.936158 133.710938 " transform="matrix(0.999666, 0, 0, 1, 0, 0)"/>
<path fill="none" stroke-width="2.136417" stroke-linecap="butt" stroke-linejoin="round" stroke="rgb(39.99939%, 39.99939%, 39.99939%)" stroke-opacity="1" stroke-miterlimit="10" d="M 116.25758 133.664062 L 116.25758 133.710938 " transform="matrix(0.999666, 0, 0, 1, 0, 0)"/>
<path fill="none" stroke-width="2.136417" stroke-linecap="butt" stroke-linejoin="round" stroke="rgb(39.99939%, 39.99939%, 39.99939%)" stroke-opacity="1" stroke-miterlimit="10" d="M 117.914383 133.671875 L 117.914383 133.710938 " transform="matrix(0.999666, 0, 0, 1, 0, 0)"/>
<path fill="none" stroke-width="2.136417" stroke-linecap="butt" stroke-linejoin="round" stroke="rgb(39.99939%, 39.99939%, 39.99939%)" stroke-opacity="1" stroke-miterlimit="10" d="M 119.571187 133.660156 L 119.571187 133.710938 " transform="matrix(0.999666, 0, 0, 1, 0, 0)"/>
<path fill="none" stroke-width="2.136417" stroke-linecap="butt" stroke-linejoin="round" stroke="rgb(39.99939%, 39.99939%, 39.99939%)" stroke-opacity="1" stroke-miterlimit="10" d="M 121.235805 133.699219 L 121.235805 133.710938 " transform="matrix(0.999666, 0, 0, 1, 0, 0)"/>
<path fill="none" stroke-width="2.136417" stroke-linecap="butt" stroke-linejoin="round" stroke="rgb(39.99939%, 39.99939%, 39.99939%)" stroke-opacity="1" stroke-miterlimit="10" d="M 122.892609 133.636719 L 122.892609 133.710938 " transform="matrix(0.999666, 0, 0, 1, 0, 0)"/>
<path fill="none" stroke-width="2.136417" stroke-linecap="butt" stroke-linejoin="round" stroke="rgb(39.99939%, 39.99939%, 39.99939%)" stroke-opacity="1" stroke-miterlimit="10" d="M 124.549412 133.640625 L 124.549412 133.710938 " transform="matrix(0.999666, 0, 0, 1, 0, 0)"/>
<path fill="none" stroke-width="2.136417" stroke-linecap="butt" stroke-linejoin="round" stroke="rgb(39.99939%, 39.99939%, 39.99939%)" stroke-opacity="1" stroke-miterlimit="10" d="M 126.21403 133.652344 L 126.21403 133.710938 " transform="matrix(0.999666, 0, 0, 1, 0, 0)"/>
<path fill="none" stroke-width="2.136417" stroke-linecap="butt" stroke-linejoin="round" stroke="rgb(39.99939%, 39.99939%, 39.99939%)" stroke-opacity="1" stroke-miterlimit="10" d="M 127.870834 133.613281 L 127.870834 133.710938 " transform="matrix(0.999666, 0, 0, 1, 0, 0)"/>
<path fill="none" stroke-width="2.136417" stroke-linecap="butt" stroke-linejoin="round" stroke="rgb(39.99939%, 39.99939%, 39.99939%)" stroke-opacity="1" stroke-miterlimit="10" d="M 129.531545 100.59375 L 129.531545 133.710938 " transform="matrix(0.999666, 0, 0, 1, 0, 0)"/>
<path fill="none" stroke-width="2.136417" stroke-linecap="butt" stroke-linejoin="round" stroke="rgb(39.99939%, 39.99939%, 39.99939%)" stroke-opacity="1" stroke-miterlimit="10" d="M 131.192256 133.636719 L 131.192256 133.710938 " transform="matrix(0.999666, 0, 0, 1, 0, 0)"/>
<path fill="none" stroke-width="2.136417" stroke-linecap="butt" stroke-linejoin="round" stroke="rgb(39.99939%, 39.99939%, 39.99939%)" stroke-opacity="1" stroke-miterlimit="10" d="M 132.849059 133.628906 L 132.849059 133.710938 " transform="matrix(0.999666, 0, 0, 1, 0, 0)"/>
<path fill="none" stroke-width="2.136417" stroke-linecap="butt" stroke-linejoin="round" stroke="rgb(39.99939%, 39.99939%, 39.99939%)" stroke-opacity="1" stroke-miterlimit="10" d="M 134.505862 133.695312 L 134.505862 133.710938 " transform="matrix(0.999666, 0, 0, 1, 0, 0)"/>
<path fill="none" stroke-width="2.136417" stroke-linecap="butt" stroke-linejoin="round" stroke="rgb(39.99939%, 39.99939%, 39.99939%)" stroke-opacity="1" stroke-miterlimit="10" d="M 136.170481 133.628906 L 136.170481 133.710938 " transform="matrix(0.999666, 0, 0, 1, 0, 0)"/>
<path fill="none" stroke-width="2.136417" stroke-linecap="butt" stroke-linejoin="round" stroke="rgb(39.99939%, 39.99939%, 39.99939%)" stroke-opacity="1" stroke-miterlimit="10" d="M 137.827284 133.660156 L 137.827284 133.710938 " transform="matrix(0.999666, 0, 0, 1, 0, 0)"/>
<path fill="none" stroke-width="2.136417" stroke-linecap="butt" stroke-linejoin="round" stroke="rgb(39.99939%, 39.99939%, 39.99939%)" stroke-opacity="1" stroke-miterlimit="10" d="M 139.487995 133.628906 L 139.487995 133.710938 " transform="matrix(0.999666, 0, 0, 1, 0, 0)"/>
<path fill="none" stroke-width="2.136417" stroke-linecap="butt" stroke-linejoin="round" stroke="rgb(39.99939%, 39.99939%, 39.99939%)" stroke-opacity="1" stroke-miterlimit="10" d="M 141.148706 133.632812 L 141.148706 133.710938 " transform="matrix(0.999666, 0, 0, 1, 0, 0)"/>
<path fill="none" stroke-width="2.136417" stroke-linecap="butt" stroke-linejoin="round" stroke="rgb(39.99939%, 39.99939%, 39.99939%)" stroke-opacity="1" stroke-miterlimit="10" d="M 142.80551 133.625 L 142.80551 133.710938 " transform="matrix(0.999666, 0, 0, 1, 0, 0)"/>
<path fill="none" stroke-width="2.136417" stroke-linecap="butt" stroke-linejoin="round" stroke="rgb(39.99939%, 39.99939%, 39.99939%)" stroke-opacity="1" stroke-miterlimit="10" d="M 144.462313 133.644531 L 144.462313 133.710938 " transform="matrix(0.999666, 0, 0, 1, 0, 0)"/>
<path fill="none" stroke-width="2.136417" stroke-linecap="butt" stroke-linejoin="round" stroke="rgb(39.99939%, 39.99939%, 39.99939%)" stroke-opacity="1" stroke-miterlimit="10" d="M 146.123024 133.664062 L 146.123024 133.710938 " transform="matrix(0.999666, 0, 0, 1, 0, 0)"/>
<path fill="none" stroke-width="2.136417" stroke-linecap="butt" stroke-linejoin="round" stroke="rgb(39.99939%, 39.99939%, 39.99939%)" stroke-opacity="1" stroke-miterlimit="10" d="M 147.783735 133.691406 L 147.783735 133.710938 " transform="matrix(0.999666, 0, 0, 1, 0, 0)"/>
<path fill="none" stroke-width="2.136417" stroke-linecap="butt" stroke-linejoin="round" stroke="rgb(39.99939%, 39.99939%, 39.99939%)" stroke-opacity="1" stroke-miterlimit="10" d="M 149.444446 133.628906 L 149.444446 133.710938 " transform="matrix(0.999666, 0, 0, 1, 0, 0)"/>
<path fill="none" stroke-width="2.136417" stroke-linecap="butt" stroke-linejoin="round" stroke="rgb(39.99939%, 39.99939%, 39.99939%)" stroke-opacity="1" stroke-miterlimit="10" d="M 151.101249 133.621094 L 151.101249 133.710938 " transform="matrix(0.999666, 0, 0, 1, 0, 0)"/>
<path fill="none" stroke-width="2.136417" stroke-linecap="butt" stroke-linejoin="round" stroke="rgb(39.99939%, 39.99939%, 39.99939%)" stroke-opacity="1" stroke-miterlimit="10" d="M 152.76196 133.632812 L 152.76196 133.710938 " transform="matrix(0.999666, 0, 0, 1, 0, 0)"/>
<path fill="none" stroke-width="2.136417" stroke-linecap="butt" stroke-linejoin="round" stroke="rgb(39.99939%, 39.99939%, 39.99939%)" stroke-opacity="1" stroke-miterlimit="10" d="M 154.422671 133.632812 L 154.422671 133.710938 " transform="matrix(0.999666, 0, 0, 1, 0, 0)"/>
<path fill="none" stroke-width="2.136417" stroke-linecap="butt" stroke-linejoin="round" stroke="rgb(39.99939%, 39.99939%, 39.99939%)" stroke-opacity="1" stroke-miterlimit="10" d="M 156.079474 133.550781 L 156.079474 133.710938 " transform="matrix(0.999666, 0, 0, 1, 0, 0)"/>
<path fill="none" stroke-width="2.136417" stroke-linecap="butt" stroke-linejoin="round" stroke="rgb(39.99939%, 39.99939%, 39.99939%)" stroke-opacity="1" stroke-miterlimit="10" d="M 157.740185 133.601562 L 157.740185 133.710938 " transform="matrix(0.999666, 0, 0, 1, 0, 0)"/>
<path fill="none" stroke-width="2.136417" stroke-linecap="butt" stroke-linejoin="round" stroke="rgb(39.99939%, 39.99939%, 39.99939%)" stroke-opacity="1" stroke-miterlimit="10" d="M 159.400896 133.515625 L 159.400896 133.710938 " transform="matrix(0.999666, 0, 0, 1, 0, 0)"/>
<path fill="none" stroke-width="2.136417" stroke-linecap="butt" stroke-linejoin="round" stroke="rgb(39.99939%, 39.99939%, 39.99939%)" stroke-opacity="1" stroke-miterlimit="10" d="M 161.0577 133.605469 L 161.0577 133.710938 " transform="matrix(0.999666, 0, 0, 1, 0, 0)"/>
<path fill="none" stroke-width="2.136417" stroke-linecap="butt" stroke-linejoin="round" stroke="rgb(39.99939%, 39.99939%, 39.99939%)" stroke-opacity="1" stroke-miterlimit="10" d="M 162.71841 133.523438 L 162.71841 133.710938 " transform="matrix(0.999666, 0, 0, 1, 0, 0)"/>
<path fill="none" stroke-width="2.136417" stroke-linecap="butt" stroke-linejoin="round" stroke="rgb(39.99939%, 39.99939%, 39.99939%)" stroke-opacity="1" stroke-miterlimit="10" d="M 164.379121 133.519531 L 164.379121 133.710938 " transform="matrix(0.999666, 0, 0, 1, 0, 0)"/>
<path fill="none" stroke-width="2.136417" stroke-linecap="butt" stroke-linejoin="round" stroke="rgb(39.99939%, 39.99939%, 39.99939%)" stroke-opacity="1" stroke-miterlimit="10" d="M 166.035925 133.550781 L 166.035925 133.710938 " transform="matrix(0.999666, 0, 0, 1, 0, 0)"/>
<path fill="none" stroke-width="2.136417" stroke-linecap="butt" stroke-linejoin="round" stroke="rgb(39.99939%, 39.99939%, 39.99939%)" stroke-opacity="1" stroke-miterlimit="10" d="M 167.696636 133.523438 L 167.696636 133.710938 " transform="matrix(0.999666, 0, 0, 1, 0, 0)"/>
<path fill="none" stroke-width="2.136417" stroke-linecap="butt" stroke-linejoin="round" stroke="rgb(39.99939%, 39.99939%, 39.99939%)" stroke-opacity="1" stroke-miterlimit="10" d="M 169.357347 133.511719 L 169.357347 133.710938 " transform="matrix(0.999666, 0, 0, 1, 0, 0)"/>
<path fill="none" stroke-width="2.136417" stroke-linecap="butt" stroke-linejoin="round" stroke="rgb(39.99939%, 39.99939%, 39.99939%)" stroke-opacity="1" stroke-miterlimit="10" d="M 171.01415 133.53125 L 171.01415 133.710938 " transform="matrix(0.999666, 0, 0, 1, 0, 0)"/>
<path fill="none" stroke-width="2.136417" stroke-linecap="butt" stroke-linejoin="round" stroke="rgb(39.99939%, 39.99939%, 39.99939%)" stroke-opacity="1" stroke-miterlimit="10" d="M 172.674861 20.285156 L 172.674861 133.710938 " transform="matrix(0.999666, 0, 0, 1, 0, 0)"/>
<path fill="none" stroke-width="2.136417" stroke-linecap="butt" stroke-linejoin="round" stroke="rgb(39.99939%, 39.99939%, 39.99939%)" stroke-opacity="1" stroke-miterlimit="10" d="M 174.335572 133.515625 L 174.335572 133.710938 " transform="matrix(0.999666, 0, 0, 1, 0, 0)"/>
<path fill="none" stroke-width="2.136417" stroke-linecap="butt" stroke-linejoin="round" stroke="rgb(39.99939%, 39.99939%, 39.99939%)" stroke-opacity="1" stroke-miterlimit="10" d="M 175.992375 133.507812 L 175.992375 133.710938 " transform="matrix(0.999666, 0, 0, 1, 0, 0)"/>
<path fill="none" stroke-width="2.136417" stroke-linecap="butt" stroke-linejoin="round" stroke="rgb(39.99939%, 39.99939%, 39.99939%)" stroke-opacity="1" stroke-miterlimit="10" d="M 177.656994 133.53125 L 177.656994 133.710938 " transform="matrix(0.999666, 0, 0, 1, 0, 0)"/>
<path fill="none" stroke-width="2.136417" stroke-linecap="butt" stroke-linejoin="round" stroke="rgb(39.99939%, 39.99939%, 39.99939%)" stroke-opacity="1" stroke-miterlimit="10" d="M 179.313797 133.53125 L 179.313797 133.710938 " transform="matrix(0.999666, 0, 0, 1, 0, 0)"/>
<path fill="none" stroke-width="2.136417" stroke-linecap="butt" stroke-linejoin="round" stroke="rgb(39.99939%, 39.99939%, 39.99939%)" stroke-opacity="1" stroke-miterlimit="10" d="M 180.9706 133.53125 L 180.9706 133.710938 " transform="matrix(0.999666, 0, 0, 1, 0, 0)"/>
<path fill="none" stroke-width="2.136417" stroke-linecap="butt" stroke-linejoin="round" stroke="rgb(39.99939%, 39.99939%, 39.99939%)" stroke-opacity="1" stroke-miterlimit="10" d="M 182.631311 133.539062 L 182.631311 133.710938 " transform="matrix(0.999666, 0, 0, 1, 0, 0)"/>
<path fill="none" stroke-width="2.136417" stroke-linecap="butt" stroke-linejoin="round" stroke="rgb(39.99939%, 39.99939%, 39.99939%)" stroke-opacity="1" stroke-miterlimit="10" d="M 184.292022 133.539062 L 184.292022 133.710938 " transform="matrix(0.999666, 0, 0, 1, 0, 0)"/>
<path fill="none" stroke-width="2.136417" stroke-linecap="butt" stroke-linejoin="round" stroke="rgb(39.99939%, 39.99939%, 39.99939%)" stroke-opacity="1" stroke-miterlimit="10" d="M 185.948826 133.519531 L 185.948826 133.710938 " transform="matrix(0.999666, 0, 0, 1, 0, 0)"/>
<path fill="none" stroke-width="2.136417" stroke-linecap="butt" stroke-linejoin="round" stroke="rgb(39.99939%, 39.99939%, 39.99939%)" stroke-opacity="1" stroke-miterlimit="10" d="M 187.613444 133.53125 L 187.613444 133.710938 " transform="matrix(0.999666, 0, 0, 1, 0, 0)"/>
<path fill="none" stroke-width="2.136417" stroke-linecap="butt" stroke-linejoin="round" stroke="rgb(39.99939%, 39.99939%, 39.99939%)" stroke-opacity="1" stroke-miterlimit="10" d="M 189.270248 132.996094 L 189.270248 133.710938 " transform="matrix(0.999666, 0, 0, 1, 0, 0)"/>
<path fill="none" stroke-width="2.136417" stroke-linecap="butt" stroke-linejoin="round" stroke="rgb(39.99939%, 39.99939%, 39.99939%)" stroke-opacity="1" stroke-miterlimit="10" d="M 190.927051 7.011719 L 190.927051 133.710938 " transform="matrix(0.999666, 0, 0, 1, 0, 0)"/>
<path fill="none" stroke-width="2.136417" stroke-linecap="butt" stroke-linejoin="round" stroke="rgb(39.99939%, 39.99939%, 39.99939%)" stroke-opacity="1" stroke-miterlimit="10" d="M 192.587762 132.882812 L 192.587762 133.710938 " transform="matrix(0.999666, 0, 0, 1, 0, 0)"/>
<path fill="none" stroke-width="2.136417" stroke-linecap="butt" stroke-linejoin="round" stroke="rgb(39.99939%, 39.99939%, 39.99939%)" stroke-opacity="1" stroke-miterlimit="10" d="M 194.248473 133.101562 L 194.248473 133.710938 " transform="matrix(0.999666, 0, 0, 1, 0, 0)"/>
<path fill="none" stroke-width="2.136417" stroke-linecap="butt" stroke-linejoin="round" stroke="rgb(39.99939%, 39.99939%, 39.99939%)" stroke-opacity="1" stroke-miterlimit="10" d="M 195.905276 132.964844 L 195.905276 133.710938 " transform="matrix(0.999666, 0, 0, 1, 0, 0)"/>
<path fill="none" stroke-width="2.136417" stroke-linecap="butt" stroke-linejoin="round" stroke="rgb(39.99939%, 39.99939%, 39.99939%)" stroke-opacity="1" stroke-miterlimit="10" d="M 197.565987 132.941406 L 197.565987 133.710938 " transform="matrix(0.999666, 0, 0, 1, 0, 0)"/>
<path fill="none" stroke-width="2.136417" stroke-linecap="butt" stroke-linejoin="round" stroke="rgb(39.99939%, 39.99939%, 39.99939%)" stroke-opacity="1" stroke-miterlimit="10" d="M 199.226698 132.929688 L 199.226698 133.710938 " transform="matrix(0.999666, 0, 0, 1, 0, 0)"/>
<path fill="none" stroke-width="2.136417" stroke-linecap="butt" stroke-linejoin="round" stroke="rgb(39.99939%, 39.99939%, 39.99939%)" stroke-opacity="1" stroke-miterlimit="10" d="M 200.883501 133.0625 L 200.883501 133.710938 " transform="matrix(0.999666, 0, 0, 1, 0, 0)"/>
<path fill="none" stroke-width="2.136417" stroke-linecap="butt" stroke-linejoin="round" stroke="rgb(39.99939%, 39.99939%, 39.99939%)" stroke-opacity="1" stroke-miterlimit="10" d="M 202.544212 133.550781 L 202.544212 133.710938 " transform="matrix(0.999666, 0, 0, 1, 0, 0)"/>
<path fill="none" stroke-width="2.136417" stroke-linecap="butt" stroke-linejoin="round" stroke="rgb(39.99939%, 39.99939%, 39.99939%)" stroke-opacity="1" stroke-miterlimit="10" d="M 204.204923 132.988281 L 204.204923 133.710938 " transform="matrix(0.999666, 0, 0, 1, 0, 0)"/>
<path fill="none" stroke-width="2.136417" stroke-linecap="butt" stroke-linejoin="round" stroke="rgb(39.99939%, 39.99939%, 39.99939%)" stroke-opacity="1" stroke-miterlimit="10" d="M 205.865634 133.519531 L 205.865634 133.710938 " transform="matrix(0.999666, 0, 0, 1, 0, 0)"/>
<path fill="none" stroke-width="2.136417" stroke-linecap="butt" stroke-linejoin="round" stroke="rgb(39.99939%, 39.99939%, 39.99939%)" stroke-opacity="1" stroke-miterlimit="10" d="M 207.522437 132.90625 L 207.522437 133.710938 " transform="matrix(0.999666, 0, 0, 1, 0, 0)"/>
<path fill="none" stroke-width="2.136417" stroke-linecap="butt" stroke-linejoin="round" stroke="rgb(39.99939%, 39.99939%, 39.99939%)" stroke-opacity="1" stroke-miterlimit="10" d="M 209.183148 132.984375 L 209.183148 133.710938 " transform="matrix(0.999666, 0, 0, 1, 0, 0)"/>
<path fill="none" stroke-width="2.136417" stroke-linecap="butt" stroke-linejoin="round" stroke="rgb(39.99939%, 39.99939%, 39.99939%)" stroke-opacity="1" stroke-miterlimit="10" d="M 210.839952 133.035156 L 210.839952 133.710938 " transform="matrix(0.999666, 0, 0, 1, 0, 0)"/>
<path fill="none" stroke-width="2.136417" stroke-linecap="butt" stroke-linejoin="round" stroke="rgb(39.99939%, 39.99939%, 39.99939%)" stroke-opacity="1" stroke-miterlimit="10" d="M 212.500663 133 L 212.500663 133.710938 " transform="matrix(0.999666, 0, 0, 1, 0, 0)"/>
<path fill="none" stroke-width="2.136417" stroke-linecap="butt" stroke-linejoin="round" stroke="rgb(39.99939%, 39.99939%, 39.99939%)" stroke-opacity="1" stroke-miterlimit="10" d="M 214.161374 133.222656 L 214.161374 133.710938 " transform="matrix(0.999666, 0, 0, 1, 0, 0)"/>
<path fill="none" stroke-width="2.136417" stroke-linecap="butt" stroke-linejoin="round" stroke="rgb(39.99939%, 39.99939%, 39.99939%)" stroke-opacity="1" stroke-miterlimit="10" d="M 215.822085 133.160156 L 215.822085 133.710938 " transform="matrix(0.999666, 0, 0, 1, 0, 0)"/>
<path fill="none" stroke-width="2.136417" stroke-linecap="butt" stroke-linejoin="round" stroke="rgb(39.99939%, 39.99939%, 39.99939%)" stroke-opacity="1" stroke-miterlimit="10" d="M 217.478888 133.175781 L 217.478888 133.710938 " transform="matrix(0.999666, 0, 0, 1, 0, 0)"/>
<path fill="none" stroke-width="2.136417" stroke-linecap="butt" stroke-linejoin="round" stroke="rgb(39.99939%, 39.99939%, 39.99939%)" stroke-opacity="1" stroke-miterlimit="10" d="M 219.139599 133.058594 L 219.139599 133.710938 " transform="matrix(0.999666, 0, 0, 1, 0, 0)"/>
<path fill="none" stroke-width="2.136417" stroke-linecap="butt" stroke-linejoin="round" stroke="rgb(39.99939%, 39.99939%, 39.99939%)" stroke-opacity="1" stroke-miterlimit="10" d="M 220.80031 132.875 L 220.80031 133.710938 " transform="matrix(0.999666, 0, 0, 1, 0, 0)"/>
<g fill="rgb(69.802856%, 13.33313%, 13.33313%)" fill-opacity="1">
<use xlink:href="#glyph-0-0" x="211.017725" y="114.006084"/>
</g>
<path fill="none" stroke-width="0.750863" stroke-linecap="round" stroke-linejoin="round" stroke="rgb(69.802856%, 13.33313%, 13.33313%)" stroke-opacity="1" stroke-miterlimit="10" d="M 217.197544 115.515625 L 219.913295 105.378906 " transform="matrix(0.999666, 0, 0, 1, 0, 0)"/>
<g fill="rgb(69.802856%, 13.33313%, 13.33313%)" fill-opacity="1">
<use xlink:href="#glyph-0-1" x="221.19791" y="114.006084"/>
</g>
<path fill="none" stroke-width="1.068208" stroke-linecap="round" stroke-linejoin="round" stroke="rgb(0%, 0%, 0%)" stroke-opacity="1" stroke-miterlimit="10" d="M 48.305196 0.671875 L 229.013991 0.671875 L 229.013991 140.046875 L 48.305196 140.046875 Z M 48.305196 0.671875 " transform="matrix(0.999666, 0, 0, 1, 0, 0)"/>
<g fill="rgb(30.195618%, 30.195618%, 30.195618%)" fill-opacity="1">
<use xlink:href="#glyph-1-0" x="28.415532" y="137.079492"/>
<use xlink:href="#glyph-1-1" x="32.868386" y="137.079492"/>
<use xlink:href="#glyph-1-0" x="35.092858" y="137.079492"/>
</g>
<g fill="rgb(30.195618%, 30.195618%, 30.195618%)" fill-opacity="1">
<use xlink:href="#glyph-1-0" x="28.415532" y="104.248775"/>
<use xlink:href="#glyph-1-1" x="32.868386" y="104.248775"/>
<use xlink:href="#glyph-1-2" x="35.092858" y="104.248775"/>
</g>
<g fill="rgb(30.195618%, 30.195618%, 30.195618%)" fill-opacity="1">
<use xlink:href="#glyph-1-0" x="28.415532" y="71.418058"/>
<use xlink:href="#glyph-1-1" x="32.868386" y="71.418058"/>
<use xlink:href="#glyph-1-3" x="35.092858" y="71.418058"/>
</g>
<g fill="rgb(30.195618%, 30.195618%, 30.195618%)" fill-opacity="1">
<use xlink:href="#glyph-1-0" x="28.415532" y="38.587342"/>
<use xlink:href="#glyph-1-1" x="32.868386" y="38.587342"/>
<use xlink:href="#glyph-1-4" x="35.092858" y="38.587342"/>
</g>
<g fill="rgb(30.195618%, 30.195618%, 30.195618%)" fill-opacity="1">
<use xlink:href="#glyph-1-0" x="28.415532" y="5.756625"/>
<use xlink:href="#glyph-1-1" x="32.868386" y="5.756625"/>
<use xlink:href="#glyph-1-5" x="35.092858" y="5.756625"/>
</g>
<path fill="none" stroke-width="1.068208" stroke-linecap="butt" stroke-linejoin="round" stroke="rgb(0%, 0%, 0%)" stroke-opacity="1" stroke-miterlimit="10" d="M 44.045961 133.710938 L 48.305196 133.710938 " transform="matrix(0.999666, 0, 0, 1, 0, 0)"/>
<path fill="none" stroke-width="1.068208" stroke-linecap="butt" stroke-linejoin="round" stroke="rgb(0%, 0%, 0%)" stroke-opacity="1" stroke-miterlimit="10" d="M 44.045961 100.882812 L 48.305196 100.882812 " transform="matrix(0.999666, 0, 0, 1, 0, 0)"/>
<path fill="none" stroke-width="1.068208" stroke-linecap="butt" stroke-linejoin="round" stroke="rgb(0%, 0%, 0%)" stroke-opacity="1" stroke-miterlimit="10" d="M 44.045961 68.050781 L 48.305196 68.050781 " transform="matrix(0.999666, 0, 0, 1, 0, 0)"/>
<path fill="none" stroke-width="1.068208" stroke-linecap="butt" stroke-linejoin="round" stroke="rgb(0%, 0%, 0%)" stroke-opacity="1" stroke-miterlimit="10" d="M 44.045961 35.21875 L 48.305196 35.21875 " transform="matrix(0.999666, 0, 0, 1, 0, 0)"/>
<path fill="none" stroke-width="1.068208" stroke-linecap="butt" stroke-linejoin="round" stroke="rgb(0%, 0%, 0%)" stroke-opacity="1" stroke-miterlimit="10" d="M 44.045961 2.390625 L 48.305196 2.390625 " transform="matrix(0.999666, 0, 0, 1, 0, 0)"/>
<path fill="none" stroke-width="1.068208" stroke-linecap="butt" stroke-linejoin="round" stroke="rgb(0%, 0%, 0%)" stroke-opacity="1" stroke-miterlimit="10" d="M 54.858166 144.304688 L 54.858166 140.046875 " transform="matrix(0.999666, 0, 0, 1, 0, 0)"/>
<path fill="none" stroke-width="1.068208" stroke-linecap="butt" stroke-linejoin="round" stroke="rgb(0%, 0%, 0%)" stroke-opacity="1" stroke-miterlimit="10" d="M 96.344679 144.304688 L 96.344679 140.046875 " transform="matrix(0.999666, 0, 0, 1, 0, 0)"/>
<path fill="none" stroke-width="1.068208" stroke-linecap="butt" stroke-linejoin="round" stroke="rgb(0%, 0%, 0%)" stroke-opacity="1" stroke-miterlimit="10" d="M 137.827284 144.304688 L 137.827284 140.046875 " transform="matrix(0.999666, 0, 0, 1, 0, 0)"/>
<path fill="none" stroke-width="1.068208" stroke-linecap="butt" stroke-linejoin="round" stroke="rgb(0%, 0%, 0%)" stroke-opacity="1" stroke-miterlimit="10" d="M 179.313797 144.304688 L 179.313797 140.046875 " transform="matrix(0.999666, 0, 0, 1, 0, 0)"/>
<path fill="none" stroke-width="1.068208" stroke-linecap="butt" stroke-linejoin="round" stroke="rgb(0%, 0%, 0%)" stroke-opacity="1" stroke-miterlimit="10" d="M 220.80031 144.304688 L 220.80031 140.046875 " transform="matrix(0.999666, 0, 0, 1, 0, 0)"/>
<g fill="rgb(30.195618%, 30.195618%, 30.195618%)" fill-opacity="1">
<use xlink:href="#glyph-1-0" x="52.611065" y="155.526486"/>
</g>
<g fill="rgb(30.195618%, 30.195618%, 30.195618%)" fill-opacity="1">
<use xlink:href="#glyph-1-3" x="91.860324" y="155.526486"/>
<use xlink:href="#glyph-1-6" x="96.313178" y="155.526486"/>
</g>
<g fill="rgb(30.195618%, 30.195618%, 30.195618%)" fill-opacity="1">
<use xlink:href="#glyph-1-6" x="133.328614" y="155.526486"/>
<use xlink:href="#glyph-1-0" x="137.781467" y="155.526486"/>
</g>
<g fill="rgb(30.195618%, 30.195618%, 30.195618%)" fill-opacity="1">
<use xlink:href="#glyph-1-7" x="174.800652" y="155.526486"/>
<use xlink:href="#glyph-1-6" x="179.253506" y="155.526486"/>
</g>
<g fill="rgb(30.195618%, 30.195618%, 30.195618%)" fill-opacity="1">
<use xlink:href="#glyph-1-2" x="214.051131" y="155.526486"/>
<use xlink:href="#glyph-1-0" x="218.503985" y="155.526486"/>
<use xlink:href="#glyph-1-0" x="222.956839" y="155.526486"/>
</g>
<g fill="rgb(0%, 0%, 0%)" fill-opacity="1">
<use xlink:href="#glyph-2-0" x="97.999681" y="168.877775"/>
<use xlink:href="#glyph-2-1" x="105.784356" y="168.877775"/>
<use xlink:href="#glyph-2-2" x="111.350423" y="168.877775"/>
<use xlink:href="#glyph-2-3" x="116.354508" y="168.877775"/>
<use xlink:href="#glyph-2-4" x="121.920576" y="168.877775"/>
<use xlink:href="#glyph-2-5" x="125.253374" y="168.877775"/>
<use xlink:href="#glyph-2-6" x="130.257459" y="168.877775"/>
<use xlink:href="#glyph-2-7" x="135.823527" y="168.877775"/>
<use xlink:href="#glyph-2-8" x="138.604117" y="168.877775"/>
<use xlink:href="#glyph-2-9" x="140.827612" y="168.877775"/>
<use xlink:href="#glyph-2-10" x="146.393679" y="168.877775"/>
<use xlink:href="#glyph-2-11" x="151.959746" y="168.877775"/>
<use xlink:href="#glyph-2-12" x="154.740336" y="168.877775"/>
<use xlink:href="#glyph-2-10" x="157.520926" y="168.877775"/>
<use xlink:href="#glyph-2-13" x="163.086994" y="168.877775"/>
<use xlink:href="#glyph-2-3" x="168.653061" y="168.877775"/>
<use xlink:href="#glyph-2-14" x="174.219128" y="168.877775"/>
</g>
<g fill="rgb(0%, 0%, 0%)" fill-opacity="1">
<use xlink:href="#glyph-3-0" x="22.813302" y="106.372311"/>
<use xlink:href="#glyph-3-1" x="22.813302" y="99.142318"/>
<use xlink:href="#glyph-3-1" x="22.813302" y="93.574393"/>
<use xlink:href="#glyph-3-2" x="22.813302" y="88.006468"/>
<use xlink:href="#glyph-3-3" x="22.813302" y="83.000712"/>
<use xlink:href="#glyph-3-4" x="22.813302" y="81.089335"/>
<use xlink:href="#glyph-3-5" x="22.813302" y="76.083579"/>
<use xlink:href="#glyph-3-6" x="22.813302" y="73.302061"/>
<use xlink:href="#glyph-3-7" x="22.813302" y="66.072068"/>
<use xlink:href="#glyph-3-4" x="22.813302" y="63.847831"/>
<use xlink:href="#glyph-3-8" x="22.813302" y="58.842076"/>
<use xlink:href="#glyph-3-9" x="22.813302" y="56.060557"/>
<use xlink:href="#glyph-3-10" x="22.813302" y="50.492632"/>
<use xlink:href="#glyph-3-11" x="22.813302" y="44.924707"/>
<use xlink:href="#glyph-3-12" x="22.813302" y="39.918951"/>
</g>
</svg>
