<?xml version="1.0" encoding="UTF-8"?>
<svg xmlns="http://www.w3.org/2000/svg" xmlns:xlink="http://www.w3.org/1999/xlink" width="245" height="169" viewBox="0 0 245 169">
<defs>
<g>
<g id="glyph-0-0">
<path d="M 0.5625 0 L 0.5625 -6.125 L 1.3125 -6.125 L 1.3125 -3.921875 C 1.664062 -4.328125 2.109375 -4.53125 2.640625 -4.53125 C 2.972656 -4.53125 3.257812 -4.460938 3.5 -4.328125 C 3.738281 -4.203125 3.910156 -4.023438 4.015625 -3.796875 C 4.117188 -3.566406 4.171875 -3.238281 4.171875 -2.8125 L 4.171875 0 L 3.421875 0 L 3.421875 -2.8125 C 3.421875 -3.1875 3.335938 -3.457031 3.171875 -3.625 C 3.015625 -3.800781 2.785156 -3.890625 2.484375 -3.890625 C 2.265625 -3.890625 2.054688 -3.828125 1.859375 -3.703125 C 1.660156 -3.585938 1.519531 -3.429688 1.4375 -3.234375 C 1.351562 -3.046875 1.3125 -2.773438 1.3125 -2.421875 L 1.3125 0 Z M 0.5625 0 "/>
</g>
<g id="glyph-0-1">
<path d="M 4.296875 -0.71875 L 4.296875 0 L 0.265625 0 C 0.253906 -0.175781 0.28125 -0.347656 0.34375 -0.515625 C 0.445312 -0.796875 0.613281 -1.066406 0.84375 -1.328125 C 1.070312 -1.597656 1.398438 -1.910156 1.828125 -2.265625 C 2.492188 -2.804688 2.941406 -3.234375 3.171875 -3.546875 C 3.398438 -3.867188 3.515625 -4.175781 3.515625 -4.46875 C 3.515625 -4.757812 3.410156 -5.003906 3.203125 -5.203125 C 2.992188 -5.410156 2.71875 -5.515625 2.375 -5.515625 C 2.007812 -5.515625 1.71875 -5.40625 1.5 -5.1875 C 1.28125 -4.976562 1.171875 -4.679688 1.171875 -4.296875 L 0.40625 -4.375 C 0.457031 -4.945312 0.65625 -5.382812 1 -5.6875 C 1.34375 -5.988281 1.804688 -6.140625 2.390625 -6.140625 C 2.972656 -6.140625 3.4375 -5.976562 3.78125 -5.65625 C 4.125 -5.332031 4.296875 -4.925781 4.296875 -4.4375 C 4.296875 -4.195312 4.242188 -3.957031 4.140625 -3.71875 C 4.046875 -3.488281 3.878906 -3.238281 3.640625 -2.96875 C 3.410156 -2.707031 3.023438 -2.351562 2.484375 -1.90625 C 2.035156 -1.519531 1.742188 -1.257812 1.609375 -1.125 C 1.484375 -0.988281 1.378906 -0.851562 1.296875 -0.71875 Z M 4.296875 -0.71875 "/>
</g>
<g id="glyph-1-0">
<path d="M 0.328125 -2.828125 C 0.328125 -3.503906 0.394531 -4.050781 0.53125 -4.46875 C 0.675781 -4.882812 0.882812 -5.203125 1.15625 -5.421875 C 1.4375 -5.648438 1.785156 -5.765625 2.203125 -5.765625 C 2.503906 -5.765625 2.769531 -5.703125 3 -5.578125 C 3.238281 -5.453125 3.429688 -5.269531 3.578125 -5.03125 C 3.734375 -4.800781 3.851562 -4.519531 3.9375 -4.1875 C 4.019531 -3.851562 4.0625 -3.398438 4.0625 -2.828125 C 4.0625 -2.148438 3.992188 -1.601562 3.859375 -1.1875 C 3.722656 -0.78125 3.515625 -0.460938 3.234375 -0.234375 C 2.960938 -0.015625 2.617188 0.09375 2.203125 0.09375 C 1.648438 0.09375 1.21875 -0.101562 0.90625 -0.5 C 0.519531 -0.976562 0.328125 -1.753906 0.328125 -2.828125 Z M 1.0625 -2.828125 C 1.0625 -1.890625 1.171875 -1.265625 1.390625 -0.953125 C 1.609375 -0.640625 1.878906 -0.484375 2.203125 -0.484375 C 2.523438 -0.484375 2.796875 -0.640625 3.015625 -0.953125 C 3.234375 -1.265625 3.34375 -1.890625 3.34375 -2.828125 C 3.34375 -3.773438 3.234375 -4.398438 3.015625 -4.703125 C 2.796875 -5.015625 2.519531 -5.171875 2.1875 -5.171875 C 1.863281 -5.171875 1.609375 -5.035156 1.421875 -4.765625 C 1.179688 -4.421875 1.0625 -3.773438 1.0625 -2.828125 Z M 1.0625 -2.828125 "/>
</g>
<g id="glyph-1-1">
<path d="M 0.734375 0 L 0.734375 -0.796875 L 1.53125 -0.796875 L 1.53125 0 Z M 0.734375 0 "/>
</g>
<g id="glyph-1-2">
<path d="M 4.03125 -0.671875 L 4.03125 0 L 0.25 0 C 0.238281 -0.164062 0.265625 -0.328125 0.328125 -0.484375 C 0.421875 -0.742188 0.570312 -1 0.78125 -1.25 C 1 -1.5 1.304688 -1.789062 1.703125 -2.125 C 2.328125 -2.632812 2.75 -3.035156 2.96875 -3.328125 C 3.1875 -3.628906 3.296875 -3.914062 3.296875 -4.1875 C 3.296875 -4.46875 3.195312 -4.703125 3 -4.890625 C 2.800781 -5.078125 2.539062 -5.171875 2.21875 -5.171875 C 1.882812 -5.171875 1.613281 -5.066406 1.40625 -4.859375 C 1.207031 -4.660156 1.101562 -4.382812 1.09375 -4.03125 L 0.375 -4.109375 C 0.425781 -4.640625 0.613281 -5.046875 0.9375 -5.328125 C 1.257812 -5.617188 1.691406 -5.765625 2.234375 -5.765625 C 2.785156 -5.765625 3.21875 -5.609375 3.53125 -5.296875 C 3.851562 -4.992188 4.015625 -4.617188 4.015625 -4.171875 C 4.015625 -3.941406 3.96875 -3.710938 3.875 -3.484375 C 3.78125 -3.265625 3.625 -3.03125 3.40625 -2.78125 C 3.195312 -2.539062 2.835938 -2.207031 2.328125 -1.78125 C 1.910156 -1.425781 1.640625 -1.1875 1.515625 -1.0625 C 1.398438 -0.9375 1.300781 -0.804688 1.21875 -0.671875 Z M 4.03125 -0.671875 "/>
</g>
<g id="glyph-1-3">
<path d="M 0.328125 -1.5 L 1.078125 -1.5625 C 1.128906 -1.207031 1.253906 -0.9375 1.453125 -0.75 C 1.648438 -0.570312 1.890625 -0.484375 2.171875 -0.484375 C 2.515625 -0.484375 2.800781 -0.609375 3.03125 -0.859375 C 3.269531 -1.117188 3.390625 -1.457031 3.390625 -1.875 C 3.390625 -2.28125 3.273438 -2.597656 3.046875 -2.828125 C 2.816406 -3.066406 2.519531 -3.1875 2.15625 -3.1875 C 1.9375 -3.1875 1.734375 -3.132812 1.546875 -3.03125 C 1.367188 -2.925781 1.226562 -2.789062 1.125 -2.625 L 0.453125 -2.71875 L 1.015625 -5.65625 L 3.859375 -5.65625 L 3.859375 -4.984375 L 1.578125 -4.984375 L 1.265625 -3.4375 C 1.609375 -3.675781 1.96875 -3.796875 2.34375 -3.796875 C 2.84375 -3.796875 3.265625 -3.625 3.609375 -3.28125 C 3.953125 -2.9375 4.125 -2.488281 4.125 -1.9375 C 4.125 -1.425781 3.972656 -0.976562 3.671875 -0.59375 C 3.304688 -0.132812 2.804688 0.09375 2.171875 0.09375 C 1.648438 0.09375 1.222656 -0.0507812 0.890625 -0.34375 C 0.566406 -0.632812 0.378906 -1.019531 0.328125 -1.5 Z M 0.328125 -1.5 "/>
</g>
<g id="glyph-1-4">
<path d="M 0.375 -4.984375 L 0.375 -5.65625 L 4.09375 -5.65625 L 4.09375 -5.109375 C 3.726562 -4.722656 3.363281 -4.207031 3 -3.5625 C 2.644531 -2.914062 2.367188 -2.253906 2.171875 -1.578125 C 2.035156 -1.097656 1.945312 -0.570312 1.90625 0 L 1.1875 0 C 1.1875 -0.445312 1.269531 -0.988281 1.4375 -1.625 C 1.613281 -2.269531 1.859375 -2.890625 2.171875 -3.484375 C 2.492188 -4.078125 2.832031 -4.578125 3.1875 -4.984375 Z M 0.375 -4.984375 "/>
</g>
<g id="glyph-1-5">
<path d="M 2.984375 0 L 2.28125 0 L 2.28125 -4.484375 C 2.113281 -4.328125 1.890625 -4.164062 1.609375 -4 C 1.335938 -3.84375 1.09375 -3.722656 0.875 -3.640625 L 0.875 -4.328125 C 1.269531 -4.503906 1.613281 -4.722656 1.90625 -4.984375 C 2.195312 -5.253906 2.40625 -5.515625 2.53125 -5.765625 L 2.984375 -5.765625 Z M 2.984375 0 "/>
</g>
<g id="glyph-2-0">
<path d="M 5.890625 -2.515625 L 6.84375 -2.28125 C 6.632812 -1.5 6.269531 -0.898438 5.75 -0.484375 C 5.238281 -0.078125 4.613281 0.125 3.875 0.125 C 3.09375 0.125 2.457031 -0.03125 1.96875 -0.34375 C 1.488281 -0.664062 1.125 -1.125 0.875 -1.71875 C 0.625 -2.3125 0.5 -2.953125 0.5 -3.640625 C 0.5 -4.390625 0.640625 -5.039062 0.921875 -5.59375 C 1.210938 -6.144531 1.617188 -6.566406 2.140625 -6.859375 C 2.671875 -7.148438 3.253906 -7.296875 3.890625 -7.296875 C 4.597656 -7.296875 5.195312 -7.113281 5.6875 -6.75 C 6.175781 -6.382812 6.519531 -5.867188 6.71875 -5.203125 L 5.78125 -4.984375 C 5.613281 -5.503906 5.367188 -5.882812 5.046875 -6.125 C 4.734375 -6.363281 4.335938 -6.484375 3.859375 -6.484375 C 3.304688 -6.484375 2.84375 -6.347656 2.46875 -6.078125 C 2.101562 -5.816406 1.847656 -5.460938 1.703125 -5.015625 C 1.554688 -4.578125 1.484375 -4.117188 1.484375 -3.640625 C 1.484375 -3.035156 1.570312 -2.503906 1.75 -2.046875 C 1.925781 -1.585938 2.203125 -1.242188 2.578125 -1.015625 C 2.953125 -0.796875 3.359375 -0.6875 3.796875 -0.6875 C 4.328125 -0.6875 4.773438 -0.835938 5.140625 -1.140625 C 5.503906 -1.453125 5.753906 -1.910156 5.890625 -2.515625 Z M 5.890625 -2.515625 "/>
</g>
<g id="glyph-2-1">
<path d="M 0.328125 -2.59375 C 0.328125 -3.5625 0.597656 -4.273438 1.140625 -4.734375 C 1.578125 -5.117188 2.117188 -5.3125 2.765625 -5.3125 C 3.484375 -5.3125 4.066406 -5.078125 4.515625 -4.609375 C 4.972656 -4.140625 5.203125 -3.492188 5.203125 -2.671875 C 5.203125 -2.003906 5.097656 -1.476562 4.890625 -1.09375 C 4.691406 -0.707031 4.398438 -0.40625 4.015625 -0.1875 C 3.640625 0.0195312 3.222656 0.125 2.765625 0.125 C 2.035156 0.125 1.445312 -0.109375 1 -0.578125 C 0.550781 -1.046875 0.328125 -1.71875 0.328125 -2.59375 Z M 1.234375 -2.59375 C 1.234375 -1.925781 1.378906 -1.425781 1.671875 -1.09375 C 1.960938 -0.769531 2.328125 -0.609375 2.765625 -0.609375 C 3.203125 -0.609375 3.566406 -0.773438 3.859375 -1.109375 C 4.148438 -1.441406 4.296875 -1.945312 4.296875 -2.625 C 4.296875 -3.269531 4.148438 -3.753906 3.859375 -4.078125 C 3.566406 -4.410156 3.203125 -4.578125 2.765625 -4.578125 C 2.328125 -4.578125 1.960938 -4.410156 1.671875 -4.078125 C 1.378906 -3.753906 1.234375 -3.257812 1.234375 -2.59375 Z M 1.234375 -2.59375 "/>
</g>
<g id="glyph-2-2">
<path d="M 0.65625 0 L 0.65625 -5.1875 L 1.453125 -5.1875 L 1.453125 -4.453125 C 1.835938 -5.023438 2.390625 -5.3125 3.109375 -5.3125 C 3.421875 -5.3125 3.707031 -5.253906 3.96875 -5.140625 C 4.226562 -5.023438 4.421875 -4.875 4.546875 -4.6875 C 4.679688 -4.507812 4.773438 -4.296875 4.828125 -4.046875 C 4.859375 -3.890625 4.875 -3.601562 4.875 -3.1875 L 4.875 0 L 4 0 L 4 -3.15625 C 4 -3.519531 3.960938 -3.789062 3.890625 -3.96875 C 3.828125 -4.144531 3.707031 -4.285156 3.53125 -4.390625 C 3.351562 -4.492188 3.148438 -4.546875 2.921875 -4.546875 C 2.546875 -4.546875 2.222656 -4.425781 1.953125 -4.1875 C 1.679688 -3.945312 1.546875 -3.5 1.546875 -2.84375 L 1.546875 0 Z M 0.65625 0 "/>
</g>
<g id="glyph-2-3">
<path d="M 4.046875 -1.90625 L 4.921875 -1.796875 C 4.816406 -1.191406 4.570312 -0.71875 4.1875 -0.375 C 3.800781 -0.0390625 3.320312 0.125 2.75 0.125 C 2.039062 0.125 1.46875 -0.109375 1.03125 -0.578125 C 0.601562 -1.046875 0.390625 -1.710938 0.390625 -2.578125 C 0.390625 -3.140625 0.484375 -3.628906 0.671875 -4.046875 C 0.859375 -4.472656 1.140625 -4.789062 1.515625 -5 C 1.898438 -5.207031 2.316406 -5.3125 2.765625 -5.3125 C 3.328125 -5.3125 3.785156 -5.164062 4.140625 -4.875 C 4.503906 -4.59375 4.734375 -4.191406 4.828125 -3.671875 L 3.96875 -3.53125 C 3.894531 -3.882812 3.753906 -4.148438 3.546875 -4.328125 C 3.335938 -4.503906 3.085938 -4.59375 2.796875 -4.59375 C 2.347656 -4.59375 1.984375 -4.429688 1.703125 -4.109375 C 1.429688 -3.796875 1.296875 -3.296875 1.296875 -2.609375 C 1.296875 -1.910156 1.425781 -1.398438 1.6875 -1.078125 C 1.957031 -0.765625 2.3125 -0.609375 2.75 -0.609375 C 3.09375 -0.609375 3.378906 -0.710938 3.609375 -0.921875 C 3.835938 -1.128906 3.984375 -1.457031 4.046875 -1.90625 Z M 4.046875 -1.90625 "/>
</g>
<g id="glyph-2-4">
<path d="M 4.21875 -1.671875 L 5.125 -1.5625 C 4.976562 -1.03125 4.710938 -0.613281 4.328125 -0.3125 C 3.941406 -0.0195312 3.445312 0.125 2.84375 0.125 C 2.082031 0.125 1.476562 -0.109375 1.03125 -0.578125 C 0.582031 -1.046875 0.359375 -1.703125 0.359375 -2.546875 C 0.359375 -3.421875 0.582031 -4.097656 1.03125 -4.578125 C 1.488281 -5.066406 2.078125 -5.3125 2.796875 -5.3125 C 3.484375 -5.3125 4.046875 -5.070312 4.484375 -4.59375 C 4.929688 -4.125 5.15625 -3.460938 5.15625 -2.609375 C 5.15625 -2.554688 5.15625 -2.476562 5.15625 -2.375 L 1.28125 -2.375 C 1.3125 -1.800781 1.472656 -1.363281 1.765625 -1.0625 C 2.054688 -0.757812 2.414062 -0.609375 2.84375 -0.609375 C 3.164062 -0.609375 3.441406 -0.691406 3.671875 -0.859375 C 3.898438 -1.023438 4.082031 -1.296875 4.21875 -1.671875 Z M 1.328125 -3.09375 L 4.21875 -3.09375 C 4.1875 -3.53125 4.078125 -3.859375 3.890625 -4.078125 C 3.609375 -4.421875 3.242188 -4.59375 2.796875 -4.59375 C 2.398438 -4.59375 2.0625 -4.457031 1.78125 -4.1875 C 1.507812 -3.914062 1.359375 -3.550781 1.328125 -3.09375 Z M 1.328125 -3.09375 "/>
</g>
<g id="glyph-2-5">
<path d="M 2.578125 -0.78125 L 2.703125 -0.015625 C 2.460938 0.0351562 2.242188 0.0625 2.046875 0.0625 C 1.722656 0.0625 1.472656 0.015625 1.296875 -0.078125 C 1.117188 -0.179688 0.992188 -0.316406 0.921875 -0.484375 C 0.859375 -0.648438 0.828125 -0.992188 0.828125 -1.515625 L 0.828125 -4.515625 L 0.171875 -4.515625 L 0.171875 -5.1875 L 0.828125 -5.1875 L 0.828125 -6.484375 L 1.703125 -7.015625 L 1.703125 -5.1875 L 2.578125 -5.1875 L 2.578125 -4.515625 L 1.703125 -4.515625 L 1.703125 -1.46875 C 1.703125 -1.21875 1.71875 -1.054688 1.75 -0.984375 C 1.78125 -0.910156 1.828125 -0.851562 1.890625 -0.8125 C 1.960938 -0.769531 2.066406 -0.75 2.203125 -0.75 C 2.296875 -0.75 2.421875 -0.757812 2.578125 -0.78125 Z M 2.578125 -0.78125 "/>
</g>
<g id="glyph-2-6">
<path d="M 0.65625 0 L 0.65625 -5.1875 L 1.4375 -5.1875 L 1.4375 -4.40625 C 1.644531 -4.769531 1.832031 -5.007812 2 -5.125 C 2.175781 -5.25 2.363281 -5.3125 2.5625 -5.3125 C 2.863281 -5.3125 3.164062 -5.21875 3.46875 -5.03125 L 3.171875 -4.203125 C 2.953125 -4.335938 2.738281 -4.40625 2.53125 -4.40625 C 2.332031 -4.40625 2.15625 -4.34375 2 -4.21875 C 1.851562 -4.101562 1.742188 -3.945312 1.671875 -3.75 C 1.578125 -3.4375 1.53125 -3.09375 1.53125 -2.71875 L 1.53125 0 Z M 0.65625 0 "/>
</g>
<g id="glyph-2-7">
<path d="M 4.046875 -0.640625 C 3.722656 -0.359375 3.410156 -0.160156 3.109375 -0.046875 C 2.804688 0.0664062 2.484375 0.125 2.140625 0.125 C 1.566406 0.125 1.125 -0.015625 0.8125 -0.296875 C 0.507812 -0.578125 0.359375 -0.9375 0.359375 -1.375 C 0.359375 -1.625 0.414062 -1.851562 0.53125 -2.0625 C 0.644531 -2.269531 0.796875 -2.4375 0.984375 -2.5625 C 1.171875 -2.695312 1.382812 -2.796875 1.625 -2.859375 C 1.800781 -2.898438 2.0625 -2.945312 2.40625 -3 C 3.113281 -3.082031 3.632812 -3.179688 3.96875 -3.296875 C 3.976562 -3.421875 3.984375 -3.5 3.984375 -3.53125 C 3.984375 -3.882812 3.898438 -4.132812 3.734375 -4.28125 C 3.503906 -4.476562 3.171875 -4.578125 2.734375 -4.578125 C 2.316406 -4.578125 2.007812 -4.503906 1.8125 -4.359375 C 1.613281 -4.210938 1.46875 -3.957031 1.375 -3.59375 L 0.515625 -3.71875 C 0.585938 -4.082031 0.710938 -4.375 0.890625 -4.59375 C 1.078125 -4.820312 1.335938 -5 1.671875 -5.125 C 2.015625 -5.25 2.410156 -5.3125 2.859375 -5.3125 C 3.296875 -5.3125 3.65625 -5.257812 3.9375 -5.15625 C 4.21875 -5.050781 4.421875 -4.921875 4.546875 -4.765625 C 4.679688 -4.609375 4.773438 -4.40625 4.828125 -4.15625 C 4.847656 -4.007812 4.859375 -3.738281 4.859375 -3.34375 L 4.859375 -2.171875 C 4.859375 -1.359375 4.878906 -0.84375 4.921875 -0.625 C 4.960938 -0.40625 5.035156 -0.195312 5.140625 0 L 4.21875 0 C 4.132812 -0.1875 4.078125 -0.398438 4.046875 -0.640625 Z M 3.96875 -2.609375 C 3.65625 -2.472656 3.175781 -2.363281 2.53125 -2.28125 C 2.175781 -2.226562 1.921875 -2.164062 1.765625 -2.09375 C 1.617188 -2.03125 1.503906 -1.9375 1.421875 -1.8125 C 1.335938 -1.6875 1.296875 -1.546875 1.296875 -1.390625 C 1.296875 -1.160156 1.382812 -0.96875 1.5625 -0.8125 C 1.738281 -0.65625 2 -0.578125 2.34375 -0.578125 C 2.6875 -0.578125 2.988281 -0.648438 3.25 -0.796875 C 3.507812 -0.941406 3.703125 -1.144531 3.828125 -1.40625 C 3.921875 -1.601562 3.96875 -1.894531 3.96875 -2.28125 Z M 3.96875 -2.609375 "/>
</g>
<g id="glyph-2-8">
<path d="M 0.671875 -6.15625 L 0.671875 -7.171875 L 1.546875 -7.171875 L 1.546875 -6.15625 Z M 0.671875 0 L 0.671875 -5.1875 L 1.546875 -5.1875 L 1.546875 0 Z M 0.671875 0 "/>
</g>
<g id="glyph-3-0">
<path d="M 0 -0.734375 L -7.171875 -0.734375 L -7.171875 -1.6875 L -0.84375 -1.6875 L -0.84375 -5.21875 L 0 -5.21875 Z M 0 -0.734375 "/>
</g>
<g id="glyph-3-1">
<path d="M -1.671875 -4.21875 L -1.5625 -5.125 C -1.03125 -4.976562 -0.613281 -4.710938 -0.3125 -4.328125 C -0.0195312 -3.941406 0.125 -3.445312 0.125 -2.84375 C 0.125 -2.082031 -0.109375 -1.476562 -0.578125 -1.03125 C -1.046875 -0.582031 -1.703125 -0.359375 -2.546875 -0.359375 C -3.421875 -0.359375 -4.097656 -0.582031 -4.578125 -1.03125 C -5.066406 -1.488281 -5.3125 -2.078125 -5.3125 -2.796875 C -5.3125 -3.484375 -5.070312 -4.046875 -4.59375 -4.484375 C -4.125 -4.929688 -3.460938 -5.15625 -2.609375 -5.15625 C -2.554688 -5.15625 -2.476562 -5.15625 -2.375 -5.15625 L -2.375 -1.28125 C -1.800781 -1.3125 -1.363281 -1.472656 -1.0625 -1.765625 C -0.757812 -2.054688 -0.609375 -2.414062 -0.609375 -2.84375 C -0.609375 -3.164062 -0.691406 -3.441406 -0.859375 -3.671875 C -1.023438 -3.898438 -1.296875 -4.082031 -1.671875 -4.21875 Z M -3.09375 -1.328125 L -3.09375 -4.21875 C -3.53125 -4.1875 -3.859375 -4.078125 -4.078125 -3.890625 C -4.421875 -3.609375 -4.59375 -3.242188 -4.59375 -2.796875 C -4.59375 -2.398438 -4.457031 -2.0625 -4.1875 -1.78125 C -3.914062 -1.507812 -3.550781 -1.359375 -3.09375 -1.328125 Z M -3.09375 -1.328125 "/>
</g>
<g id="glyph-3-2">
<path d="M 0 -2.109375 L -5.1875 -0.125 L -5.1875 -1.0625 L -2.078125 -2.171875 C -1.742188 -2.296875 -1.394531 -2.40625 -1.03125 -2.5 C -1.3125 -2.582031 -1.644531 -2.691406 -2.03125 -2.828125 L -5.1875 -3.984375 L -5.1875 -4.890625 L 0 -2.921875 Z M 0 -2.109375 "/>
</g>
<g id="glyph-3-3">
<path d="M 0 -0.65625 L -5.1875 -0.65625 L -5.1875 -1.4375 L -4.40625 -1.4375 C -4.769531 -1.644531 -5.007812 -1.832031 -5.125 -2 C -5.25 -2.175781 -5.3125 -2.363281 -5.3125 -2.5625 C -5.3125 -2.863281 -5.21875 -3.164062 -5.03125 -3.46875 L -4.203125 -3.171875 C -4.335938 -2.953125 -4.40625 -2.738281 -4.40625 -2.53125 C -4.40625 -2.332031 -4.34375 -2.15625 -4.21875 -2 C -4.101562 -1.851562 -3.945312 -1.742188 -3.75 -1.671875 C -3.4375 -1.578125 -3.09375 -1.53125 -2.71875 -1.53125 L 0 -1.53125 Z M 0 -0.65625 "/>
</g>
<g id="glyph-3-4">
<path d="M -0.640625 -4.046875 C -0.359375 -3.722656 -0.160156 -3.410156 -0.046875 -3.109375 C 0.0664062 -2.804688 0.125 -2.484375 0.125 -2.140625 C 0.125 -1.566406 -0.015625 -1.125 -0.296875 -0.8125 C -0.578125 -0.507812 -0.9375 -0.359375 -1.375 -0.359375 C -1.625 -0.359375 -1.851562 -0.414062 -2.0625 -0.53125 C -2.269531 -0.644531 -2.4375 -0.796875 -2.5625 -0.984375 C -2.695312 -1.171875 -2.796875 -1.382812 -2.859375 -1.625 C -2.898438 -1.800781 -2.945312 -2.0625 -3 -2.40625 C -3.082031 -3.113281 -3.179688 -3.632812 -3.296875 -3.96875 C -3.421875 -3.976562 -3.5 -3.984375 -3.53125 -3.984375 C -3.882812 -3.984375 -4.132812 -3.898438 -4.28125 -3.734375 C -4.476562 -3.503906 -4.578125 -3.171875 -4.578125 -2.734375 C -4.578125 -2.316406 -4.503906 -2.007812 -4.359375 -1.8125 C -4.210938 -1.613281 -3.957031 -1.46875 -3.59375 -1.375 L -3.71875 -0.515625 C -4.082031 -0.585938 -4.375 -0.710938 -4.59375 -0.890625 C -4.820312 -1.078125 -5 -1.335938 -5.125 -1.671875 C -5.25 -2.015625 -5.3125 -2.410156 -5.3125 -2.859375 C -5.3125 -3.296875 -5.257812 -3.65625 -5.15625 -3.9375 C -5.050781 -4.21875 -4.921875 -4.421875 -4.765625 -4.546875 C -4.609375 -4.679688 -4.40625 -4.773438 -4.15625 -4.828125 C -4.007812 -4.847656 -3.738281 -4.859375 -3.34375 -4.859375 L -2.171875 -4.859375 C -1.359375 -4.859375 -0.84375 -4.878906 -0.625 -4.921875 C -0.40625 -4.960938 -0.195312 -5.035156 0 -5.140625 L 0 -4.21875 C -0.1875 -4.132812 -0.398438 -4.078125 -0.640625 -4.046875 Z M -2.609375 -3.96875 C -2.472656 -3.65625 -2.363281 -3.175781 -2.28125 -2.53125 C -2.226562 -2.175781 -2.164062 -1.921875 -2.09375 -1.765625 C -2.03125 -1.617188 -1.9375 -1.503906 -1.8125 -1.421875 C -1.6875 -1.335938 -1.546875 -1.296875 -1.390625 -1.296875 C -1.160156 -1.296875 -0.96875 -1.382812 -0.8125 -1.5625 C -0.65625 -1.738281 -0.578125 -2 -0.578125 -2.34375 C -0.578125 -2.6875 -0.648438 -2.988281 -0.796875 -3.25 C -0.941406 -3.507812 -1.144531 -3.703125 -1.40625 -3.828125 C -1.601562 -3.921875 -1.894531 -3.96875 -2.28125 -3.96875 Z M -2.609375 -3.96875 "/>
</g>
<g id="glyph-3-5">
<path d="M 0.4375 -0.5 L 0.5625 -1.359375 C 0.820312 -1.390625 1.015625 -1.488281 1.140625 -1.65625 C 1.296875 -1.875 1.375 -2.171875 1.375 -2.546875 C 1.375 -2.953125 1.289062 -3.265625 1.125 -3.484375 C 0.96875 -3.710938 0.742188 -3.863281 0.453125 -3.9375 C 0.273438 -3.988281 -0.101562 -4.007812 -0.6875 -4 C -0.226562 -3.613281 0 -3.132812 0 -2.5625 C 0 -1.851562 -0.253906 -1.300781 -0.765625 -0.90625 C -1.285156 -0.519531 -1.90625 -0.328125 -2.625 -0.328125 C -3.125 -0.328125 -3.582031 -0.414062 -4 -0.59375 C -4.414062 -0.769531 -4.738281 -1.03125 -4.96875 -1.375 C -5.195312 -1.71875 -5.3125 -2.117188 -5.3125 -2.578125 C -5.3125 -3.179688 -5.0625 -3.6875 -4.5625 -4.09375 L -5.1875 -4.09375 L -5.1875 -4.90625 L -0.703125 -4.90625 C 0.109375 -4.90625 0.679688 -4.820312 1.015625 -4.65625 C 1.347656 -4.488281 1.613281 -4.222656 1.8125 -3.859375 C 2.007812 -3.503906 2.109375 -3.066406 2.109375 -2.546875 C 2.109375 -1.929688 1.96875 -1.429688 1.6875 -1.046875 C 1.40625 -0.671875 0.988281 -0.488281 0.4375 -0.5 Z M -2.6875 -1.234375 C -2.007812 -1.234375 -1.515625 -1.367188 -1.203125 -1.640625 C -0.890625 -1.910156 -0.734375 -2.25 -0.734375 -2.65625 C -0.734375 -3.050781 -0.882812 -3.382812 -1.1875 -3.65625 C -1.5 -3.9375 -1.988281 -4.078125 -2.65625 -4.078125 C -3.289062 -4.078125 -3.769531 -3.9375 -4.09375 -3.65625 C -4.414062 -3.375 -4.578125 -3.035156 -4.578125 -2.640625 C -4.578125 -2.242188 -4.414062 -1.910156 -4.09375 -1.640625 C -3.78125 -1.367188 -3.3125 -1.234375 -2.6875 -1.234375 Z M -2.6875 -1.234375 "/>
</g>
</g>
</defs>
<path fill="none" stroke-width="1.069082" stroke-linecap="butt" stroke-linejoin="round" stroke="rgb(85.096741%, 85.096741%, 85.096741%)" stroke-opacity="1" stroke-miterlimit="10" d="M 57.198648 133.683594 L 229.138739 133.683594 " transform="matrix(0.998849, 0, 0, 1, 0, 0)"/>
<path fill="none" stroke-width="1.069082" stroke-linecap="butt" stroke-linejoin="round" stroke="rgb(85.096741%, 85.096741%, 85.096741%)" stroke-opacity="1" stroke-miterlimit="10" d="M 57.198648 101.984375 L 229.138739 101.984375 " transform="matrix(0.998849, 0, 0, 1, 0, 0)"/>
<path fill="none" stroke-width="1.069082" stroke-linecap="butt" stroke-linejoin="round" stroke="rgb(85.096741%, 85.096741%, 85.096741%)" stroke-opacity="1" stroke-miterlimit="10" d="M 57.198648 70.28125 L 229.138739 70.28125 " transform="matrix(0.998849, 0, 0, 1, 0, 0)"/>
<path fill="none" stroke-width="1.069082" stroke-linecap="butt" stroke-linejoin="round" stroke="rgb(85.096741%, 85.096741%, 85.096741%)" stroke-opacity="1" stroke-miterlimit="10" d="M 57.198648 38.578125 L 229.138739 38.578125 " transform="matrix(0.998849, 0, 0, 1, 0, 0)"/>
<path fill="none" stroke-width="1.069082" stroke-linecap="butt" stroke-linejoin="round" stroke="rgb(85.096741%, 85.096741%, 85.096741%)" stroke-opacity="1" stroke-miterlimit="10" d="M 57.198648 6.878906 L 229.138739 6.878906 " transform="matrix(0.998849, 0, 0, 1, 0, 0)"/>
<path fill="none" stroke-width="1.069082" stroke-linecap="butt" stroke-linejoin="round" stroke="rgb(85.096741%, 85.096741%, 85.096741%)" stroke-opacity="1" stroke-miterlimit="10" d="M 65.01624 140.023438 L 65.01624 0.539062 " transform="matrix(0.998849, 0, 0, 1, 0, 0)"/>
<path fill="none" stroke-width="1.069082" stroke-linecap="butt" stroke-linejoin="round" stroke="rgb(85.096741%, 85.096741%, 85.096741%)" stroke-opacity="1" stroke-miterlimit="10" d="M 102.227038 140.023438 L 102.227038 0.539062 " transform="matrix(0.998849, 0, 0, 1, 0, 0)"/>
<path fill="none" stroke-width="1.069082" stroke-linecap="butt" stroke-linejoin="round" stroke="rgb(85.096741%, 85.096741%, 85.096741%)" stroke-opacity="1" stroke-miterlimit="10" d="M 139.445658 140.023438 L 139.445658 0.539062 " transform="matrix(0.998849, 0, 0, 1, 0, 0)"/>
<path fill="none" stroke-width="1.069082" stroke-linecap="butt" stroke-linejoin="round" stroke="rgb(85.096741%, 85.096741%, 85.096741%)" stroke-opacity="1" stroke-miterlimit="10" d="M 176.664278 140.023438 L 176.664278 0.539062 " transform="matrix(0.998849, 0, 0, 1, 0, 0)"/>
<path fill="none" stroke-width="1.069082" stroke-linecap="butt" stroke-linejoin="round" stroke="rgb(85.096741%, 85.096741%, 85.096741%)" stroke-opacity="1" stroke-miterlimit="10" d="M 213.882898 140.023438 L 213.882898 0.539062 " transform="matrix(0.998849, 0, 0, 1, 0, 0)"/>
<path fill="none" stroke-width="1.069082" stroke-linecap="butt" stroke-linejoin="round" stroke="rgb(0%, 0%, 0%)" stroke-opacity="1" stroke-miterlimit="10" d="M 57.198648 108.324219 L 229.138739 108.324219 " transform="matrix(0.998849, 0, 0, 1, 0, 0)"/>
<path fill-rule="nonzero" fill="rgb(69.802856%, 13.33313%, 13.33313%)" fill-opacity="0.101961" d="M 57.132812 82.957031 L 228.878906 82.957031 L 228.878906 133.683594 L 57.132812 133.683594 Z M 57.132812 82.957031 "/>
<path fill="none" stroke-width="1.069082" stroke-linecap="butt" stroke-linejoin="round" stroke="rgb(69.802856%, 13.33313%, 13.33313%)" stroke-opacity="1" stroke-miterlimit="10" d="M 57.198648 82.960938 L 229.138739 82.960938 " transform="matrix(0.998849, 0, 0, 1, 0, 0)"/>
<g fill="rgb(0%, 0%, 0%)" fill-opacity="1">
<use xlink:href="#glyph-0-0" x="221.747199" y="102.544135"/>
</g>
<path fill="none" stroke-width="0.751478" stroke-linecap="round" stroke-linejoin="round" stroke="rgb(0%, 0%, 0%)" stroke-opacity="1" stroke-miterlimit="10" d="M 222.001618 93.996094 L 226.761002 93.996094 " transform="matrix(0.998849, 0, 0, 1, 0, 0)"/>
<g fill="rgb(69.802856%, 13.33313%, 13.33313%)" fill-opacity="1">
<use xlink:href="#glyph-0-1" x="216.524188" y="77.185671"/>
<use xlink:href="#glyph-0-0" x="221.275288" y="77.185671"/>
</g>
<path fill="none" stroke-width="0.751478" stroke-linecap="round" stroke-linejoin="round" stroke="rgb(69.802856%, 13.33313%, 13.33313%)" stroke-opacity="1" stroke-miterlimit="10" d="M 221.528417 68.636719 L 226.28389 68.636719 " transform="matrix(0.998849, 0, 0, 1, 0, 0)"/>
<path fill-rule="nonzero" fill="rgb(39.99939%, 39.99939%, 39.99939%)" fill-opacity="0.698039" stroke-width="0.645507" stroke-linecap="round" stroke-linejoin="round" stroke="rgb(39.99939%, 39.99939%, 39.99939%)" stroke-opacity="0.698039" stroke-miterlimit="10" d="M 68.426415 96.050781 C 68.426415 98.617188 64.574325 98.617188 64.574325 96.050781 C 64.574325 93.484375 68.426415 93.484375 68.426415 96.050781 " transform="matrix(0.998849, 0, 0, 1, 0, 0)"/>
<path fill-rule="nonzero" fill="rgb(39.99939%, 39.99939%, 39.99939%)" fill-opacity="0.698039" stroke-width="0.645507" stroke-linecap="round" stroke-linejoin="round" stroke="rgb(39.99939%, 39.99939%, 39.99939%)" stroke-opacity="0.698039" stroke-miterlimit="10" d="M 68.426415 96.050781 C 68.426415 98.617188 64.574325 98.617188 64.574325 96.050781 C 64.574325 93.484375 68.426415 93.484375 68.426415 96.050781 " transform="matrix(0.998849, 0, 0, 1, 0, 0)"/>
<path fill-rule="nonzero" fill="rgb(39.99939%, 39.99939%, 39.99939%)" fill-opacity="0.698039" stroke-width="0.645507" stroke-linecap="round" stroke-linejoin="round" stroke="rgb(39.99939%, 39.99939%, 39.99939%)" stroke-opacity="0.698039" stroke-miterlimit="10" d="M 68.426415 96.050781 C 68.426415 98.617188 64.574325 98.617188 64.574325 96.050781 C 64.574325 93.484375 68.426415 93.484375 68.426415 96.050781 " transform="matrix(0.998849, 0, 0, 1, 0, 0)"/>
<path fill-rule="nonzero" fill="rgb(39.99939%, 39.99939%, 39.99939%)" fill-opacity="0.698039" stroke-width="0.645507" stroke-linecap="round" stroke-linejoin="round" stroke="rgb(39.99939%, 39.99939%, 39.99939%)" stroke-opacity="0.698039" stroke-miterlimit="10" d="M 68.426415 96.050781 C 68.426415 98.617188 64.574325 98.617188 64.574325 96.050781 C 64.574325 93.484375 68.426415 93.484375 68.426415 96.050781 " transform="matrix(0.998849, 0, 0, 1, 0, 0)"/>
<path fill-rule="nonzero" fill="rgb(39.99939%, 39.99939%, 39.99939%)" fill-opacity="0.698039" stroke-width="0.645507" stroke-linecap="round" stroke-linejoin="round" stroke="rgb(39.99939%, 39.99939%, 39.99939%)" stroke-opacity="0.698039" stroke-miterlimit="10" d="M 68.426415 96.050781 C 68.426415 98.617188 64.574325 98.617188 64.574325 96.050781 C 64.574325 93.484375 68.426415 93.484375 68.426415 96.050781 " transform="matrix(0.998849, 0, 0, 1, 0, 0)"/>
<path fill-rule="nonzero" fill="rgb(39.99939%, 39.99939%, 39.99939%)" fill-opacity="0.698039" stroke-width="0.645507" stroke-linecap="round" stroke-linejoin="round" stroke="rgb(39.99939%, 39.99939%, 39.99939%)" stroke-opacity="0.698039" stroke-miterlimit="10" d="M 68.426415 96.050781 C 68.426415 98.617188 64.574325 98.617188 64.574325 96.050781 C 64.574325 93.484375 68.426415 93.484375 68.426415 96.050781 " transform="matrix(0.998849, 0, 0, 1, 0, 0)"/>
<path fill-rule="nonzero" fill="rgb(39.99939%, 39.99939%, 39.99939%)" fill-opacity="0.698039" stroke-width="0.645507" stroke-linecap="round" stroke-linejoin="round" stroke="rgb(39.99939%, 39.99939%, 39.99939%)" stroke-opacity="0.698039" stroke-miterlimit="10" d="M 68.426415 96.050781 C 68.426415 98.617188 64.574325 98.617188 64.574325 96.050781 C 64.574325 93.484375 68.426415 93.484375 68.426415 96.050781 " transform="matrix(0.998849, 0, 0, 1, 0, 0)"/>
<path fill-rule="nonzero" fill="rgb(39.99939%, 39.99939%, 39.99939%)" fill-opacity="0.698039" stroke-width="0.645507" stroke-linecap="round" stroke-linejoin="round" stroke="rgb(39.99939%, 39.99939%, 39.99939%)" stroke-opacity="0.698039" stroke-miterlimit="10" d="M 68.426415 96.050781 C 68.426415 98.617188 64.574325 98.617188 64.574325 96.050781 C 64.574325 93.484375 68.426415 93.484375 68.426415 96.050781 " transform="matrix(0.998849, 0, 0, 1, 0, 0)"/>
<path fill-rule="nonzero" fill="rgb(39.99939%, 39.99939%, 39.99939%)" fill-opacity="0.698039" stroke-width="0.645507" stroke-linecap="round" stroke-linejoin="round" stroke="rgb(39.99939%, 39.99939%, 39.99939%)" stroke-opacity="0.698039" stroke-miterlimit="10" d="M 68.426415 96.050781 C 68.426415 98.617188 64.574325 98.617188 64.574325 96.050781 C 64.574325 93.484375 68.426415 93.484375 68.426415 96.050781 " transform="matrix(0.998849, 0, 0, 1, 0, 0)"/>
<path fill-rule="nonzero" fill="rgb(39.99939%, 39.99939%, 39.99939%)" fill-opacity="0.698039" stroke-width="0.645507" stroke-linecap="round" stroke-linejoin="round" stroke="rgb(39.99939%, 39.99939%, 39.99939%)" stroke-opacity="0.698039" stroke-miterlimit="10" d="M 68.426415 96.050781 C 68.426415 98.617188 64.574325 98.617188 64.574325 96.050781 C 64.574325 93.484375 68.426415 93.484375 68.426415 96.050781 " transform="matrix(0.998849, 0, 0, 1, 0, 0)"/>
<path fill-rule="nonzero" fill="rgb(39.99939%, 39.99939%, 39.99939%)" fill-opacity="0.698039" stroke-width="0.645507" stroke-linecap="round" stroke-linejoin="round" stroke="rgb(39.99939%, 39.99939%, 39.99939%)" stroke-opacity="0.698039" stroke-miterlimit="10" d="M 68.426415 96.050781 C 68.426415 98.617188 64.574325 98.617188 64.574325 96.050781 C 64.574325 93.484375 68.426415 93.484375 68.426415 96.050781 " transform="matrix(0.998849, 0, 0, 1, 0, 0)"/>
<path fill-rule="nonzero" fill="rgb(39.99939%, 39.99939%, 39.99939%)" fill-opacity="0.698039" stroke-width="0.645507" stroke-linecap="round" stroke-linejoin="round" stroke="rgb(39.99939%, 39.99939%, 39.99939%)" stroke-opacity="0.698039" stroke-miterlimit="10" d="M 68.426415 96.050781 C 68.426415 98.617188 64.574325 98.617188 64.574325 96.050781 C 64.574325 93.484375 68.426415 93.484375 68.426415 96.050781 " transform="matrix(0.998849, 0, 0, 1, 0, 0)"/>
<path fill-rule="nonzero" fill="rgb(39.99939%, 39.99939%, 39.99939%)" fill-opacity="0.698039" stroke-width="0.645507" stroke-linecap="round" stroke-linejoin="round" stroke="rgb(39.99939%, 39.99939%, 39.99939%)" stroke-opacity="0.698039" stroke-miterlimit="10" d="M 68.426415 96.050781 C 68.426415 98.617188 64.574325 98.617188 64.574325 96.050781 C 64.574325 93.484375 68.426415 93.484375 68.426415 96.050781 " transform="matrix(0.998849, 0, 0, 1, 0, 0)"/>
<path fill-rule="nonzero" fill="rgb(39.99939%, 39.99939%, 39.99939%)" fill-opacity="0.698039" stroke-width="0.645507" stroke-linecap="round" stroke-linejoin="round" stroke="rgb(39.99939%, 39.99939%, 39.99939%)" stroke-opacity="0.698039" stroke-miterlimit="10" d="M 68.426415 96.050781 C 68.426415 98.617188 64.574325 98.617188 64.574325 96.050781 C 64.574325 93.484375 68.426415 93.484375 68.426415 96.050781 " transform="matrix(0.998849, 0, 0, 1, 0, 0)"/>
<path fill-rule="nonzero" fill="rgb(39.99939%, 39.99939%, 39.99939%)" fill-opacity="0.698039" stroke-width="0.645507" stroke-linecap="round" stroke-linejoin="round" stroke="rgb(39.99939%, 39.99939%, 39.99939%)" stroke-opacity="0.698039" stroke-miterlimit="10" d="M 68.426415 96.050781 C 68.426415 98.617188 64.574325 98.617188 64.574325 96.050781 C 64.574325 93.484375 68.426415 93.484375 68.426415 96.050781 " transform="matrix(0.998849, 0, 0, 1, 0, 0)"/>
<path fill-rule="nonzero" fill="rgb(39.99939%, 39.99939%, 39.99939%)" fill-opacity="0.698039" stroke-width="0.645507" stroke-linecap="round" stroke-linejoin="round" stroke="rgb(39.99939%, 39.99939%, 39.99939%)" stroke-opacity="0.698039" stroke-miterlimit="10" d="M 68.426415 96.050781 C 68.426415 98.617188 64.574325 98.617188 64.574325 96.050781 C 64.574325 93.484375 68.426415 93.484375 68.426415 96.050781 " transform="matrix(0.998849, 0, 0, 1, 0, 0)"/>
<path fill-rule="nonzero" fill="rgb(39.99939%, 39.99939%, 39.99939%)" fill-opacity="0.698039" stroke-width="0.645507" stroke-linecap="round" stroke-linejoin="round" stroke="rgb(39.99939%, 39.99939%, 39.99939%)" stroke-opacity="0.698039" stroke-miterlimit="10" d="M 68.426415 96.050781 C 68.426415 98.617188 64.574325 98.617188 64.574325 96.050781 C 64.574325 93.484375 68.426415 93.484375 68.426415 96.050781 " transform="matrix(0.998849, 0, 0, 1, 0, 0)"/>
<path fill-rule="nonzero" fill="rgb(39.99939%, 39.99939%, 39.99939%)" fill-opacity="0.698039" stroke-width="0.645507" stroke-linecap="round" stroke-linejoin="round" stroke="rgb(39.99939%, 39.99939%, 39.99939%)" stroke-opacity="0.698039" stroke-miterlimit="10" d="M 68.426415 96.050781 C 68.426415 98.617188 64.574325 98.617188 64.574325 96.050781 C 64.574325 93.484375 68.426415 93.484375 68.426415 96.050781 " transform="matrix(0.998849, 0, 0, 1, 0, 0)"/>
<path fill-rule="nonzero" fill="rgb(39.99939%, 39.99939%, 39.99939%)" fill-opacity="0.698039" stroke-width="0.645507" stroke-linecap="round" stroke-linejoin="round" stroke="rgb(39.99939%, 39.99939%, 39.99939%)" stroke-opacity="0.698039" stroke-miterlimit="10" d="M 68.426415 96.050781 C 68.426415 98.617188 64.574325 98.617188 64.574325 96.050781 C 64.574325 93.484375 68.426415 93.484375 68.426415 96.050781 " transform="matrix(0.998849, 0, 0, 1, 0, 0)"/>
<path fill-rule="nonzero" fill="rgb(39.99939%, 39.99939%, 39.99939%)" fill-opacity="0.698039" stroke-width="0.645507" stroke-linecap="round" stroke-linejoin="round" stroke="rgb(39.99939%, 39.99939%, 39.99939%)" stroke-opacity="0.698039" stroke-miterlimit="10" d="M 68.426415 96.050781 C 68.426415 98.617188 64.574325 98.617188 64.574325 96.050781 C 64.574325 93.484375 68.426415 93.484375 68.426415 96.050781 " transform="matrix(0.998849, 0, 0, 1, 0, 0)"/>
<path fill-rule="nonzero" fill="rgb(39.99939%, 39.99939%, 39.99939%)" fill-opacity="0.698039" stroke-width="0.645507" stroke-linecap="round" stroke-linejoin="round" stroke="rgb(39.99939%, 39.99939%, 39.99939%)" stroke-opacity="0.698039" stroke-miterlimit="10" d="M 104.158949 114.457031 C 104.158949 117.027344 100.302949 117.027344 100.302949 114.457031 C 100.302949 111.890625 104.158949 111.890625 104.158949 114.457031 " transform="matrix(0.998849, 0, 0, 1, 0, 0)"/>
<path fill-rule="nonzero" fill="rgb(39.99939%, 39.99939%, 39.99939%)" fill-opacity="0.698039" stroke-width="0.645507" stroke-linecap="round" stroke-linejoin="round" stroke="rgb(39.99939%, 39.99939%, 39.99939%)" stroke-opacity="0.698039" stroke-miterlimit="10" d="M 104.158949 114.457031 C 104.158949 117.027344 100.302949 117.027344 100.302949 114.457031 C 100.302949 111.890625 104.158949 111.890625 104.158949 114.457031 " transform="matrix(0.998849, 0, 0, 1, 0, 0)"/>
<path fill-rule="nonzero" fill="rgb(39.99939%, 39.99939%, 39.99939%)" fill-opacity="0.698039" stroke-width="0.645507" stroke-linecap="round" stroke-linejoin="round" stroke="rgb(39.99939%, 39.99939%, 39.99939%)" stroke-opacity="0.698039" stroke-miterlimit="10" d="M 104.158949 114.457031 C 104.158949 117.027344 100.302949 117.027344 100.302949 114.457031 C 100.302949 111.890625 104.158949 111.890625 104.158949 114.457031 " transform="matrix(0.998849, 0, 0, 1, 0, 0)"/>
<path fill-rule="nonzero" fill="rgb(39.99939%, 39.99939%, 39.99939%)" fill-opacity="0.698039" stroke-width="0.645507" stroke-linecap="round" stroke-linejoin="round" stroke="rgb(39.99939%, 39.99939%, 39.99939%)" stroke-opacity="0.698039" stroke-miterlimit="10" d="M 104.158949 114.457031 C 104.158949 117.027344 100.302949 117.027344 100.302949 114.457031 C 100.302949 111.890625 104.158949 111.890625 104.158949 114.457031 " transform="matrix(0.998849, 0, 0, 1, 0, 0)"/>
<path fill-rule="nonzero" fill="rgb(39.99939%, 39.99939%, 39.99939%)" fill-opacity="0.698039" stroke-width="0.645507" stroke-linecap="round" stroke-linejoin="round" stroke="rgb(39.99939%, 39.99939%, 39.99939%)" stroke-opacity="0.698039" stroke-miterlimit="10" d="M 104.158949 114.457031 C 104.158949 117.027344 100.302949 117.027344 100.302949 114.457031 C 100.302949 111.890625 104.158949 111.890625 104.158949 114.457031 " transform="matrix(0.998849, 0, 0, 1, 0, 0)"/>
<path fill-rule="nonzero" fill="rgb(39.99939%, 39.99939%, 39.99939%)" fill-opacity="0.698039" stroke-width="0.645507" stroke-linecap="round" stroke-linejoin="round" stroke="rgb(39.99939%, 39.99939%, 39.99939%)" stroke-opacity="0.698039" stroke-miterlimit="10" d="M 104.158949 114.457031 C 104.158949 117.027344 100.302949 117.027344 100.302949 114.457031 C 100.302949 111.890625 104.158949 111.890625 104.158949 114.457031 " transform="matrix(0.998849, 0, 0, 1, 0, 0)"/>
<path fill-rule="nonzero" fill="rgb(39.99939%, 39.99939%, 39.99939%)" fill-opacity="0.698039" stroke-width="0.645507" stroke-linecap="round" stroke-linejoin="round" stroke="rgb(39.99939%, 39.99939%, 39.99939%)" stroke-opacity="0.698039" stroke-miterlimit="10" d="M 104.158949 114.457031 C 104.158949 117.027344 100.302949 117.027344 100.302949 114.457031 C 100.302949 111.890625 104.158949 111.890625 104.158949 114.457031 " transform="matrix(0.998849, 0, 0, 1, 0, 0)"/>
<path fill-rule="nonzero" fill="rgb(39.99939%, 39.99939%, 39.99939%)" fill-opacity="0.698039" stroke-width="0.645507" stroke-linecap="round" stroke-linejoin="round" stroke="rgb(39.99939%, 39.99939%, 39.99939%)" stroke-opacity="0.698039" stroke-miterlimit="10" d="M 104.158949 114.457031 C 104.158949 117.027344 100.302949 117.027344 100.302949 114.457031 C 100.302949 111.890625 104.158949 111.890625 104.158949 114.457031 " transform="matrix(0.998849, 0, 0, 1, 0, 0)"/>
<path fill-rule="nonzero" fill="rgb(39.99939%, 39.99939%, 39.99939%)" fill-opacity="0.698039" stroke-width="0.645507" stroke-linecap="round" stroke-linejoin="round" stroke="rgb(39.99939%, 39.99939%, 39.99939%)" stroke-opacity="0.698039" stroke-miterlimit="10" d="M 104.158949 114.457031 C 104.158949 117.027344 100.302949 117.027344 100.302949 114.457031 C 100.302949 111.890625 104.158949 111.890625 104.158949 114.457031 " transform="matrix(0.998849, 0, 0, 1, 0, 0)"/>
<path fill-rule="nonzero" fill="rgb(39.99939%, 39.99939%, 39.99939%)" fill-opacity="0.698039" stroke-width="0.645507" stroke-linecap="round" stroke-linejoin="round" stroke="rgb(39.99939%, 39.99939%, 39.99939%)" stroke-opacity="0.698039" stroke-miterlimit="10" d="M 104.158949 114.457031 C 104.158949 117.027344 100.302949 117.027344 100.302949 114.457031 C 100.302949 111.890625 104.158949 111.890625 104.158949 114.457031 " transform="matrix(0.998849, 0, 0, 1, 0, 0)"/>
<path fill-rule="nonzero" fill="rgb(39.99939%, 39.99939%, 39.99939%)" fill-opacity="0.698039" stroke-width="0.645507" stroke-linecap="round" stroke-linejoin="round" stroke="rgb(39.99939%, 39.99939%, 39.99939%)" stroke-opacity="0.698039" stroke-miterlimit="10" d="M 104.158949 114.457031 C 104.158949 117.027344 100.302949 117.027344 100.302949 114.457031 C 100.302949 111.890625 104.158949 111.890625 104.158949 114.457031 " transform="matrix(0.998849, 0, 0, 1, 0, 0)"/>
<path fill-rule="nonzero" fill="rgb(39.99939%, 39.99939%, 39.99939%)" fill-opacity="0.698039" stroke-width="0.645507" stroke-linecap="round" stroke-linejoin="round" stroke="rgb(39.99939%, 39.99939%, 39.99939%)" stroke-opacity="0.698039" stroke-miterlimit="10" d="M 104.158949 114.457031 C 104.158949 117.027344 100.302949 117.027344 100.302949 114.457031 C 100.302949 111.890625 104.158949 111.890625 104.158949 114.457031 " transform="matrix(0.998849, 0, 0, 1, 0, 0)"/>
<path fill-rule="nonzero" fill="rgb(39.99939%, 39.99939%, 39.99939%)" fill-opacity="0.698039" stroke-width="0.645507" stroke-linecap="round" stroke-linejoin="round" stroke="rgb(39.99939%, 39.99939%, 39.99939%)" stroke-opacity="0.698039" stroke-miterlimit="10" d="M 104.158949 114.457031 C 104.158949 117.027344 100.302949 117.027344 100.302949 114.457031 C 100.302949 111.890625 104.158949 111.890625 104.158949 114.457031 " transform="matrix(0.998849, 0, 0, 1, 0, 0)"/>
<path fill-rule="nonzero" fill="rgb(39.99939%, 39.99939%, 39.99939%)" fill-opacity="0.698039" stroke-width="0.645507" stroke-linecap="round" stroke-linejoin="round" stroke="rgb(39.99939%, 39.99939%, 39.99939%)" stroke-opacity="0.698039" stroke-miterlimit="10" d="M 104.158949 114.457031 C 104.158949 117.027344 100.302949 117.027344 100.302949 114.457031 C 100.302949 111.890625 104.158949 111.890625 104.158949 114.457031 " transform="matrix(0.998849, 0, 0, 1, 0, 0)"/>
<path fill-rule="nonzero" fill="rgb(39.99939%, 39.99939%, 39.99939%)" fill-opacity="0.698039" stroke-width="0.645507" stroke-linecap="round" stroke-linejoin="round" stroke="rgb(39.99939%, 39.99939%, 39.99939%)" stroke-opacity="0.698039" stroke-miterlimit="10" d="M 104.158949 114.457031 C 104.158949 117.027344 100.302949 117.027344 100.302949 114.457031 C 100.302949 111.890625 104.158949 111.890625 104.158949 114.457031 " transform="matrix(0.998849, 0, 0, 1, 0, 0)"/>
<path fill-rule="nonzero" fill="rgb(39.99939%, 39.99939%, 39.99939%)" fill-opacity="0.698039" stroke-width="0.645507" stroke-linecap="round" stroke-linejoin="round" stroke="rgb(39.99939%, 39.99939%, 39.99939%)" stroke-opacity="0.698039" stroke-miterlimit="10" d="M 104.158949 114.457031 C 104.158949 117.027344 100.302949 117.027344 100.302949 114.457031 C 100.302949 111.890625 104.158949 111.890625 104.158949 114.457031 " transform="matrix(0.998849, 0, 0, 1, 0, 0)"/>
<path fill-rule="nonzero" fill="rgb(39.99939%, 39.99939%, 39.99939%)" fill-opacity="0.698039" stroke-width="0.645507" stroke-linecap="round" stroke-linejoin="round" stroke="rgb(39.99939%, 39.99939%, 39.99939%)" stroke-opacity="0.698039" stroke-miterlimit="10" d="M 104.158949 114.457031 C 104.158949 117.027344 100.302949 117.027344 100.302949 114.457031 C 100.302949 111.890625 104.158949 111.890625 104.158949 114.457031 " transform="matrix(0.998849, 0, 0, 1, 0, 0)"/>
<path fill-rule="nonzero" fill="rgb(39.99939%, 39.99939%, 39.99939%)" fill-opacity="0.698039" stroke-width="0.645507" stroke-linecap="round" stroke-linejoin="round" stroke="rgb(39.99939%, 39.99939%, 39.99939%)" stroke-opacity="0.698039" stroke-miterlimit="10" d="M 104.158949 114.457031 C 104.158949 117.027344 100.302949 117.027344 100.302949 114.457031 C 100.302949 111.890625 104.158949 111.890625 104.158949 114.457031 " transform="matrix(0.998849, 0, 0, 1, 0, 0)"/>
<path fill-rule="nonzero" fill="rgb(39.99939%, 39.99939%, 39.99939%)" fill-opacity="0.698039" stroke-width="0.645507" stroke-linecap="round" stroke-linejoin="round" stroke="rgb(39.99939%, 39.99939%, 39.99939%)" stroke-opacity="0.698039" stroke-miterlimit="10" d="M 104.158949 114.457031 C 104.158949 117.027344 100.302949 117.027344 100.302949 114.457031 C 100.302949 111.890625 104.158949 111.890625 104.158949 114.457031 " transform="matrix(0.998849, 0, 0, 1, 0, 0)"/>
<path fill-rule="nonzero" fill="rgb(39.99939%, 39.99939%, 39.99939%)" fill-opacity="0.698039" stroke-width="0.645507" stroke-linecap="round" stroke-linejoin="round" stroke="rgb(39.99939%, 39.99939%, 39.99939%)" stroke-opacity="0.698039" stroke-miterlimit="10" d="M 104.158949 114.457031 C 104.158949 117.027344 100.302949 117.027344 100.302949 114.457031 C 100.302949 111.890625 104.158949 111.890625 104.158949 114.457031 " transform="matrix(0.998849, 0, 0, 1, 0, 0)"/>
<path fill-rule="nonzero" fill="rgb(39.99939%, 39.99939%, 39.99939%)" fill-opacity="0.698039" stroke-width="0.645507" stroke-linecap="round" stroke-linejoin="round" stroke="rgb(39.99939%, 39.99939%, 39.99939%)" stroke-opacity="0.698039" stroke-miterlimit="10" d="M 141.369748 121.003906 C 141.369748 123.574219 137.521569 123.574219 137.521569 121.003906 C 137.521569 118.433594 141.369748 118.433594 141.369748 121.003906 " transform="matrix(0.998849, 0, 0, 1, 0, 0)"/>
<path fill-rule="nonzero" fill="rgb(39.99939%, 39.99939%, 39.99939%)" fill-opacity="0.698039" stroke-width="0.645507" stroke-linecap="round" stroke-linejoin="round" stroke="rgb(39.99939%, 39.99939%, 39.99939%)" stroke-opacity="0.698039" stroke-miterlimit="10" d="M 141.369748 121.003906 C 141.369748 123.574219 137.521569 123.574219 137.521569 121.003906 C 137.521569 118.433594 141.369748 118.433594 141.369748 121.003906 " transform="matrix(0.998849, 0, 0, 1, 0, 0)"/>
<path fill-rule="nonzero" fill="rgb(39.99939%, 39.99939%, 39.99939%)" fill-opacity="0.698039" stroke-width="0.645507" stroke-linecap="round" stroke-linejoin="round" stroke="rgb(39.99939%, 39.99939%, 39.99939%)" stroke-opacity="0.698039" stroke-miterlimit="10" d="M 141.369748 121.003906 C 141.369748 123.574219 137.521569 123.574219 137.521569 121.003906 C 137.521569 118.433594 141.369748 118.433594 141.369748 121.003906 " transform="matrix(0.998849, 0, 0, 1, 0, 0)"/>
<path fill-rule="nonzero" fill="rgb(39.99939%, 39.99939%, 39.99939%)" fill-opacity="0.698039" stroke-width="0.645507" stroke-linecap="round" stroke-linejoin="round" stroke="rgb(39.99939%, 39.99939%, 39.99939%)" stroke-opacity="0.698039" stroke-miterlimit="10" d="M 141.369748 121.003906 C 141.369748 123.574219 137.521569 123.574219 137.521569 121.003906 C 137.521569 118.433594 141.369748 118.433594 141.369748 121.003906 " transform="matrix(0.998849, 0, 0, 1, 0, 0)"/>
<path fill-rule="nonzero" fill="rgb(39.99939%, 39.99939%, 39.99939%)" fill-opacity="0.698039" stroke-width="0.645507" stroke-linecap="round" stroke-linejoin="round" stroke="rgb(39.99939%, 39.99939%, 39.99939%)" stroke-opacity="0.698039" stroke-miterlimit="10" d="M 141.369748 121.003906 C 141.369748 123.574219 137.521569 123.574219 137.521569 121.003906 C 137.521569 118.433594 141.369748 118.433594 141.369748 121.003906 " transform="matrix(0.998849, 0, 0, 1, 0, 0)"/>
<path fill-rule="nonzero" fill="rgb(39.99939%, 39.99939%, 39.99939%)" fill-opacity="0.698039" stroke-width="0.645507" stroke-linecap="round" stroke-linejoin="round" stroke="rgb(39.99939%, 39.99939%, 39.99939%)" stroke-opacity="0.698039" stroke-miterlimit="10" d="M 141.369748 121.003906 C 141.369748 123.574219 137.521569 123.574219 137.521569 121.003906 C 137.521569 118.433594 141.369748 118.433594 141.369748 121.003906 " transform="matrix(0.998849, 0, 0, 1, 0, 0)"/>
<path fill-rule="nonzero" fill="rgb(39.99939%, 39.99939%, 39.99939%)" fill-opacity="0.698039" stroke-width="0.645507" stroke-linecap="round" stroke-linejoin="round" stroke="rgb(39.99939%, 39.99939%, 39.99939%)" stroke-opacity="0.698039" stroke-miterlimit="10" d="M 141.369748 121.003906 C 141.369748 123.574219 137.521569 123.574219 137.521569 121.003906 C 137.521569 118.433594 141.369748 118.433594 141.369748 121.003906 " transform="matrix(0.998849, 0, 0, 1, 0, 0)"/>
<path fill-rule="nonzero" fill="rgb(39.99939%, 39.99939%, 39.99939%)" fill-opacity="0.698039" stroke-width="0.645507" stroke-linecap="round" stroke-linejoin="round" stroke="rgb(39.99939%, 39.99939%, 39.99939%)" stroke-opacity="0.698039" stroke-miterlimit="10" d="M 141.369748 121.003906 C 141.369748 123.574219 137.521569 123.574219 137.521569 121.003906 C 137.521569 118.433594 141.369748 118.433594 141.369748 121.003906 " transform="matrix(0.998849, 0, 0, 1, 0, 0)"/>
<path fill-rule="nonzero" fill="rgb(39.99939%, 39.99939%, 39.99939%)" fill-opacity="0.698039" stroke-width="0.645507" stroke-linecap="round" stroke-linejoin="round" stroke="rgb(39.99939%, 39.99939%, 39.99939%)" stroke-opacity="0.698039" stroke-miterlimit="10" d="M 141.369748 121.003906 C 141.369748 123.574219 137.521569 123.574219 137.521569 121.003906 C 137.521569 118.433594 141.369748 118.433594 141.369748 121.003906 " transform="matrix(0.998849, 0, 0, 1, 0, 0)"/>
<path fill-rule="nonzero" fill="rgb(39.99939%, 39.99939%, 39.99939%)" fill-opacity="0.698039" stroke-width="0.645507" stroke-linecap="round" stroke-linejoin="round" stroke="rgb(39.99939%, 39.99939%, 39.99939%)" stroke-opacity="0.698039" stroke-miterlimit="10" d="M 141.369748 121.003906 C 141.369748 123.574219 137.521569 123.574219 137.521569 121.003906 C 137.521569 118.433594 141.369748 118.433594 141.369748 121.003906 " transform="matrix(0.998849, 0, 0, 1, 0, 0)"/>
<path fill-rule="nonzero" fill="rgb(39.99939%, 39.99939%, 39.99939%)" fill-opacity="0.698039" stroke-width="0.645507" stroke-linecap="round" stroke-linejoin="round" stroke="rgb(39.99939%, 39.99939%, 39.99939%)" stroke-opacity="0.698039" stroke-miterlimit="10" d="M 141.369748 121.003906 C 141.369748 123.574219 137.521569 123.574219 137.521569 121.003906 C 137.521569 118.433594 141.369748 118.433594 141.369748 121.003906 " transform="matrix(0.998849, 0, 0, 1, 0, 0)"/>
<path fill-rule="nonzero" fill="rgb(39.99939%, 39.99939%, 39.99939%)" fill-opacity="0.698039" stroke-width="0.645507" stroke-linecap="round" stroke-linejoin="round" stroke="rgb(39.99939%, 39.99939%, 39.99939%)" stroke-opacity="0.698039" stroke-miterlimit="10" d="M 141.369748 121.003906 C 141.369748 123.574219 137.521569 123.574219 137.521569 121.003906 C 137.521569 118.433594 141.369748 118.433594 141.369748 121.003906 " transform="matrix(0.998849, 0, 0, 1, 0, 0)"/>
<path fill-rule="nonzero" fill="rgb(39.99939%, 39.99939%, 39.99939%)" fill-opacity="0.698039" stroke-width="0.645507" stroke-linecap="round" stroke-linejoin="round" stroke="rgb(39.99939%, 39.99939%, 39.99939%)" stroke-opacity="0.698039" stroke-miterlimit="10" d="M 141.369748 121.003906 C 141.369748 123.574219 137.521569 123.574219 137.521569 121.003906 C 137.521569 118.433594 141.369748 118.433594 141.369748 121.003906 " transform="matrix(0.998849, 0, 0, 1, 0, 0)"/>
<path fill-rule="nonzero" fill="rgb(39.99939%, 39.99939%, 39.99939%)" fill-opacity="0.698039" stroke-width="0.645507" stroke-linecap="round" stroke-linejoin="round" stroke="rgb(39.99939%, 39.99939%, 39.99939%)" stroke-opacity="0.698039" stroke-miterlimit="10" d="M 141.369748 121.003906 C 141.369748 123.574219 137.521569 123.574219 137.521569 121.003906 C 137.521569 118.433594 141.369748 118.433594 141.369748 121.003906 " transform="matrix(0.998849, 0, 0, 1, 0, 0)"/>
<path fill-rule="nonzero" fill="rgb(39.99939%, 39.99939%, 39.99939%)" fill-opacity="0.698039" stroke-width="0.645507" stroke-linecap="round" stroke-linejoin="round" stroke="rgb(39.99939%, 39.99939%, 39.99939%)" stroke-opacity="0.698039" stroke-miterlimit="10" d="M 141.369748 121.003906 C 141.369748 123.574219 137.521569 123.574219 137.521569 121.003906 C 137.521569 118.433594 141.369748 118.433594 141.369748 121.003906 " transform="matrix(0.998849, 0, 0, 1, 0, 0)"/>
<path fill-rule="nonzero" fill="rgb(39.99939%, 39.99939%, 39.99939%)" fill-opacity="0.698039" stroke-width="0.645507" stroke-linecap="round" stroke-linejoin="round" stroke="rgb(39.99939%, 39.99939%, 39.99939%)" stroke-opacity="0.698039" stroke-miterlimit="10" d="M 141.369748 121.003906 C 141.369748 123.574219 137.521569 123.574219 137.521569 121.003906 C 137.521569 118.433594 141.369748 118.433594 141.369748 121.003906 " transform="matrix(0.998849, 0, 0, 1, 0, 0)"/>
<path fill-rule="nonzero" fill="rgb(39.99939%, 39.99939%, 39.99939%)" fill-opacity="0.698039" stroke-width="0.645507" stroke-linecap="round" stroke-linejoin="round" stroke="rgb(39.99939%, 39.99939%, 39.99939%)" stroke-opacity="0.698039" stroke-miterlimit="10" d="M 141.369748 121.003906 C 141.369748 123.574219 137.521569 123.574219 137.521569 121.003906 C 137.521569 118.433594 141.369748 118.433594 141.369748 121.003906 " transform="matrix(0.998849, 0, 0, 1, 0, 0)"/>
<path fill-rule="nonzero" fill="rgb(39.99939%, 39.99939%, 39.99939%)" fill-opacity="0.698039" stroke-width="0.645507" stroke-linecap="round" stroke-linejoin="round" stroke="rgb(39.99939%, 39.99939%, 39.99939%)" stroke-opacity="0.698039" stroke-miterlimit="10" d="M 141.369748 121.003906 C 141.369748 123.574219 137.521569 123.574219 137.521569 121.003906 C 137.521569 118.433594 141.369748 118.433594 141.369748 121.003906 " transform="matrix(0.998849, 0, 0, 1, 0, 0)"/>
<path fill-rule="nonzero" fill="rgb(39.99939%, 39.99939%, 39.99939%)" fill-opacity="0.698039" stroke-width="0.645507" stroke-linecap="round" stroke-linejoin="round" stroke="rgb(39.99939%, 39.99939%, 39.99939%)" stroke-opacity="0.698039" stroke-miterlimit="10" d="M 141.369748 121.003906 C 141.369748 123.574219 137.521569 123.574219 137.521569 121.003906 C 137.521569 118.433594 141.369748 118.433594 141.369748 121.003906 " transform="matrix(0.998849, 0, 0, 1, 0, 0)"/>
<path fill-rule="nonzero" fill="rgb(39.99939%, 39.99939%, 39.99939%)" fill-opacity="0.698039" stroke-width="0.645507" stroke-linecap="round" stroke-linejoin="round" stroke="rgb(39.99939%, 39.99939%, 39.99939%)" stroke-opacity="0.698039" stroke-miterlimit="10" d="M 141.369748 121.003906 C 141.369748 123.574219 137.521569 123.574219 137.521569 121.003906 C 137.521569 118.433594 141.369748 118.433594 141.369748 121.003906 " transform="matrix(0.998849, 0, 0, 1, 0, 0)"/>
<path fill-rule="nonzero" fill="rgb(39.99939%, 39.99939%, 39.99939%)" fill-opacity="0.698039" stroke-width="0.645507" stroke-linecap="round" stroke-linejoin="round" stroke="rgb(39.99939%, 39.99939%, 39.99939%)" stroke-opacity="0.698039" stroke-miterlimit="10" d="M 178.588368 114.664062 C 178.588368 117.234375 174.736278 117.234375 174.736278 114.664062 C 174.736278 112.09375 178.588368 112.09375 178.588368 114.664062 " transform="matrix(0.998849, 0, 0, 1, 0, 0)"/>
<path fill-rule="nonzero" fill="rgb(39.99939%, 39.99939%, 39.99939%)" fill-opacity="0.698039" stroke-width="0.645507" stroke-linecap="round" stroke-linejoin="round" stroke="rgb(39.99939%, 39.99939%, 39.99939%)" stroke-opacity="0.698039" stroke-miterlimit="10" d="M 178.588368 114.664062 C 178.588368 117.234375 174.736278 117.234375 174.736278 114.664062 C 174.736278 112.09375 178.588368 112.09375 178.588368 114.664062 " transform="matrix(0.998849, 0, 0, 1, 0, 0)"/>
<path fill-rule="nonzero" fill="rgb(39.99939%, 39.99939%, 39.99939%)" fill-opacity="0.698039" stroke-width="0.645507" stroke-linecap="round" stroke-linejoin="round" stroke="rgb(39.99939%, 39.99939%, 39.99939%)" stroke-opacity="0.698039" stroke-miterlimit="10" d="M 178.588368 114.664062 C 178.588368 117.234375 174.736278 117.234375 174.736278 114.664062 C 174.736278 112.09375 178.588368 112.09375 178.588368 114.664062 " transform="matrix(0.998849, 0, 0, 1, 0, 0)"/>
<path fill-rule="nonzero" fill="rgb(39.99939%, 39.99939%, 39.99939%)" fill-opacity="0.698039" stroke-width="0.645507" stroke-linecap="round" stroke-linejoin="round" stroke="rgb(39.99939%, 39.99939%, 39.99939%)" stroke-opacity="0.698039" stroke-miterlimit="10" d="M 178.588368 114.664062 C 178.588368 117.234375 174.736278 117.234375 174.736278 114.664062 C 174.736278 112.09375 178.588368 112.09375 178.588368 114.664062 " transform="matrix(0.998849, 0, 0, 1, 0, 0)"/>
<path fill-rule="nonzero" fill="rgb(39.99939%, 39.99939%, 39.99939%)" fill-opacity="0.698039" stroke-width="0.645507" stroke-linecap="round" stroke-linejoin="round" stroke="rgb(39.99939%, 39.99939%, 39.99939%)" stroke-opacity="0.698039" stroke-miterlimit="10" d="M 178.588368 114.664062 C 178.588368 117.234375 174.736278 117.234375 174.736278 114.664062 C 174.736278 112.09375 178.588368 112.09375 178.588368 114.664062 " transform="matrix(0.998849, 0, 0, 1, 0, 0)"/>
<path fill-rule="nonzero" fill="rgb(39.99939%, 39.99939%, 39.99939%)" fill-opacity="0.698039" stroke-width="0.645507" stroke-linecap="round" stroke-linejoin="round" stroke="rgb(39.99939%, 39.99939%, 39.99939%)" stroke-opacity="0.698039" stroke-miterlimit="10" d="M 178.588368 114.664062 C 178.588368 117.234375 174.736278 117.234375 174.736278 114.664062 C 174.736278 112.09375 178.588368 112.09375 178.588368 114.664062 " transform="matrix(0.998849, 0, 0, 1, 0, 0)"/>
<path fill-rule="nonzero" fill="rgb(39.99939%, 39.99939%, 39.99939%)" fill-opacity="0.698039" stroke-width="0.645507" stroke-linecap="round" stroke-linejoin="round" stroke="rgb(39.99939%, 39.99939%, 39.99939%)" stroke-opacity="0.698039" stroke-miterlimit="10" d="M 178.588368 114.664062 C 178.588368 117.234375 174.736278 117.234375 174.736278 114.664062 C 174.736278 112.09375 178.588368 112.09375 178.588368 114.664062 " transform="matrix(0.998849, 0, 0, 1, 0, 0)"/>
<path fill-rule="nonzero" fill="rgb(39.99939%, 39.99939%, 39.99939%)" fill-opacity="0.698039" stroke-width="0.645507" stroke-linecap="round" stroke-linejoin="round" stroke="rgb(39.99939%, 39.99939%, 39.99939%)" stroke-opacity="0.698039" stroke-miterlimit="10" d="M 178.588368 114.664062 C 178.588368 117.234375 174.736278 117.234375 174.736278 114.664062 C 174.736278 112.09375 178.588368 112.09375 178.588368 114.664062 " transform="matrix(0.998849, 0, 0, 1, 0, 0)"/>
<path fill-rule="nonzero" fill="rgb(39.99939%, 39.99939%, 39.99939%)" fill-opacity="0.698039" stroke-width="0.645507" stroke-linecap="round" stroke-linejoin="round" stroke="rgb(39.99939%, 39.99939%, 39.99939%)" stroke-opacity="0.698039" stroke-miterlimit="10" d="M 178.588368 114.664062 C 178.588368 117.234375 174.736278 117.234375 174.736278 114.664062 C 174.736278 112.09375 178.588368 112.09375 178.588368 114.664062 " transform="matrix(0.998849, 0, 0, 1, 0, 0)"/>
<path fill-rule="nonzero" fill="rgb(39.99939%, 39.99939%, 39.99939%)" fill-opacity="0.698039" stroke-width="0.645507" stroke-linecap="round" stroke-linejoin="round" stroke="rgb(39.99939%, 39.99939%, 39.99939%)" stroke-opacity="0.698039" stroke-miterlimit="10" d="M 178.588368 114.664062 C 178.588368 117.234375 174.736278 117.234375 174.736278 114.664062 C 174.736278 112.09375 178.588368 112.09375 178.588368 114.664062 " transform="matrix(0.998849, 0, 0, 1, 0, 0)"/>
<path fill-rule="nonzero" fill="rgb(39.99939%, 39.99939%, 39.99939%)" fill-opacity="0.698039" stroke-width="0.645507" stroke-linecap="round" stroke-linejoin="round" stroke="rgb(39.99939%, 39.99939%, 39.99939%)" stroke-opacity="0.698039" stroke-miterlimit="10" d="M 178.588368 114.664062 C 178.588368 117.234375 174.736278 117.234375 174.736278 114.664062 C 174.736278 112.09375 178.588368 112.09375 178.588368 114.664062 " transform="matrix(0.998849, 0, 0, 1, 0, 0)"/>
<path fill-rule="nonzero" fill="rgb(39.99939%, 39.99939%, 39.99939%)" fill-opacity="0.698039" stroke-width="0.645507" stroke-linecap="round" stroke-linejoin="round" stroke="rgb(39.99939%, 39.99939%, 39.99939%)" stroke-opacity="0.698039" stroke-miterlimit="10" d="M 178.588368 114.664062 C 178.588368 117.234375 174.736278 117.234375 174.736278 114.664062 C 174.736278 112.09375 178.588368 112.09375 178.588368 114.664062 " transform="matrix(0.998849, 0, 0, 1, 0, 0)"/>
<path fill-rule="nonzero" fill="rgb(39.99939%, 39.99939%, 39.99939%)" fill-opacity="0.698039" stroke-width="0.645507" stroke-linecap="round" stroke-linejoin="round" stroke="rgb(39.99939%, 39.99939%, 39.99939%)" stroke-opacity="0.698039" stroke-miterlimit="10" d="M 178.588368 114.664062 C 178.588368 117.234375 174.736278 117.234375 174.736278 114.664062 C 174.736278 112.09375 178.588368 112.09375 178.588368 114.664062 " transform="matrix(0.998849, 0, 0, 1, 0, 0)"/>
<path fill-rule="nonzero" fill="rgb(39.99939%, 39.99939%, 39.99939%)" fill-opacity="0.698039" stroke-width="0.645507" stroke-linecap="round" stroke-linejoin="round" stroke="rgb(39.99939%, 39.99939%, 39.99939%)" stroke-opacity="0.698039" stroke-miterlimit="10" d="M 178.588368 114.664062 C 178.588368 117.234375 174.736278 117.234375 174.736278 114.664062 C 174.736278 112.09375 178.588368 112.09375 178.588368 114.664062 " transform="matrix(0.998849, 0, 0, 1, 0, 0)"/>
<path fill-rule="nonzero" fill="rgb(39.99939%, 39.99939%, 39.99939%)" fill-opacity="0.698039" stroke-width="0.645507" stroke-linecap="round" stroke-linejoin="round" stroke="rgb(39.99939%, 39.99939%, 39.99939%)" stroke-opacity="0.698039" stroke-miterlimit="10" d="M 178.588368 114.664062 C 178.588368 117.234375 174.736278 117.234375 174.736278 114.664062 C 174.736278 112.09375 178.588368 112.09375 178.588368 114.664062 " transform="matrix(0.998849, 0, 0, 1, 0, 0)"/>
<path fill-rule="nonzero" fill="rgb(39.99939%, 39.99939%, 39.99939%)" fill-opacity="0.698039" stroke-width="0.645507" stroke-linecap="round" stroke-linejoin="round" stroke="rgb(39.99939%, 39.99939%, 39.99939%)" stroke-opacity="0.698039" stroke-miterlimit="10" d="M 178.588368 114.664062 C 178.588368 117.234375 174.736278 117.234375 174.736278 114.664062 C 174.736278 112.09375 178.588368 112.09375 178.588368 114.664062 " transform="matrix(0.998849, 0, 0, 1, 0, 0)"/>
<path fill-rule="nonzero" fill="rgb(39.99939%, 39.99939%, 39.99939%)" fill-opacity="0.698039" stroke-width="0.645507" stroke-linecap="round" stroke-linejoin="round" stroke="rgb(39.99939%, 39.99939%, 39.99939%)" stroke-opacity="0.698039" stroke-miterlimit="10" d="M 178.588368 114.664062 C 178.588368 117.234375 174.736278 117.234375 174.736278 114.664062 C 174.736278 112.09375 178.588368 112.09375 178.588368 114.664062 " transform="matrix(0.998849, 0, 0, 1, 0, 0)"/>
<path fill-rule="nonzero" fill="rgb(39.99939%, 39.99939%, 39.99939%)" fill-opacity="0.698039" stroke-width="0.645507" stroke-linecap="round" stroke-linejoin="round" stroke="rgb(39.99939%, 39.99939%, 39.99939%)" stroke-opacity="0.698039" stroke-miterlimit="10" d="M 178.588368 114.664062 C 178.588368 117.234375 174.736278 117.234375 174.736278 114.664062 C 174.736278 112.09375 178.588368 112.09375 178.588368 114.664062 " transform="matrix(0.998849, 0, 0, 1, 0, 0)"/>
<path fill-rule="nonzero" fill="rgb(39.99939%, 39.99939%, 39.99939%)" fill-opacity="0.698039" stroke-width="0.645507" stroke-linecap="round" stroke-linejoin="round" stroke="rgb(39.99939%, 39.99939%, 39.99939%)" stroke-opacity="0.698039" stroke-miterlimit="10" d="M 178.588368 114.664062 C 178.588368 117.234375 174.736278 117.234375 174.736278 114.664062 C 174.736278 112.09375 178.588368 112.09375 178.588368 114.664062 " transform="matrix(0.998849, 0, 0, 1, 0, 0)"/>
<path fill-rule="nonzero" fill="rgb(39.99939%, 39.99939%, 39.99939%)" fill-opacity="0.698039" stroke-width="0.645507" stroke-linecap="round" stroke-linejoin="round" stroke="rgb(39.99939%, 39.99939%, 39.99939%)" stroke-opacity="0.698039" stroke-miterlimit="10" d="M 178.588368 114.664062 C 178.588368 117.234375 174.736278 117.234375 174.736278 114.664062 C 174.736278 112.09375 178.588368 112.09375 178.588368 114.664062 " transform="matrix(0.998849, 0, 0, 1, 0, 0)"/>
<path fill-rule="nonzero" fill="rgb(39.99939%, 39.99939%, 39.99939%)" fill-opacity="0.698039" stroke-width="0.645507" stroke-linecap="round" stroke-linejoin="round" stroke="rgb(39.99939%, 39.99939%, 39.99939%)" stroke-opacity="0.698039" stroke-miterlimit="10" d="M 215.806988 95.441406 C 215.806988 98.007812 211.954898 98.007812 211.954898 95.441406 C 211.954898 92.875 215.806988 92.875 215.806988 95.441406 " transform="matrix(0.998849, 0, 0, 1, 0, 0)"/>
<path fill-rule="nonzero" fill="rgb(39.99939%, 39.99939%, 39.99939%)" fill-opacity="0.698039" stroke-width="0.645507" stroke-linecap="round" stroke-linejoin="round" stroke="rgb(39.99939%, 39.99939%, 39.99939%)" stroke-opacity="0.698039" stroke-miterlimit="10" d="M 215.806988 95.441406 C 215.806988 98.007812 211.954898 98.007812 211.954898 95.441406 C 211.954898 92.875 215.806988 92.875 215.806988 95.441406 " transform="matrix(0.998849, 0, 0, 1, 0, 0)"/>
<path fill-rule="nonzero" fill="rgb(39.99939%, 39.99939%, 39.99939%)" fill-opacity="0.698039" stroke-width="0.645507" stroke-linecap="round" stroke-linejoin="round" stroke="rgb(39.99939%, 39.99939%, 39.99939%)" stroke-opacity="0.698039" stroke-miterlimit="10" d="M 215.806988 95.441406 C 215.806988 98.007812 211.954898 98.007812 211.954898 95.441406 C 211.954898 92.875 215.806988 92.875 215.806988 95.441406 " transform="matrix(0.998849, 0, 0, 1, 0, 0)"/>
<path fill-rule="nonzero" fill="rgb(39.99939%, 39.99939%, 39.99939%)" fill-opacity="0.698039" stroke-width="0.645507" stroke-linecap="round" stroke-linejoin="round" stroke="rgb(39.99939%, 39.99939%, 39.99939%)" stroke-opacity="0.698039" stroke-miterlimit="10" d="M 215.806988 95.441406 C 215.806988 98.007812 211.954898 98.007812 211.954898 95.441406 C 211.954898 92.875 215.806988 92.875 215.806988 95.441406 " transform="matrix(0.998849, 0, 0, 1, 0, 0)"/>
<path fill-rule="nonzero" fill="rgb(39.99939%, 39.99939%, 39.99939%)" fill-opacity="0.698039" stroke-width="0.645507" stroke-linecap="round" stroke-linejoin="round" stroke="rgb(39.99939%, 39.99939%, 39.99939%)" stroke-opacity="0.698039" stroke-miterlimit="10" d="M 215.806988 95.441406 C 215.806988 98.007812 211.954898 98.007812 211.954898 95.441406 C 211.954898 92.875 215.806988 92.875 215.806988 95.441406 " transform="matrix(0.998849, 0, 0, 1, 0, 0)"/>
<path fill-rule="nonzero" fill="rgb(39.99939%, 39.99939%, 39.99939%)" fill-opacity="0.698039" stroke-width="0.645507" stroke-linecap="round" stroke-linejoin="round" stroke="rgb(39.99939%, 39.99939%, 39.99939%)" stroke-opacity="0.698039" stroke-miterlimit="10" d="M 215.806988 95.441406 C 215.806988 98.007812 211.954898 98.007812 211.954898 95.441406 C 211.954898 92.875 215.806988 92.875 215.806988 95.441406 " transform="matrix(0.998849, 0, 0, 1, 0, 0)"/>
<path fill-rule="nonzero" fill="rgb(39.99939%, 39.99939%, 39.99939%)" fill-opacity="0.698039" stroke-width="0.645507" stroke-linecap="round" stroke-linejoin="round" stroke="rgb(39.99939%, 39.99939%, 39.99939%)" stroke-opacity="0.698039" stroke-miterlimit="10" d="M 215.806988 95.441406 C 215.806988 98.007812 211.954898 98.007812 211.954898 95.441406 C 211.954898 92.875 215.806988 92.875 215.806988 95.441406 " transform="matrix(0.998849, 0, 0, 1, 0, 0)"/>
<path fill-rule="nonzero" fill="rgb(39.99939%, 39.99939%, 39.99939%)" fill-opacity="0.698039" stroke-width="0.645507" stroke-linecap="round" stroke-linejoin="round" stroke="rgb(39.99939%, 39.99939%, 39.99939%)" stroke-opacity="0.698039" stroke-miterlimit="10" d="M 215.806988 95.441406 C 215.806988 98.007812 211.954898 98.007812 211.954898 95.441406 C 211.954898 92.875 215.806988 92.875 215.806988 95.441406 " transform="matrix(0.998849, 0, 0, 1, 0, 0)"/>
<path fill-rule="nonzero" fill="rgb(39.99939%, 39.99939%, 39.99939%)" fill-opacity="0.698039" stroke-width="0.645507" stroke-linecap="round" stroke-linejoin="round" stroke="rgb(39.99939%, 39.99939%, 39.99939%)" stroke-opacity="0.698039" stroke-miterlimit="10" d="M 215.806988 95.441406 C 215.806988 98.007812 211.954898 98.007812 211.954898 95.441406 C 211.954898 92.875 215.806988 92.875 215.806988 95.441406 " transform="matrix(0.998849, 0, 0, 1, 0, 0)"/>
<path fill-rule="nonzero" fill="rgb(39.99939%, 39.99939%, 39.99939%)" fill-opacity="0.698039" stroke-width="0.645507" stroke-linecap="round" stroke-linejoin="round" stroke="rgb(39.99939%, 39.99939%, 39.99939%)" stroke-opacity="0.698039" stroke-miterlimit="10" d="M 215.806988 95.441406 C 215.806988 98.007812 211.954898 98.007812 211.954898 95.441406 C 211.954898 92.875 215.806988 92.875 215.806988 95.441406 " transform="matrix(0.998849, 0, 0, 1, 0, 0)"/>
<path fill-rule="nonzero" fill="rgb(39.99939%, 39.99939%, 39.99939%)" fill-opacity="0.698039" stroke-width="0.645507" stroke-linecap="round" stroke-linejoin="round" stroke="rgb(39.99939%, 39.99939%, 39.99939%)" stroke-opacity="0.698039" stroke-miterlimit="10" d="M 215.806988 95.441406 C 215.806988 98.007812 211.954898 98.007812 211.954898 95.441406 C 211.954898 92.875 215.806988 92.875 215.806988 95.441406 " transform="matrix(0.998849, 0, 0, 1, 0, 0)"/>
<path fill-rule="nonzero" fill="rgb(39.99939%, 39.99939%, 39.99939%)" fill-opacity="0.698039" stroke-width="0.645507" stroke-linecap="round" stroke-linejoin="round" stroke="rgb(39.99939%, 39.99939%, 39.99939%)" stroke-opacity="0.698039" stroke-miterlimit="10" d="M 215.806988 95.441406 C 215.806988 98.007812 211.954898 98.007812 211.954898 95.441406 C 211.954898 92.875 215.806988 92.875 215.806988 95.441406 " transform="matrix(0.998849, 0, 0, 1, 0, 0)"/>
<path fill-rule="nonzero" fill="rgb(39.99939%, 39.99939%, 39.99939%)" fill-opacity="0.698039" stroke-width="0.645507" stroke-linecap="round" stroke-linejoin="round" stroke="rgb(39.99939%, 39.99939%, 39.99939%)" stroke-opacity="0.698039" stroke-miterlimit="10" d="M 215.806988 95.441406 C 215.806988 98.007812 211.954898 98.007812 211.954898 95.441406 C 211.954898 92.875 215.806988 92.875 215.806988 95.441406 " transform="matrix(0.998849, 0, 0, 1, 0, 0)"/>
<path fill-rule="nonzero" fill="rgb(39.99939%, 39.99939%, 39.99939%)" fill-opacity="0.698039" stroke-width="0.645507" stroke-linecap="round" stroke-linejoin="round" stroke="rgb(39.99939%, 39.99939%, 39.99939%)" stroke-opacity="0.698039" stroke-miterlimit="10" d="M 215.806988 95.441406 C 215.806988 98.007812 211.954898 98.007812 211.954898 95.441406 C 211.954898 92.875 215.806988 92.875 215.806988 95.441406 " transform="matrix(0.998849, 0, 0, 1, 0, 0)"/>
<path fill-rule="nonzero" fill="rgb(39.99939%, 39.99939%, 39.99939%)" fill-opacity="0.698039" stroke-width="0.645507" stroke-linecap="round" stroke-linejoin="round" stroke="rgb(39.99939%, 39.99939%, 39.99939%)" stroke-opacity="0.698039" stroke-miterlimit="10" d="M 215.806988 95.441406 C 215.806988 98.007812 211.954898 98.007812 211.954898 95.441406 C 211.954898 92.875 215.806988 92.875 215.806988 95.441406 " transform="matrix(0.998849, 0, 0, 1, 0, 0)"/>
<path fill-rule="nonzero" fill="rgb(39.99939%, 39.99939%, 39.99939%)" fill-opacity="0.698039" stroke-width="0.645507" stroke-linecap="round" stroke-linejoin="round" stroke="rgb(39.99939%, 39.99939%, 39.99939%)" stroke-opacity="0.698039" stroke-miterlimit="10" d="M 215.806988 95.441406 C 215.806988 98.007812 211.954898 98.007812 211.954898 95.441406 C 211.954898 92.875 215.806988 92.875 215.806988 95.441406 " transform="matrix(0.998849, 0, 0, 1, 0, 0)"/>
<path fill-rule="nonzero" fill="rgb(39.99939%, 39.99939%, 39.99939%)" fill-opacity="0.698039" stroke-width="0.645507" stroke-linecap="round" stroke-linejoin="round" stroke="rgb(39.99939%, 39.99939%, 39.99939%)" stroke-opacity="0.698039" stroke-miterlimit="10" d="M 215.806988 95.441406 C 215.806988 98.007812 211.954898 98.007812 211.954898 95.441406 C 211.954898 92.875 215.806988 92.875 215.806988 95.441406 " transform="matrix(0.998849, 0, 0, 1, 0, 0)"/>
<path fill-rule="nonzero" fill="rgb(39.99939%, 39.99939%, 39.99939%)" fill-opacity="0.698039" stroke-width="0.645507" stroke-linecap="round" stroke-linejoin="round" stroke="rgb(39.99939%, 39.99939%, 39.99939%)" stroke-opacity="0.698039" stroke-miterlimit="10" d="M 215.806988 95.441406 C 215.806988 98.007812 211.954898 98.007812 211.954898 95.441406 C 211.954898 92.875 215.806988 92.875 215.806988 95.441406 " transform="matrix(0.998849, 0, 0, 1, 0, 0)"/>
<path fill-rule="nonzero" fill="rgb(39.99939%, 39.99939%, 39.99939%)" fill-opacity="0.698039" stroke-width="0.645507" stroke-linecap="round" stroke-linejoin="round" stroke="rgb(39.99939%, 39.99939%, 39.99939%)" stroke-opacity="0.698039" stroke-miterlimit="10" d="M 215.806988 95.441406 C 215.806988 98.007812 211.954898 98.007812 211.954898 95.441406 C 211.954898 92.875 215.806988 92.875 215.806988 95.441406 " transform="matrix(0.998849, 0, 0, 1, 0, 0)"/>
<path fill-rule="nonzero" fill="rgb(39.99939%, 39.99939%, 39.99939%)" fill-opacity="0.698039" stroke-width="0.645507" stroke-linecap="round" stroke-linejoin="round" stroke="rgb(39.99939%, 39.99939%, 39.99939%)" stroke-opacity="0.698039" stroke-miterlimit="10" d="M 215.806988 95.441406 C 215.806988 98.007812 211.954898 98.007812 211.954898 95.441406 C 211.954898 92.875 215.806988 92.875 215.806988 95.441406 " transform="matrix(0.998849, 0, 0, 1, 0, 0)"/>
<path fill="none" stroke-width="1.069082" stroke-linecap="round" stroke-linejoin="round" stroke="rgb(0%, 0%, 0%)" stroke-opacity="1" stroke-miterlimit="10" d="M 57.198648 0.535156 L 229.142649 0.535156 L 229.142649 140.023438 L 57.198648 140.023438 Z M 57.198648 0.535156 " transform="matrix(0.998849, 0, 0, 1, 0, 0)"/>
<g fill="rgb(30.195618%, 30.195618%, 30.195618%)" fill-opacity="1">
<use xlink:href="#glyph-1-0" x="28.354948" y="137.053396"/>
<use xlink:href="#glyph-1-1" x="32.807802" y="137.053396"/>
<use xlink:href="#glyph-1-0" x="35.032274" y="137.053396"/>
<use xlink:href="#glyph-1-0" x="39.485128" y="137.053396"/>
<use xlink:href="#glyph-1-0" x="43.937981" y="137.053396"/>
</g>
<g fill="rgb(30.195618%, 30.195618%, 30.195618%)" fill-opacity="1">
<use xlink:href="#glyph-1-0" x="28.354948" y="105.354344"/>
<use xlink:href="#glyph-1-1" x="32.807802" y="105.354344"/>
<use xlink:href="#glyph-1-0" x="35.032274" y="105.354344"/>
<use xlink:href="#glyph-1-2" x="39.485128" y="105.354344"/>
<use xlink:href="#glyph-1-3" x="43.937981" y="105.354344"/>
</g>
<g fill="rgb(30.195618%, 30.195618%, 30.195618%)" fill-opacity="1">
<use xlink:href="#glyph-1-0" x="28.354948" y="73.65138"/>
<use xlink:href="#glyph-1-1" x="32.807802" y="73.65138"/>
<use xlink:href="#glyph-1-0" x="35.032274" y="73.65138"/>
<use xlink:href="#glyph-1-3" x="39.485128" y="73.65138"/>
<use xlink:href="#glyph-1-0" x="43.937981" y="73.65138"/>
</g>
<g fill="rgb(30.195618%, 30.195618%, 30.195618%)" fill-opacity="1">
<use xlink:href="#glyph-1-0" x="28.354948" y="41.948416"/>
<use xlink:href="#glyph-1-1" x="32.807802" y="41.948416"/>
<use xlink:href="#glyph-1-0" x="35.032274" y="41.948416"/>
<use xlink:href="#glyph-1-4" x="39.485128" y="41.948416"/>
<use xlink:href="#glyph-1-3" x="43.937981" y="41.948416"/>
</g>
<g fill="rgb(30.195618%, 30.195618%, 30.195618%)" fill-opacity="1">
<use xlink:href="#glyph-1-0" x="28.354948" y="10.249364"/>
<use xlink:href="#glyph-1-1" x="32.807802" y="10.249364"/>
<use xlink:href="#glyph-1-5" x="35.032274" y="10.249364"/>
<use xlink:href="#glyph-1-0" x="39.485128" y="10.249364"/>
<use xlink:href="#glyph-1-0" x="43.937981" y="10.249364"/>
</g>
<path fill="none" stroke-width="1.069082" stroke-linecap="butt" stroke-linejoin="round" stroke="rgb(0%, 0%, 0%)" stroke-opacity="1" stroke-miterlimit="10" d="M 52.935929 133.683594 L 57.198648 133.683594 " transform="matrix(0.998849, 0, 0, 1, 0, 0)"/>
<path fill="none" stroke-width="1.069082" stroke-linecap="butt" stroke-linejoin="round" stroke="rgb(0%, 0%, 0%)" stroke-opacity="1" stroke-miterlimit="10" d="M 52.935929 101.984375 L 57.198648 101.984375 " transform="matrix(0.998849, 0, 0, 1, 0, 0)"/>
<path fill="none" stroke-width="1.069082" stroke-linecap="butt" stroke-linejoin="round" stroke="rgb(0%, 0%, 0%)" stroke-opacity="1" stroke-miterlimit="10" d="M 52.935929 70.28125 L 57.198648 70.28125 " transform="matrix(0.998849, 0, 0, 1, 0, 0)"/>
<path fill="none" stroke-width="1.069082" stroke-linecap="butt" stroke-linejoin="round" stroke="rgb(0%, 0%, 0%)" stroke-opacity="1" stroke-miterlimit="10" d="M 52.935929 38.578125 L 57.198648 38.578125 " transform="matrix(0.998849, 0, 0, 1, 0, 0)"/>
<path fill="none" stroke-width="1.069082" stroke-linecap="butt" stroke-linejoin="round" stroke="rgb(0%, 0%, 0%)" stroke-opacity="1" stroke-miterlimit="10" d="M 52.935929 6.878906 L 57.198648 6.878906 " transform="matrix(0.998849, 0, 0, 1, 0, 0)"/>
<path fill="none" stroke-width="1.069082" stroke-linecap="butt" stroke-linejoin="round" stroke="rgb(0%, 0%, 0%)" stroke-opacity="1" stroke-miterlimit="10" d="M 65.01624 144.285156 L 65.01624 140.023438 " transform="matrix(0.998849, 0, 0, 1, 0, 0)"/>
<path fill="none" stroke-width="1.069082" stroke-linecap="butt" stroke-linejoin="round" stroke="rgb(0%, 0%, 0%)" stroke-opacity="1" stroke-miterlimit="10" d="M 102.227038 144.285156 L 102.227038 140.023438 " transform="matrix(0.998849, 0, 0, 1, 0, 0)"/>
<path fill="none" stroke-width="1.069082" stroke-linecap="butt" stroke-linejoin="round" stroke="rgb(0%, 0%, 0%)" stroke-opacity="1" stroke-miterlimit="10" d="M 139.445658 144.285156 L 139.445658 140.023438 " transform="matrix(0.998849, 0, 0, 1, 0, 0)"/>
<path fill="none" stroke-width="1.069082" stroke-linecap="butt" stroke-linejoin="round" stroke="rgb(0%, 0%, 0%)" stroke-opacity="1" stroke-miterlimit="10" d="M 176.664278 144.285156 L 176.664278 140.023438 " transform="matrix(0.998849, 0, 0, 1, 0, 0)"/>
<path fill="none" stroke-width="1.069082" stroke-linecap="butt" stroke-linejoin="round" stroke="rgb(0%, 0%, 0%)" stroke-opacity="1" stroke-miterlimit="10" d="M 213.882898 144.285156 L 213.882898 140.023438 " transform="matrix(0.998849, 0, 0, 1, 0, 0)"/>
<g fill="rgb(30.195618%, 30.195618%, 30.195618%)" fill-opacity="1">
<use xlink:href="#glyph-1-0" x="62.71112" y="155.515482"/>
</g>
<g fill="rgb(30.195618%, 30.195618%, 30.195618%)" fill-opacity="1">
<use xlink:href="#glyph-1-2" x="95.435052" y="155.515482"/>
<use xlink:href="#glyph-1-3" x="99.887906" y="155.515482"/>
<use xlink:href="#glyph-1-0" x="104.34076" y="155.515482"/>
</g>
<g fill="rgb(30.195618%, 30.195618%, 30.195618%)" fill-opacity="1">
<use xlink:href="#glyph-1-3" x="132.605052" y="155.515482"/>
<use xlink:href="#glyph-1-0" x="137.057905" y="155.515482"/>
<use xlink:href="#glyph-1-0" x="141.510759" y="155.515482"/>
</g>
<g fill="rgb(30.195618%, 30.195618%, 30.195618%)" fill-opacity="1">
<use xlink:href="#glyph-1-4" x="169.783058" y="155.515482"/>
<use xlink:href="#glyph-1-3" x="174.235911" y="155.515482"/>
<use xlink:href="#glyph-1-0" x="178.688765" y="155.515482"/>
</g>
<g fill="rgb(30.195618%, 30.195618%, 30.195618%)" fill-opacity="1">
<use xlink:href="#glyph-1-5" x="204.729398" y="155.515482"/>
<use xlink:href="#glyph-1-0" x="209.182252" y="155.515482"/>
<use xlink:href="#glyph-1-0" x="213.635106" y="155.515482"/>
<use xlink:href="#glyph-1-0" x="218.08796" y="155.515482"/>
</g>
<g fill="rgb(0%, 0%, 0%)" fill-opacity="1">
<use xlink:href="#glyph-2-0" x="111.848889" y="168.877694"/>
<use xlink:href="#glyph-2-1" x="119.076469" y="168.877694"/>
<use xlink:href="#glyph-2-2" x="124.642536" y="168.877694"/>
<use xlink:href="#glyph-2-3" x="130.208603" y="168.877694"/>
<use xlink:href="#glyph-2-4" x="135.212688" y="168.877694"/>
<use xlink:href="#glyph-2-2" x="140.778755" y="168.877694"/>
<use xlink:href="#glyph-2-5" x="146.344823" y="168.877694"/>
<use xlink:href="#glyph-2-6" x="149.125413" y="168.877694"/>
<use xlink:href="#glyph-2-7" x="152.458212" y="168.877694"/>
<use xlink:href="#glyph-2-5" x="158.024279" y="168.877694"/>
<use xlink:href="#glyph-2-8" x="160.804869" y="168.877694"/>
<use xlink:href="#glyph-2-1" x="163.028364" y="168.877694"/>
<use xlink:href="#glyph-2-2" x="168.594431" y="168.877694"/>
</g>
<g fill="rgb(0%, 0%, 0%)" fill-opacity="1">
<use xlink:href="#glyph-3-0" x="22.752718" y="91.17412"/>
<use xlink:href="#glyph-3-1" x="22.752718" y="85.601639"/>
<use xlink:href="#glyph-3-2" x="22.752718" y="80.029158"/>
<use xlink:href="#glyph-3-1" x="22.752718" y="75.019307"/>
<use xlink:href="#glyph-3-3" x="22.752718" y="69.446827"/>
<use xlink:href="#glyph-3-4" x="22.752718" y="66.110188"/>
<use xlink:href="#glyph-3-5" x="22.752718" y="60.537707"/>
<use xlink:href="#glyph-3-1" x="22.752718" y="54.965226"/>
</g>
</svg>
